<svg version="1" xmlns="http://www.w3.org/2000/svg" width="2730.667" height="2730.667" viewBox="0 0 2048.000000 2048.000000"><path d="M1018.5 331.7c-5.7 1.7-12.6 6.5-15 10.5-.9 1.6-2 2.8-2.6 2.8-.5 0-.9.7-.9 1.5s-.4 1.5-.8 1.5c-.5 0-3 3-5.7 6.7-2.7 3.8-5.8 7.7-6.7 8.7-1 1.1-1.8 2.3-1.8 2.7 0 .4-.6 1.4-1.3 2.1-2.8 2.9-16.7 25.9-16.7 27.6 0 .6-.4 1.2-.9 1.2s-1.4 1.2-2 2.7c-.6 1.6-2.7 5.7-4.6 9.3-3.2 6.2-9.8 19.9-10 21 0 .3-.8 2.1-1.7 4-2.6 5.6-8 19.3-8.2 20.7-.1.7-.5 1.6-.9 1.9-.4.4-.7 1.6-.7 2.6s-.5 1.8-1.2 1.8c-.6 0-.9.3-.6.6.4.3 0 2-.7 3.7-.7 1.8-1.3 3.4-1.2 3.7 0 .7-2.4 8.3-3.2 9.5-.3.5-.6 1.4-.8 2-.1.5-.6 2.4-1.1 4.2-.6 1.7-.8 3.4-.4 3.7.3.3.1.6-.5.6-.5 0-1 .6-1 1.2 0 .7-.6 3.3-1.3 5.8-.8 2.5-1.4 4.8-1.4 5.2-.1.3-.4 1-.8 1.4-.5.4-.8 1.8-.8 3 0 1.3-.5 2.6-1 2.9-.6.4-.8 1-.6 1.3.2.4-.5 4.3-1.5 8.7-2.1 8.4-2.6 10.5-3.3 14.3-.3 1.3-.7 3.1-1 4-.7 2.5-1.9 9.4-2 11.9-.1 1.3-.4 2.3-.7 2.3-.3 0-.6.6-.6 1.2 0 .7-.3 3.1-.7 5.3-.4 2.2-.9 5.3-1.1 7-.7 4.8-1.3 7.4-2 8.5-.3.6 0 1 .7 1 1 0 1 .2-.1.9-.7.5-1 1.4-.7 2 .4.6.4 1.1-.1 1.1-.4 0-.9 1.5-.9 3.3-.1 1.7-.5 5.2-.8 7.7-.3 2.5-.8 7.4-1.2 11-.3 3.6-1 7-1.5 7.7-.7.7-.6 1.3 0 1.7.6.4.7 1.6.3 2.9-.5 1.2-.8 3.4-.7 4.9 0 1.6-.2 2.8-.5 2.8s-.6 2.6-.6 5.8c-.1 3.1-.5 9.3-.8 13.7-1.3 15.6-1.7 23.1-1.9 36.2-.1 7.3-.4 13.3-.7 13.3-1 0-.5 10.5.5 11.2.7.5.7.8 0 .8-1.1 0-1.2 42.6-.1 43.7.3.3.1 1.2-.5 2-.8.9-.8 1.3 0 1.3.7 0 .8.8.1 2.5-.5 1.4-.6 2.5-.2 2.5.4 0 .8 6 .9 13.3.2 7.2.5 18.1.9 24.2.3 6 .7 13.4.8 16.2 0 2.9.3 5.3.6 5.3s.5 3.5.5 7.8c0 4.2.2 8.1.4 8.7.3.5.6 3.6.7 7 .1 3.3.3 6 .4 6 .3 0 1.6 13.3 2.5 26 .2 2.7.7 6.6 1 8.5.3 1.9.7 6.2 1 9.5.3 3.3.7 7.1 1 8.5.3 1.4.7 4.7 1 7.5.3 2.7 1 7.4 1.5 10.4.5 2.9.7 5.7.5 6.1-.3.5-.2 1.1.3 1.4.5.3.8 2.1.7 4.1 0 1.9.3 3.5.7 3.5.3 0 .6.8.6 1.7-.1 2 .7 7.2 2 13.1.5 2 .8 4.5.6 5.5-.1.9.1 1.7.5 1.7s.8 1.5.9 3.2c.2 1.8.7 5.1 1.3 7.3.6 2.2 1.3 5.2 1.4 6.6.2 1.5 1.1 5.3 1.9 8.5.8 3.1 1.3 6.1 1 6.6-.3.4 0 .8.6.8.7 0 1 .7.7 1.5-.4.8-.2 1.7.3 2 .5.3.9 1.3.8 2.3 0 .9.8 4.2 1.7 7.2.8 3 1.8 6.4 2 7.5.3 1.1 1.4 5.1 2.6 9 2.5 8.2 2.8 9.4 2.9 10 .1.2 1 2.8 2.1 5.7 1.1 2.9 2.2 6 2.4 7 .2.9 1.1 3 1.9 4.7.9 1.7 1.7 3.4 1.7 3.8.2 1.3 1.8 5.2 4.6 11.1 1.5 3.1 2.7 5.9 2.7 6.2.1.3 1.3 2.6 2.9 5.2 1.5 2.6 2.7 5.1 2.7 5.7 0 .6.5 1.1 1 1.1.6 0 1 .5 1 1 0 1.1 8.6 14.2 11.9 18.2 3.6 4.5 9.1 9.8 10.1 9.8.5 0 1 .4 1 .9 0 1.4 10.1 5.1 15.1 5.4 2.5.2 5 .6 5.5 1 .6.3 1.6.2 2.4-.3.8-.5 2.1-.5 2.9 0 1.8.8 43.1 1.1 44.5.2.5-.3 2.3-.7 4-.8 5-.4 12-3 15.1-5.6 3.4-2.7 9.7-9.4 10.3-10.8 1.4-3.2 12.7-21.5 13.4-21.8.5-.2.8-1.2.8-2.3 0-1 .5-1.9 1-1.9.6 0 1-.4 1-.9s1.6-3.7 3.5-7c1.9-3.4 3.4-6.4 3.5-6.6 0-.3 1.2-3.1 2.6-6.2 2.4-5.5 11.2-29.1 12-32.3.2-.8 1.3-4.7 2.4-8.5 1.2-3.9 2.3-7.7 2.5-8.5.2-.8.4-1.5.5-1.5.2 0 .8-2.6 1.6-6.5.3-1.9 1-4.3 1.5-5.2.5-.9.8-2.1.7-2.5-.1-.4.3-3.1 1-5.8 1.8-7.2 2.2-9.5 2.8-14 .3-2.2.8-4.7 1.1-5.5.4-.8.7-2.6.9-4 .1-1.4.3-2.6.4-2.8.1-.1.4-.7.5-1.2.1-.6.3-1.1.4-1.3.1-.1.4-2.3.6-4.8.2-2.6.7-6 1-7.5.4-1.6.8-4 1-5.4.9-5.9 1.5-9.8 2.1-14.5.4-2.8.8-5.7.9-6.5 1.4-10.5 1.9-13.9 2.1-16 .1-1.4.3-2.5.4-2.5.1 0 .4-2.5.6-5.5 1-10.5 1.2-12.5 1.4-12.5.1 0 .4-2.6.5-5.7.2-3.2.6-7.7 1-10 .4-2.4.8-7 1-10.3.1-3.3.4-6 .5-6 .1 0 .3-2.5.5-5.5.1-3 .5-8.4.8-12 .4-3.6.7-9.2.8-12.5.1-3.3.6-6.8 1-7.7.6-1 .5-1.9-.1-2.3-.6-.4-.6-1.5 0-3 .6-1.7.6-2.5-.1-2.5-.6 0-.7-.5-.3-1.1 1.1-1.8 1.7-26.4 1.7-68.4 0-38-.5-54.4-1.8-56.4-.3-.6-.1-1.1.5-1.1s.8-.5.3-1.2c-.4-.7-.8-2.4-.9-3.8-.1-1.4-.5-7-.9-12.5-.9-14.4-1.3-20-2-28.5-.3-4.1-.7-10.5-1-14.2-.2-3.8-.5-7.1-.8-7.5-.4-.8-.8-5.4-1.1-10.6 0-1.5-.3-2.7-.6-2.7s-.5-2.5-.5-5.5-.3-5.5-.6-5.5c-.6 0-1.5-4.8-2-10-.1-1.4-1.1-7.1-2.5-14.5-.3-1.7-.7-3.5-.8-4-.1-.6-.4-1.5-.7-2-.4-.6-.5-2-.4-3.3.1-1.2-.2-2.2-.6-2.2-.4 0-.6-1.1-.4-2.5.1-1.4-.1-2.5-.5-2.5s-.7-.6-.7-1.3c-.1-1.4-.6-3.9-2.9-12.7-.9-3.6-1.7-7.2-1.8-8-.1-.9-.5-2-.8-2.5-.3-.6-1.1-3.5-1.9-6.5-.7-3-1.6-5.9-2.1-6.4-.4-.6-.8-2-.8-3.3 0-1.3-.4-3.1-.9-4.1-.5-.9-1.7-4.4-2.7-7.7-.9-3.3-3.6-11.4-6-18-2.3-6.6-4.4-12.7-4.6-13.5-.2-.8-.7-1.8-1.1-2.1-.5-.3-1-1.2-1.1-2-.2-.8-.8-2.5-1.4-3.9-2.7-6.4-3.5-8.5-3.7-9 0-.3-2.4-5.4-5.3-11.4-2.9-5.9-5.2-11.2-5.2-11.6 0-.5-.3-1-.7-1.2-.5-.2-2.8-4.1-5.2-8.8-2.4-4.7-4.7-8.7-5-9-.3-.3-1.5-2.1-2.5-4-1.1-1.9-4.4-7.2-7.5-11.8-3.1-4.6-6-9.1-6.6-10-.5-.9-1.4-2.1-2-2.7-.5-.7-2.1-2.7-3.5-4.5-8.9-11.8-14.7-18.2-18.7-20.9-2.6-1.7-5.1-3.1-5.7-3.2-.6 0-2-.3-3.1-.5-5.2-1.1-9.4-1-14 .3zM740.8 436.7c-3.4 1-6.3 2.9-10 6.7-10 10-16.6 18.2-15.5 19.2.3.3.1 1.9-.3 3.5-.5 1.8-.5 2.9.1 2.9s.7.5.4 1.1c-1 1.5-1.1 70.9-.2 70.9.5 0 .5.5.1 1.1-.9 1.6-1.1 62.9-.1 62.9.5 0 .5.5.1 1.1-.9 1.6-1.1 62.9-.1 62.9.5 0 .5.5.1 1.2-.9 1.4-.8 33.3 0 34.7.4.5.2 1.2-.3 1.5-.5.3-.6 2.1-.1 4 .4 1.9.5 3.7.3 4-.9.9-.9 18.6 0 18.6.5 0 .5.5.1 1.2-.8 1.3-.7 17.5.1 18.8.3.5.1 1.1-.4 1.4-.5.3-.6 2.1-.1 4 .4 1.9.5 3.7.3 4-.9.9-.9 18.6 0 18.6.5 0 .5.5.1 1.2-.8 1.3-.7 17.5.1 18.8.3.5.1 1.1-.4 1.4-.5.3-.6 2.1-.1 4 .4 1.9.5 3.7.3 4-.9.9-.9 18.6 0 18.6.5 0 .5.5.1 1.2-.8 1.3-.7 17.5.1 18.8.3.5.1 1.1-.4 1.4-.5.3-.6 2.1-.1 4 .4 1.9.5 3.7.3 4-.9.9-.9 18.6 0 18.6.5 0 .6.4.2.9-.3.6-.5 40.6-.5 89 0 62.3-.3 88.7-1.1 90.4-.6 1.3-2.6 3.1-4.4 4l-3.3 1.6-.4-6.1c-.1-3.3 0-6.1.3-6.3.3-.2.2-2.9-.1-6-.3-3.1-.4-5.8-.1-6 .3-.1.4-5.6.1-12-.3-6.4-.3-11.8 0-12 .3-.2.3-5.6 0-12s-.3-11.8 0-12c.3-.2.3-5.6 0-12s-.3-11.8 0-12c.3-.2.3-16.4 0-36s-.2-35.8.1-36c.3-.2.2-2.9-.1-6-.3-3.1-.3-5.8 0-6 .3-.2.3-2.9 0-6s-.4-5.8-.1-6c.3-.1.4-5.6.1-12-.3-6.4-.2-11.9.1-12 .3-.2.2-2.9-.1-6-.3-3.1-.3-5.8 0-6 .3-.2.3-2.9 0-6s-.4-5.8-.1-6c.3-.1.4-5.6.1-12-.3-6.4-.2-11.9.1-12 .3-.2.2-2.9-.1-6-.3-3.1-.3-5.8 0-6 .3-.2.3-2.9 0-6s-.4-5.8-.1-6c.3-.1.4-5.6.1-12-.3-6.4-.2-11.9.1-12 .3-.2.2-2.9-.1-6-.3-3.1-.3-5.8 0-6 .3-.2.3-2.9 0-6s-.4-5.8-.1-6c.3-.2.4-9.2.1-20-.3-10.8-.3-19.8 0-20 .3-.2.3-5.6 0-12s-.3-11.8-.1-12c.5-.6.2-37.5-.4-38.5-.3-.5-.2-1.1.2-1.3.5-.3.6-5.8.3-12.2-.3-6.4-.3-11.8-.1-12 .5-.6.2-37.5-.4-38.5-.3-.5-.2-1.1.2-1.3.5-.3.6-5.8.3-12.2-.3-6.4-.3-11.8-.1-12 .2-.2.3-3.1.3-6.5-.1-3.3-.1-16.9-.2-30.3v-24.2l-2.2 3.5c-1.3 1.9-2.6 3.6-3 3.8-.5.2-.8 1.2-.8 2.3 0 1-.4 1.9-.8 1.9-.5 0-1.5 2.2-2.4 5-.9 2.8-1.2 5-.6 5 .5 0 .6.6.1 1.2-1.2 2-1 182.1.2 183 .7.5.6.8-.1.8-.6 0-1 1-.8 2.2.1 1.3.3 2.3.4 2.3.1 0 .3 1 .4 2.2.2 1.3 0 2.3-.3 2.3-.4 0-.6 3.1-.6 7 0 3.8.4 7 .9 7s.4.6-.1 1.2c-.8 1.1-1 3.3-.3 4 .5.7.6 4.8 0 4.8-1 0-.6 13.4.5 14.2.6.5.6.8-.1.8-1.1 0-1.3 2.7-.3 4.5.3.6.4 2.1.2 3.5-.8 5.9-.8 15 0 15 .6 0 .6.5 0 1.2-.8 1.1-1 3.3-.3 4 .5.7.6 4.8 0 4.8-.9 0-.6 10.2.3 11.7.4.6.3 1.4-.1 1.7-.9.6-.8 5.3.2 6.3.2.3.1 1.6-.4 2.9-.6 1.6-.6 2.4.1 2.4.6 0 .7.6.2 1.2-1 1.8-1.1 8.8 0 8.8.4 0 .5.6.1 1.2-.5.7-.8 2.2-.8 3.3 0 1.1.3 2.6.8 3.3.4.6.4 1.2-.1 1.2-.4 0-.8 1.1-.8 2.5s.4 2.5.9 2.5.4.6-.1 1.2c-1.1 1.6-1.1 8.8 0 10.5.5.7.4 1.3-.1 1.3-1 0-.9 3 .2 4.8.4.6.4 1.2-.1 1.2-1 0-1 7.1 0 8.7.5.7.4 1.3-.1 1.3-1 0-.9 3 .2 4.8.4.6.4 1.2-.1 1.2-.4 0-.8 1.1-.8 2.5s.4 2.5.8 2.5c.5 0 .5.6 0 1.2-1 1.8-1.1 8.8 0 8.8.4 0 .5.6.1 1.2-.5.7-.8 2.2-.8 3.3 0 1.1.3 2.6.8 3.3.4.6.4 1.2-.1 1.2-.4 0-.8 1.1-.8 2.5s.4 2.5.9 2.5.4.6-.1 1.2c-1.1 1.6-1.1 8.8 0 10.5.5.7.4 1.3-.1 1.3-1 0-.9 3 .2 4.8.4.6.3 1.2-.2 1.2-.9 0-.8 4.2.1 5.7.3.5.2 1.5-.3 2.3-.5.9-.5 1.9.2 2.7.6.7.6 1.3.1 1.3-.9 0-.9 8.2 0 9.7.3.5.2 1.5-.3 2.3-.5.9-.5 1.9.2 2.7.6.7.6 1.3.1 1.3-.9 0-.9 8.2 0 9.7.3.5.2 1.5-.3 2.3-.5.9-.5 1.9.2 2.7.6.7.6 1.3.1 1.3-.9 0-.9 8.2 0 9.7.3.5.2 1.5-.3 2.3-.5.9-.5 1.9.2 2.7.6.7.7 1.3.2 1.3-.5 0-.9 2-.9 4.5s.4 4.5.8 4.5c.5 0 .5.6 0 1.2-1 1.7-1 10.8 0 10.8.5 0 .5.6.1 1.2-1.1 1.7-1.3 4.8-.3 4.8.4 0 .3 1.6-.1 3.5-.5 2.1-.4 3.5.1 3.5.6 0 .6.7.1 1.7-.8 1.9-.7 8.1.2 9 .3.3.1 1.3-.4 2.2-.5 1-.5 2.3-.1 3 .5.7.5 2.8.1 4.7-.5 2-.4 3.4.2 3.4.5 0 .6.5.2 1.1-1 1.6-1.1 9.9-.1 9.9.4 0 .5.6.1 1.2-1.1 1.7-1.3 4.8-.3 4.8.4 0 .3 1.6-.1 3.5-.5 2.1-.4 3.5.1 3.5.6 0 .6.7.1 1.7-.8 1.9-.7 8.1.2 9 .3.3.1 1.3-.4 2.2-.5 1-.5 2.3 0 3 .4.8.4 2.7 0 4.2-.5 1.8-.5 2.9.1 2.9s.7.6.2 1.2c-.4.7-.8 2.4-.9 3.8-.1 1.4-.2 3.2-.3 4.1-.1 1.6-6.8 5.6-7.7 4.6-.3-.2-.5-127.3-.5-282.3-.1-155.1-.3-281.3-.6-280.6-.3.6-.9 1-1.4.6-.5-.3-.9 0-.9.5 0 .6-2.4 6.4-5.4 12.8-6.2 13.7-7 15.5-6.8 16.5.1.5-.3.8-.8.8s-.9.3-.8.7c.3 1-2.2 8.4-3.2 9.8-.4.5-1.1 2.3-1.5 4-1.2 4.6-1.2 4.6-3.8 11.7-1.3 3.7-2.2 7-1.9 7.3.3.3.1.5-.5.5-.5 0-1 .6-1 1.2 0 .7-.6 3.3-1.3 5.8-.8 2.5-1.4 5.2-1.4 6 0 .8-.4 1.8-.9 2.1-.4.3-.9 1.9-1.1 3.5-.2 1.6-.5 2.9-.6 2.9-.2 0-.5 1.4-1.4 5.5-.5 2.1-1.4 6.1-2.2 9.2-.1.5-.2.9-.4 1-.1.2-.3 1.2-.4 2.3-.2 1.1-1.1 5.6-2.1 10-.9 4.4-1.9 9.1-2 10.5-.2 1.4-.7 3.8-1.1 5.5-.3 1.6-.6 3.7-.7 4.5 0 .8-.3 1.9-.6 2.5-.4.5-.6 2.5-.6 4.2.1 1.8-.1 3.3-.4 3.3-.4 0-.7 1.5-.8 3.2-.2 3.2-.5 6.2-1.8 15.8-1.1 7.8-2.2 19.4-3 29.5-.3 3.8-.8 9.7-1.1 13-1.8 20.5-2.1 111.5-.4 111.5.3 0 .6 3.9.7 8.7.1 4.9.2 8.8.3 8.8.1 0 .3 2 .4 4.5.1 2.5.4 4.9.6 5.5.3.5.5 3.4.5 6.2 0 2.9.4 5.3.9 5.3s.3.6-.3 1.3c-.6.8-.8 1.7-.4 2 .3.4.8 2.4.9 4.4.2 2.1.6 6.5.8 9.8.3 3.3.8 8.2 1.1 11 .3 2.7.7 6.6.9 8.6.1 2 .6 4.1 1 4.7.4.7.2 1.2-.6 1.2s-.9.3-.3.8c.6.4 1 1.6.9 2.7 0 1.1.3 2.8.8 3.7.5 1 .4 1.9-.2 2.3-.7.4-.8 1.1-.2 1.8.5.7 1.3 3.9 1.6 7.2.4 3.3.9 7.3 1.1 9 .1 1.6.8 5.9 1.4 9.5.6 3.6 1.3 7.6 1.5 9 .3 1.4.5 2.5.6 2.5.1 0 .3.9.4 2 .2 1.1.7 4 1.1 6.5.5 2.5.8 5.1.6 5.7-.1.7.2 1.3.7 1.3.5 0 .8 1 .7 2.2-.1 1.3.2 2.9.7 3.5.6.7.8 2 .4 2.8-.3.8-.1 1.5.3 1.5.5 0 .8.8.6 1.7-.1 1 .1 2.5.6 3.4.4.8 1 2.9 1.3 4.5.2 1.6.5 2.9.6 2.9.1 0 .3.9.5 2 .5 2.7 2.6 10.7 3.2 12.5.5 1.3 1 3.2 1.7 6.5.1.5.4 1.4.7 2 .5.8 1.4 3.9 2.5 8 2.5 10.4 11.7 33.1 17.7 43.5 1.8 3 3.2 5.8 3.2 6.2 0 .3 1 1.8 2.2 3.1 1.2 1.4 1.9 2.8 1.6 3.1-.4.3-.1.6.5.6.7 0 1.2.5 1.2 1 0 .6 1 2.2 2.3 3.5l2.2 2.4 6.5-3.3c3.6-1.8 10.1-5.2 14.5-7.5 4.4-2.2 8.5-4.1 9.2-4.1.7 0 1.3-.5 1.3-1 0-.6.4-1 1-1 .5 0 3.4-1.2 6.5-2.6 8.4-4 9.5-3.9 32.4 4.8 8.6 3.2 16.1 6 16.6 6.2.6.2 2.4.9 4 1.5 5.3 2.3 10 3.7 11.3 3.5.6-.1 1.6-.2 2.2-.3 1.6-.2 5.2-4.4 6.2-7.4.6-1.5 1.4-2.7 1.8-2.7.4 0 1.1-1.1 1.4-2.5.4-1.4 1.1-2.5 1.6-2.5.6 0 1-.4 1-.9s1.8-4.9 4-9.8c5.5-12 5.4-11.7 8.8-20.8 1.6-4.4 3.3-9.5 3.6-11.2.4-1.8 1.1-3.3 1.5-3.3.4 0 .7-1 .8-2.3.1-1.2.9-4.7 1.8-7.7s1.8-6.2 1.9-7c.1-.9.5-2 .8-2.5.3-.6.9-2.4 1.2-4 1.2-5.7 1.7-8 2-9 .9-3 1.6-6.3 2-8.5.2-1.4 1.1-5.4 1.9-9 .9-3.6 1.8-8.3 2.1-10.5.7-4.6 1-6.2 2.4-12.3.7-2.8.7-4.2 0-4.2s-.6-.5.1-1.3c.6-.7 1.3-3.3 1.5-5.8.3-2.4.8-5.5 1-6.8.3-1.3.8-4.7 1.1-7.5.3-2.8.7-6.7 1-8.6.3-1.9.8-5.8 1.1-8.5.2-2.8.6-7 .9-9.5.3-2.5.7-6.8 1-9.5.2-2.8.7-8.2 1.1-12 .4-3.9.7-9.4.7-12.3.1-2.8.3-5.2.6-5.2s.7-2.8.7-6.3c.1-3.4.5-10 .8-14.7 2.5-34.3 2.6-114.4.2-126-.3-1.3 0-2.7.7-3.2.9-.5.9-.8 0-.8-.7 0-1.2-2.2-1.3-6.3-.2-9.3-.3-10.7-.9-10.7-.4 0-.6-2.1-.7-4.8-.1-4.7-1-13.6-2.1-20.2-.3-1.9-.6-5-.7-6.8 0-1.7-.3-3.2-.6-3.2s-.6-.8-.7-1.8c-.1-2.6-1.1-10.4-1.7-13.3-.3-1.4-.8-4.1-1-6-.3-1.9-.6-3.4-.7-3.4-.1 0-.3-.9-.5-2-.8-5-1.3-7.5-2.9-14.5-1-4.1-1.8-8.2-1.9-9-.1-.9-.5-2-.9-2.6-.3-.6-.9-2.6-1.1-4.5-.3-1.9-1-5-1.6-6.9-1-3.1-1.8-6.3-2.4-9.5-.1-.6-.5-1.5-.8-2.1-.4-.6-.9-2.1-1.2-3.5-.2-1.3-.9-3.6-1.5-5.2-.6-1.5-.8-2.7-.5-2.7.4 0 .2-.6-.3-1.3-.5-.6-1.8-3.9-2.8-7.2-1-3.3-2.2-7.1-2.8-8.5-.6-1.4-1.1-3.1-1.3-3.8-.2-1.2-3.9-10.6-6.7-17.2-.6-1.4-1.1-2.7-1.2-3-.1-.3-1.1-2.7-2.3-5.3-1.2-2.7-2.2-5.2-2.2-5.7 0-.4-.7-1.3-1.5-2-.8-.6-1.4-1.5-1.3-1.8.1-.4-.8-2.9-2-5.6-3-6.6-4.8-5.1-4.5 3.9.1 3.6.4 7.3.7 8 .3.8.2 1.5-.2 1.5-.9 0-.6 10.5.3 12 .3.5.2 1-.3 1-.8 0-.6 7.3.3 9.7.2.7.1 1.3-.3 1.3-.9 0-.6 10.5.3 12 .3.5.2 1-.3 1-.8 0-.6 7.3.3 9.7.2.7.1 1.3-.3 1.3-.9 0-.6 13.6.3 15.1.4.5.2.9-.2.9-1 0-.8 10.4.2 12 .3.5.2 1-.3 1-.8 0-.6 7.3.3 9.7.2.7.1 1.3-.3 1.3-.9 0-.6 10.5.3 12 .3.5.2 1-.3 1-.8 0-.6 7.3.3 9.7.2.7.1 1.3-.3 1.3-.9 0-.6 13.6.3 15.1.4.5.2.9-.2.9-1 0-.8 10.4.2 12 .3.5.2 1-.3 1-.8 0-.6 7.3.3 9.7.2.7.1 1.3-.3 1.3-.9 0-.6 10.5.3 12 .3.5.2 1-.3 1-.8 0-.6 7.3.3 9.7.2.7.1 1.3-.4 1.3-.8 0-.5 12.4.3 14.7.3.7.2 1.3-.2 1.3-.9 0-.6 10.5.3 12 .3.5.2 1-.3 1-.8 0-.6 7.3.3 9.7.2.7.1 1.3-.3 1.3-.9 0-.6 10.5.3 12 .3.5.2 1-.3 1-.8 0-.6 7.3.3 9.7.2.7.1 1.3-.3 1.3s-.7 2-.7 4.5.4 4.5.8 4.5c.5 0 .5.5.1 1.2-1 1.6-1.1 14.8-.1 14.8.5 0 .5.5.1 1.2-1 1.6-1.1 13.8-.2 13.8.4 0 .4 1-.1 2.3-.5 1.4-.5 3 0 4 .6.9.6 1.7.2 1.7-1 0-.8 10.4.2 12 .3.5.2 1-.3 1-.8 0-.6 7.3.3 9.7.2.7.1 1.3-.3 1.3-.9 0-.6 10.5.3 12 .3.5.2 1-.3 1-.8 0-.6 7.3.3 9.7.2.7.1 1.3-.3 1.3s-.7 2-.7 4.5.4 4.5.8 4.5c.5 0 .5.5.1 1.2-1 1.6-1.1 14.8-.1 14.8.5 0 .5.5.1 1.2-.9 1.4-.8 16.3.1 17.8.3.5.2 1-.3 1-.8 0-.6 7.3.3 9.7.2.7.1 1.3-.3 1.3-.6 0-.8 8.5-.2 11.5.1.6.2 1.2.1 1.5-.6 1.6-.5 11 .1 11 .4 0 .4 1-.1 2.3-.5 1.4-.5 3 0 4 .6.9.6 1.7.2 1.7-.9 0-.8 10.8.1 11.7.2.3.1 1.6-.4 2.9-.6 1.6-.6 2.4.1 2.4.6 0 .7.5.3 1.2-1 1.6-1.1 14.8-.1 14.8.5 0 .5.6.1 1.2-.9 1.5-.8 19.3.1 20.8.3.5.2 1-.2 1-1 0-.8 10.4.2 12 .3.5.2 1-.3 1-.8 0-.6 7.3.3 9.7.2.7.1 1.3-.3 1.3-.9 0-.6 10.5.3 12 .3.5.2 1-.3 1-.8 0-.6 7.3.3 9.7.2.7.1 1.3-.3 1.3s-.7 2-.7 4.5.4 4.5.9 4.5.4.6-.1 1.2c-.5.7-.8 2.8-.6 4.5.2 2.6-.1 3.3-1.5 3.3-2 0-6.1-3.4-6.3-5.3-.1-.7-.3-129.2-.4-285.7-.1-156.5-.5-286.3-1-288.5-.5-2.2-.8-4.3-.7-4.8.1-.4-.2-.7-.8-.7-.5 0-.7-.7-.4-1.5.4-.8.1-1.5-.5-1.5s-1-.3-1-.8c.4-2.1-.3-3-1.9-2.6-1.6.5-1.7 15-1.7 292.8 0 261.5-.2 292.2-1.5 292.3-.9.1-2.7-.7-4-1.7l-2.5-1.9-.2-290.8c0-159.9-.2-293.7-.4-297.3-.2-6.3-1.3-10.3-3.4-12.7-.5-.6-3.2-3.7-6-6.9-12.7-14.8-19.4-18-30.7-14.7zM1302 437c-7.6 1.4-12.2 5-22.6 17.9-1 1.3-3.1 3.8-4.6 5.6-1.6 1.8-2.8 3.8-2.8 4.4 0 .6-.4 1.1-.9 1.1s-2.4 2.3-4.2 5.1c-1.8 2.8-3.8 5.7-4.6 6.5-.8.7-1.3 1.6-1.3 1.9 0 .3-.6 1.5-1.4 2.8-5.8 9.3-8.4 13.7-10.1 17.2-1.1 2.2-2.2 4.2-2.5 4.5-.6.5-7.4 14.1-7.5 15-.1.3-1 2.5-2.2 5-1.1 2.5-3.3 7.4-4.7 11-1.5 3.6-3.1 7.4-3.6 8.5-.5 1.1-2.3 6-4 11-1.7 4.9-3.3 9.7-3.7 10.5-.3.8-.7 1.9-.9 2.5-.1.5-1.2 4.1-2.4 8-4.4 14.4-5.1 17.1-5.3 19.5-.1 1.4-.5 2.7-.8 3-.6.5-2.9 8.3-3.3 11.5-.6 4-1.9 10-2.4 10.9-.3.6-.6 1.9-.8 3-.1 2.1-1.2 8.2-2 11.7-.9 4.2-1.2 5.6-1.9 10.4-.5 2.7-.9 5.7-1 6.5-1.3 8.7-1.7 11.6-2.1 14.8-.3 2-.7 5-.9 6.7-.2 1.6-.6 5.5-.9 8.5l-1.1 11c-.4 3-.8 8.9-.8 13.2-.1 4.2-.4 7.5-.7 7.3-.3-.2-.6 3.8-.7 8.8-.5 22.8-.8 27.2-1.7 27.9-.7.5-.7.8-.1.8 1.2 0 1.4 22.9.2 24.7-.4.6-.3 1.4.1 1.7.5.3 1 4.5 1.1 9.3.2 12.9.9 31.8 1.1 31.8.1 0 .3 3.8.5 8.5s.6 12.1 1 16.5c1.1 16.6 1.7 25.2 2 31.5.7 12.3 2.3 32.5 2.5 32.5.1 0 .3 1.6.5 3.5s.6 5.7.9 8.5c.3 2.7.8 7 1.1 9.5.3 2.4.8 5.6 1.1 7 .7 3.4 1.6 10 1.7 12.7.1 1.3.4 2.3.7 2.3.3 0 .6.8.7 1.7 0 2.1.9 7.7 1.8 11.8.3 1.6.7 4.2.8 5.7.1 1.5.5 2.8.8 2.8.4 0 .9 1.7 1.2 3.7 1.3 8 2.1 12.1 3 14.3.3.8.8 2.6 1 4 .3 1.4.8 3.4 1 4.5.8 3.1 2.8 10.9 3 12 .1.5.5 1.4.8 2 .4.5 1.2 3.5 1.9 6.5s1.6 5.9 2 6.5c.4.5 1 2.3 1.3 4 .3 1.6 1.1 4.3 1.8 6 .7 1.6 1.3 3.2 1.3 3.5 1.1 5.3 15.8 35.8 18 37.2.6.4.7.8.3.8-1.5 0 10.4 16.3 15.1 20.7 5.2 4.9 11.7 8.2 16.7 8.5 1.9.2 3.5.5 3.5.8 0 .8 4.4.5 5.8-.4.7-.4 1.2-.3 1.2.2 0 .6 7.8 1 19 1 10.8 0 19-.4 19-1 0-.5.9-.4 2 .2 1.1.6 2 .7 2 .2 0-.5 1.5-.9 3.3-.9 5.4.1 14.8-5.1 20.1-11.2 1.2-1.3 2.6-2.9 3.1-3.5 1.2-1.4 7.5-10.9 10.3-15.6 3.3-5.7 12.1-23 11.6-23-.3 0 .2-1.4 1.1-3 .9-1.6 1.3-3 1-3-.4 0 .1-.7.9-1.6.9-.8 1.7-2.2 1.7-3 .2-1.8.3-2.4 1.7-5.6 1-2.5 6.3-19.2 6.8-21.3.1-.6 1-3.7 2-7 .9-3.3 1.8-6.7 1.9-7.5 0-.9.5-2.1.9-2.8.4-.7.5-1.6.2-1.9-.3-.3-.1-1.2.5-2 .6-.7.9-1.3.5-1.3-.3 0-.1-1.2.5-2.8.6-1.5 1.3-4.5 1.6-6.7.2-2.2.7-4.2 1.1-4.5.4-.3.8-1.6.9-3 .1-2.6 1-8.3 1.4-8.8.3-.3.5-1.3 1.4-7.2.5-3 1-6 1.1-6.5.1-.6.3-1.2.4-1.5.1-.3.3-1.7.4-3.1.2-1.4.6-3.1 1-3.7.4-.7.2-1.2-.6-1.2s-.9-.3-.3-.8c1.3-.9 1.7-2.8 1.8-7 0-1.7.3-3.2.7-3.2.3 0 .6-1.2.6-2.8.1-3 1-10.7 1.9-16.2.3-1.9.7-5.8.9-8.6.2-2.8.5-5.5.8-6 .2-.5.4-2.8.3-5.2-.1-2.3.1-4.2.4-4.2.3 0 .6-1.9.7-4.3.1-2.3.5-8.5.9-13.7.4-5.2.9-12 1-15 .2-3 .4-5.5.5-5.5.1 0 .3-3.7.5-8.1.1-4.5.5-8.7.9-9.3.4-.6.1-1.1-.6-1.1-.8 0-.9-.3-.3-.8.6-.4 1.1-2.5 1.1-4.7.1-2.2.4-10.8.8-19 .4-8.3.9-18.9 1.1-23.7.2-4.8.6-9.2 1-9.8.3-.5.1-1-.5-1-.8 0-.8-.6 0-2 .6-1.1.7-2 .3-2-.4 0-.8-3-.9-6.8-.1-6.3-1.2-28.7-1.4-28.7-.1 0-.9-11.3-1.5-22.5-.8-14.9-1.6-24.3-2.1-25.2-.3-.4.1-.8.8-.8.8 0 .9-.3.3-.8-.5-.4-1.1-1.6-1.2-2.7-.1-1.8-.6-6.3-1.8-18.5-.2-1.9-.6-4.6-.8-6-.3-1.4-.8-4.9-1.2-7.9-.3-3-.9-6.3-1.2-7.5-.8-3.7-1.2-6-1.8-10.6-.3-2.5-.8-5.2-1.1-6-.8-2.1-1.7-7.1-1.8-9.8-.1-1.2-.4-2.2-.7-2.2-.4 0-.9-1.5-1.2-3.3-.3-1.7-.8-4.2-1.1-5.5-.3-1.2-.8-3.1-1-4.2-1.5-6.6-8.7-31.8-10.3-36-.4-.8-.7-1.7-.8-2-.4-1.8-2.8-8.8-3.5-10.5-.4-1.1-2.7-7-5.1-13-2.3-6.1-6.2-15.3-8.7-20.5-2.5-5.2-4.6-9.7-4.7-10-.1-.5-.9-2-5.7-10.5-1.6-2.8-3.1-5.8-3.4-6.8-.4-.9-1.1-1.7-1.6-1.7s-.6-.5-.3-1c.3-.6.1-1-.4-1-.6 0-1.1-.4-1.1-.9 0-2.1-21.1-32.1-23.2-32.9-.4-.2-.8-.8-.8-1.2 0-.5-1-1.9-2.3-3.2-1.2-1.3-3.1-3.4-4.2-4.8-1.8-2.3-8.2-7.4-9.5-7.6-.3 0-1.6-.4-3-.7-4-1.1-8.2-1.4-12-.7zm6 335.5V1094h-7V451h7v321.5zm9-313.8c0 .5 2.1 3 4.5 5.8 8.7 9.7 19.3 25.5 27.6 41 2 3.8 5.3 9.9 7.3 13.5 1.9 3.6 4.3 8.7 5.2 11.5.8 2.7 1.8 5.7 2.1 6.5 1.2 3.1 2.5 10.3 2.9 16 .1 2.5.3 4.7.4 5 .1.3.3 9.2.3 19.7.1 12.3-.2 19.3-.8 19.4-.7 0-.7.2 0 .5 1.1.4 1.1 43.6 0 45.4-.3.6-.1 1 .5 1s.9.4.6.9c-.5.8-.9 139-.6 239.4 0 25.2-.2 46.2-.5 46.7-.3.6-.3 1 .2 1 .4 0 .8 16.4.8 36.5 0 23.7-.4 36.5-1 36.5-.7 0-.7.3 0 .8.6.4 1 3.8 1 7.7 0 3.8-.4 7.3-1 7.7-.7.5-.7.8 0 .8 2.3 0 .5 17.1-2.6 26-1.1 3-2.1 5.9-2.3 6.5-.4 1.3-4.4 9.5-5.9 12-4.8 8.1-9.1 14.5-9.8 14.5-.5 0-.9.5-.9 1 0 1.4-4.6 6-6 6-.6 0-.9.4-.6.9.3.5-.5 1.2-1.9 1.5-1.3.3-3.7 1.1-5.2 1.8-4.2 1.7-14.8 2.6-16 1.4-.5-.4-.8-624.4-.4-633.9.1-1.6 2.1-2.5 2.1-1zm-22.6 319.6v315.2l-5-.2c-2.7 0-5.6-.3-6.4-.6-.8-.3-2.5-.8-3.7-1.2-1.3-.4-2.3-1.1-2.3-1.6s-.3-.8-.8-.6c-2.4.7-8-6.4-17.3-22.3-2.4-4.1-4.7-7.7-5.1-7.8-.5-.2-.8-.9-.8-1.6 0-.7-.8-2.9-1.8-4.9-1.7-3.6-1.8-15.5-1.7-260.5V535.5l2.6-5.5c1.4-3 5.2-9.8 8.4-15 3.1-5.2 6.5-10.9 7.5-12.6 1-1.7 4.1-6.8 6.9-11.2 2.8-4.5 5.1-8.6 5.1-9.1s.4-1.1.8-1.3c.5-.2 2.8-3.6 5.1-7.6 2.4-3.9 4.7-7.2 5.2-7.2s.8-.3.8-.8c-.3-1.5.1-2.2 1.4-2.2.9 0 1.2 63.7 1.1 315.3z"/><path d="M583.6 1047.7c-.4.5-3.3.9-6.4 1-9.7.3-29.2 1.3-40.2 1.9-5.8.4-13.6.7-17.5.8-3.8 0-7.3.5-7.7 1.1-.5.7-.8.6-.8-.1 0-.6-1.4-.9-3.2-.7-4 .5-12.1 1.1-20.8 1.7-3.6.2-6.5.5-6.5.6 0 0-4 .3-9 .4-4.9.2-9 .5-9 .6 0 .1-4.3.3-9.6.4-5.3.2-10.2.6-10.8 1-.6.4-1.1.2-1.1-.4 0-.6-.5-.8-1.2-.4-1.2.8-3.1 1-19.8 1.9-6.3.3-15.8.8-21 1.1-5.2.3-13.4.7-18.3.8-4.8.2-9 .6-9.4.9-.3.4-1.2.2-2-.4-.7-.6-1.3-.8-1.3-.3s-2.4.9-5.3 1c-2.8.1-11 .4-18.2.9-7.1.4-16.2.8-20 .9-3.9.1-7.5.4-8 .7-.6.2-5.2.4-10.2.4-5.1 0-9.3.2-9.3.5s-3 .6-6.8.7c-18.1.4-28.2.8-28.2 1.3 0 .3-4.4.6-9.8.6-5.3.1-15.8.5-23.2.9-23.2 1.2-62.3 1.3-63.9.1-1.1-.8-1.3-.8-.8 0 .4.8-.5 1.1-2.8 1-1.9 0-3.5-.4-3.5-.8s-1.1-.3-2.4.2c-1.3.5-2.6.7-2.8.5-.4-.4-20.3-1.6-31.8-1.9-3 0-5.7-.4-6-.7-.3-.4-2.8-.9-5.7-1.2-2.8-.3-6.1-1-7.2-1.6-1.2-.7-2.1-.9-2.1-.6 0 .3-1 0-2.2-.7-1.3-.7-2.6-1.1-3-1-.4.1-2.5-.5-4.7-1.3-2.3-.8-4.1-1.2-4.1-1 0 .2-1.7-.3-3.8-1.2-2-.8-3.8-1.5-3.9-1.4-.2 0-.4.1-.5 0-8.1-2.4-27.8-3.5-35.4-1.8-3.3.7-6.1 1.3-6.4 1.4-2.3.5-7.2 4-8.7 6.2-4.2 6.2-.4 14.2 13.6 28.6 8.9 9.1 12.3 14.4 12.4 19.1 0 2 .5 3.2 1.1 2.9.5-.4.6-.1.1.7-.9 1.4-1.1 3.1-1.9 12.5-.3 3.3-.6 6-.6 6-.3 0-1.2 8-1.3 11.2-.1 1.8-.4 3.3-.7 3.3-.4 0-.7.6-.7 1.2-.2 3.6-1.4 9.9-2.3 12.4-.6 1.6-1.1 3-1.1 3.1.1.2 0 .5 0 .8-.3 1.1-.5 2.1-1.3 6-.4 2.2-1.1 4.4-1.4 5-.4.5-.7 1.2-.7 1.5-.1.3-.7 2.8-1.4 5.6-.7 2.9-1.3 5.8-1.4 6.5-.2.8-.6 2-1 2.6-.5.7-.6 1.3-.2 1.3.3 0 .1.8-.4 1.8-.6 1.1-1.2 3.1-1.5 4.6-.5 2.9-9.5 36.2-10.4 38.6-.3.8-.4 1.9-.3 2.4.1.4-.4 1.4-1 2.2-.6.8-.9 1.4-.6 1.4.3 0-.3 3.3-1.5 7.2-1.1 4-2.1 7.7-2.2 8.3-.1.5-.5 1.6-1 2.3-.4.7-.5 1.6-.2 1.9.3.3.1 1.3-.4 2.3-1 1.8-2.1 6.4-2.3 9.2-.1 1-.4 1.8-.7 1.8-.3 0-.7.8-.8 1.7-.3 2.8-.7 4.5-2.1 8.6-.7 2.1-1 4.1-.7 4.4.3.4.2 1.1-.3 1.7-.6.7-1.2 2.3-1.5 3.6-.3 1.4-.7 3.4-1 4.5-2.4 8.9-3.8 15.6-3.9 18.2-.1 1.3-.4 2.3-.7 2.3-.4 0-.7 1.2-.7 2.7-.1 1.6-.4 4.1-.8 5.6-.3 1.6-.8 4.8-1.1 7-.2 2.3-.8 6.7-1.1 9.7-1 7.7-.9 47 0 56 1 9.9 1.4 12.7 2.3 17.5.4 2.2.8 5.2.8 6.7.1 1.6.5 2.8.9 2.8.5 0 .7.6.4 1.2-.2.7 0 2.1.5 3.2.7 1.4.7 1.6-.2 1.1-.9-.6-.9-.3-.1 1.3.6 1.1 1.2 3.8 1.4 6 .2 2.1.7 4.4 1 4.9.4.6.9 2.6 1.2 4.4.2 1.9.7 4.5 1 5.9.3 1.4.8 3.8 1.1 5.4.2 1.6.7 3.3 1 3.8.3.5.7 1.9.9 3.1.1 1.2.7 4.2 1.3 6.7 1.8 7.5 2.4 10.4 2.5 12.5.1 1.1.5 2.2.9 2.5.4.3.8 2 1 3.8.1 1.8.7 3.2 1.2 3.2s.7.3.4.6c-.4.3-.2 2 .3 3.7.6 1.8 1.2 4.7 1.5 6.6.2 1.9.8 3.9 1.2 4.5.4.6.9 2.4 1.1 4.1.2 1.6.7 3.8 1.2 4.7.5.9.9 2.7.9 4.1 0 1.3.3 2.7.7 3.1.4.3.8 1.4.9 2.4.1.9 1 4.2 1.9 7.2 1.7 5.9 2.3 8 2.9 10.7.2 1 1.6 6.3 3.1 11.8 1.5 5.5 2.8 10.4 2.9 11 .1.5.5 1.6.9 2.2.5.7.6 1.3.3 1.3s-.1 1.2.5 2.8c.9 2.3 1.5 4.6 2.3 8.7.1.5.5 1.5.9 2.1.4.7.9 2.9 1.3 5 .3 2.2.9 4.3 1.2 4.9.3.5.7 1.6.9 2.5.1.8.7 3.5 1.3 6 .6 2.5 1.3 5.8 1.6 7.5.3 1.6 1 3.8 1.5 4.7.5 1 .8 1.8.5 1.8-.3 0 0 1.5.6 3.2 1.2 4 1.7 19.8.6 19.8-.4 0-.8.7-.8 1.6 0 3.7-3.9 9.4-12 17.4-11.3 11.1-15.7 18.8-15.1 26.2.1 1.8 5.7 7.8 7 7.6.3-.1 1.3.1 2.1.5 4.6 1.8 9.9 3 13.5 3.2 2.2.1 4.6.4 5.2.8.5.3 1.3.4 1.7 0 .3-.3 2.7-.7 5.3-.8 2.7-.2 4.8-.3 4.8-.5 0-.1.9-.3 2-.5s3.5-.8 5.3-1.3c1.8-.6 3.3-1.1 3.5-1.1.1 0 1.5-.5 3.1-1.1 1.6-.6 3.8-1.2 5-1.5 1.1-.2 2.1-.4 2.1-.5 0-.2 1.1-.5 12-3 11.3-2.7 13.3-3.1 17-3.5 1.7-.2 5.3-.7 8-1.1 2.8-.4 7.6-.8 10.7-.8 3.2-.1 5.8-.4 5.8-.7 0-.9 46.3-.5 47.8.4.7.5 1.2.4 1.2-.2 0-.5.9-.9 2-.8 1.1.1 2 .4 2 .7 0 .3 7.5.6 16.8.7 19.9.3 46 1.1 80.7 2.6 3.3.2 6.5.6 7.1.9.5.4 1.6.3 2.4-.2.7-.4 2.3-.5 3.4-.1 1.2.4 5.8.7 10.3.7 4.6-.1 8.3.1 8.3.4 0 .3 3.3.6 7.3.7 3.9.1 8.4.4 9.9.6 1.5.3 3 .1 3.4-.4.3-.6 1-.6 1.7-.1s3.5 1 6.2 1.1c2.8.2 7.7.4 11 .7 3.3.2 10.5.6 16 .9 5.5.3 12.3.7 15 1 5 .4 22 1.4 32.5 1.8 3 .1 6 .6 6.7 1 .6.4 1.4.3 1.8-.2.3-.6 1.5-.7 2.8-.2 1.2.4 5.7.7 9.9.7 4.3-.1 7.8.1 7.8.4 0 .3 3 .5 6.8.5 3.7-.1 7 .1 7.4.3.4.1 6.1.5 12.5.8 6.5.3 15.2.7 19.3 1 4.1.2 8.1.4 8.8.4h2.5c1.3 0 11.2.6 26.2 1.5 5 .3 12.4.7 16.5.8 4.2.2 8.1.7 8.8 1.1.7.4 1.2.2 1.2-.6s.3-.9.8-.3c.4.5 4.3 1.1 8.7 1.2 4.4.1 12.7.4 18.5.8 5.8.3 13.3.8 16.8 1 3.5.1 6.6.5 6.9.8.3.3 1.5.2 2.8-.3 1.3-.5 2.6-.6 2.9-.3.6.6 15 1.5 29.3 1.7 4.6 0 8.3.3 8.3.6s4.2.6 9.3.8c5 .1 12.8.5 17.2.7 8.3.5 23.6 1.1 48.2 1.9 7.9.3 14.7.7 15.2 1.1.5.3 1.2.1 1.6-.5.4-.6 1.1-.8 1.6-.4 1 .6 19.8 1.4 41.1 1.7 6.5.1 11.8.5 11.8.9s1.3.3 2.9-.2c1.6-.4 3.2-.6 3.5-.3.3.3 8.3.7 17.8.9 9.5.2 17.3.3 17.3.4 0 .1 35.7.9 65 1.5 57.6 1 205.2.5 269-1 15.4-.4 35.9-.8 45.5-1 9.6-.2 17.5-.4 17.5-.5 0-.1 1-.3 2.3-.4 1.2-.2 2.2.2 2.2.8 0 .7.3.8.8.1.6-.9 8.9-1.3 39.2-1.9 4.1 0 7.8-.6 8.2-1.1.5-.6.8-.5.8.2 0 .8.7 1 2.3.5 1.2-.4 7.5-.7 13.9-.7 6.5 0 11.8-.3 11.8-.6 0-1 4.5-.5 5.2.6.5.7.8.6.8-.1 0-.6 3.1-1 8.1-1 4.4.1 8.3-.2 8.6-.7.2-.4 1.2-.3 2.2.3 1 .5 2.1.7 2.4.4 1.1-1.1 5.7-1.1 5.7 0 0 .7.3.8.8.1.4-.6 2.1-1.1 3.7-1.2 1.7 0 9.5-.4 17.5-.8s17.7-.8 21.5-.9c3.9-.1 7.6-.5 8.3-.9.7-.5 1.2-.3 1.2.3s.4.8 1 .5c.5-.3 5.3-.8 10.6-1 5.2-.2 9.8-.6 10.1-.8.3-.3 1.6-.2 2.9.3 1.6.7 2.4.6 2.4-.1 0-.8.5-.7 1.5.1.8.7 1.5.8 1.5.3 0-.6 3.6-1.1 8.3-1.3 4.5-.1 10.5-.3 13.2-.4 2.8-.1 5.6-.5 6.3-.9.7-.5 1.2-.3 1.2.3s.5.8 1 .5c.6-.4 5.7-.9 11.3-1.1 22.6-1 30.2-1.3 30.2-1.4 0-.1 10.4-.8 24.5-1.5 11.4-.6 26-1.4 34-2 9-.5 26-1.5 35-2 4.1-.2 7.5-.4 7.5-.5 0-.2 21.2-1.2 29.7-1.4 4.3 0 7.8-.3 7.8-.6s2.1-.6 4.8-.6c6.3-.2 28-1.3 36.7-1.9 3.9-.3 12-.7 18-.9 6.1-.3 11-.6 11-.7 0-.2 14.4-1 23.2-1.2 5.1-.1 9.3-.4 9.3-.7 0-.3 3.7-.6 8.3-.7 14.1-.4 22.4-1 23.6-1.7.6-.4 1.1-.3 1.1.2s1.7.7 3.8.3c2-.3 8.3-.6 13.9-.6 5.7 0 10.3-.2 10.3-.5s8.2-.5 18.3-.5c10 0 18.8-.4 19.5-.9.9-.7 1.7-.5 2.3.5.7 1.1.9 1.1.9 0 0-1 .3-1.1 1.4-.2.8.7 1.7.8 2 .3.8-1.3 61.6-.5 61.6.8 0 .3 1.7.6 3.8.6 3.6.2 8.2.8 13.2 1.9 1.4.3 4.1.8 6 1.1 1.9.3 4.2.8 5 1.1.8.3 2.4.8 3.5 1 1.1.2 6.8 1.9 12.6 3.8 11.7 3.8 15.8 4.7 20.7 4.9 1.7 0 3.2.3 3.2.7 0 .3 1.2.4 2.8.2 1.5-.2 5-.5 7.7-.8 2.8-.2 6.1-.8 7.5-1.3 1.4-.5 3-1.1 3.5-1.2 5.3-1.1 10.8-5.2 12-8.9.8-2.7-1.3-9.6-3.7-11.7-1-1-1.8-2.3-1.8-3.1 0-.7-.4-1.3-1-1.3-.5 0-1-.7-1-1.6 0-.8-.4-1.2-1-.9-.5.3-1 .1-1-.5s-3.1-4.3-7-8.2c-9.2-9.3-11.9-14.8-11.4-23 .4-7.2 1.6-18.6 2.8-25.3.3-1.7.8-4.9 1.1-7.3.3-2.4 1.5-7.8 2.6-12 2.1-8.1 2.6-10.1 3.3-12.9.2-1 .9-3.1 1.5-4.6.6-1.5 1-3.1 1-3.5-.1-.4 0-1 .1-1.5.1-.4.3-1 .4-1.5.8-3.8 4.1-14.8 4.5-15.2.3-.3.6-1 .6-1.5.1-2.9 1.8-9.5 2.4-9.5.4 0 .7-.8.8-1.8 0-.9.4-2.8.8-4.2.3-1.4.7-3 .8-3.5.2-.6.6-1.6 1-2.3.5-.6.6-1.2.3-1.2-.2 0 0-1.5.6-3.3.5-1.7 1.9-6.4 2.9-10.2 1.1-3.9 2.5-8.6 3-10.5.6-1.9 1-4.3 1-5.3 0-.9.4-1.7.8-1.7s.8-.6.8-1.3c0-.6.6-3.2 1.2-5.7.7-2.5 1.4-5.2 1.6-6 .2-.8.4-1.5.5-1.5.1 0 .3-.7.5-1.5 1.1-5.1 1.6-7.3 3.5-14.5 1.1-4.4 2.4-8.7 2.7-9.5.3-.8.5-1.9.4-2.4-.1-.5.1-1.6.5-2.5.4-.9.8-2.7.9-4.1.1-1.4.4-3 .8-3.6.3-.6.8-2.4 1.1-4 .5-2.5 1.4-7.9 2-10.9.1-.6.5-1.5.9-2.2.4-.6.3-1.4-.3-1.8-.6-.4-.7-1.2-.3-1.8 1-1.5 1.3-3.3 1.6-7.9.1-2.1.4-3.8.7-3.8 2.3 0 1.9-58.7-.4-74-.2-1.4-.7-4.3-1-6.5-.3-2.2-.8-5.1-1-6.5-.3-1.4-.7-4.1-1-6-.2-1.9-.7-4.6-1-6-.3-1.4-.8-3.6-1-5-.3-1.4-.8-3.6-1.1-5-.4-1.4-.7-3.7-.8-5.3 0-1.5-.3-2.7-.7-2.7-.3 0-.7-1.6-.8-3.6-.2-2-.7-4.6-1.3-5.6-.6-1.1-.8-2.2-.5-2.5.3-.4.1-1.2-.5-2-.6-.7-.9-1.3-.7-1.3.3 0-.1-2.6-.9-5.8-.8-3.1-1.6-7.1-1.9-8.7-.3-1.7-1-4.2-1.5-5.7-.6-1.5-.8-3.2-.4-3.7.3-.6.2-1.1-.3-1.1s-.9-.6-.9-1.3c-.1-1.5-.7-4-3.2-13.7-1-4.1-1.7-7.8-1.4-8.3.2-.4-.1-.7-.7-.7-.7 0-1-.6-.7-1.4.3-.7 0-1.9-.6-2.5-.6-.6-.8-1.1-.5-1.1.4 0 .2-1.5-.3-3.3-1.3-4.2-2-6.9-2.3-8.7-.7-3.6-1.9-7.6-2.8-8.6-.5-.7-.7-1.6-.6-2 .2-.5-.2-2.7-.9-4.9-4-13.5-4.7-16.2-4.9-17.5-.1-.8-.5-2.4-.8-3.5-2.8-10.1-4.6-16.5-5.4-19.3-.6-1.7-.8-3.2-.5-3.2.3 0 .1-.6-.4-1.3-.6-.6-.9-2-.8-3 .2-.9-.1-1.7-.6-1.7-.6 0-.9-.6-.8-1.3.1-.6-.1-2.4-.5-3.8s-.9-3.4-1.1-4.5c-.2-1-.4-2-.5-2.2-.2-.1-.4-.7-.5-1.2-.1-.6-.3-1.1-.5-1.3-.2-.2-.5-1.9-1.6-8.2-.3-2.2-.9-4.7-1.3-5.5-1.1-2.2-.6-12.9.8-17.7 1.2-4.5 6.9-12.5 11-15.8 6.1-4.7 12.9-13.3 15.2-19.2 1.4-3.5 1.9-9.3.9-9.3-.5 0-1.2-.9-1.5-2-.3-1.1-1.3-2-2.1-2s-1.4-.4-1.4-.8c0-1.1-8.2-3.8-14.5-4.8-9-1.4-18.5-.7-28 2-.5.2-2.3.6-4 1.1-1.6.4-3.4 1-4 1.4-.5.3-1.7.7-2.5.9-2.5.5-4.5 1-4.5 1.2 0 .2-3.5 1.1-5.5 1.4-.9.1-2.1.5-2.8 1-.6.4-1.2.5-1.2.2 0-.2-1.5 0-3.3.5-1.7.5-4.8 1.2-6.7 1.5-1.9.3-4.6.8-6 1-4.3.9-11.5 1.8-23.5 2.9-9.2.9-65 .4-66-.6-.3-.4-2.1-.3-3.9.1-1.9.4-3.9.5-4.4.1-.6-.3-7.8-.6-16.1-.6s-15.1-.2-15.1-.5-6.6-.6-14.8-.7c-13-.2-22.8-.6-43.7-1.8-3.3-.2-6-.4-6-.4 0-.3-21.3-1.3-27.7-1.4-3.2-.1-5.8-.4-5.8-.9 0-.4-1.1-.3-2.4.2-1.3.5-2.7.6-3 .3-.3-.3-3.4-.7-6.8-1-10.7-.7-21-1.3-28.8-1.7-4.1-.3-11.8-.7-17-1-20.5-1.3-23.7-1.4-30.8-1.7-4-.1-7.5-.6-7.8-1-.3-.5-1.3-.5-2.3.1-1 .5-2.1.7-2.4.4-.3-.3-5.7-.8-11.9-1-12.7-.4-31.3-1.3-31.3-1.4 0-.1-11.7-.8-22.1-1.4-3.3-.1-6.6-.6-7.4-1.1-.9-.6-1.1-.4-.5.5.6.9.4 1.1-.5.5-.7-.4-4.9-.9-9.4-1.1-4.4-.1-11.5-.5-15.6-.8-19-1.3-28.9-1.9-34.2-1.9-3.2-.1-5.8-.4-5.8-.7 0-.7-30-.8-30.1-.1-.6 2.8-.3 17.1.4 17.1.4 0 .6.4.3.8-.2.4 1.9.8 4.7.9 2.9 0 8.8.3 13.2.7 8 .6 9.4.7 11.8.5.6 0 5.9.3 11.7.6 5.8.4 13.5.8 17.3.8 3.7.1 6.7.4 6.7.7 0 .3 3.9.6 8.8.6 4.8.1 13.2.4 18.7.8s13.8.9 18.5 1.1c4.7.2 13 .7 18.5 1 5.5.3 13.4.7 17.5 1 7.2.3 14.3.8 33.8 2.1 4.8.3 12.3.7 16.7 1 4.4.2 12.5.6 18 1 5.5.3 12.4.6 15.3.7 2.8.1 5.2.6 5.2 1.1 0 .4.6.3 1.3-.3.8-.6 1.6-.9 1.9-.6.5.5 23 1.8 34.1 1.9 4.2 0 7.7.4 7.7.9s.6.4 1.3-.2c.8-.6 1.7-.8 2-.4.6.6 14.6 1.4 28.9 1.7 3.8 0 6.8.3 6.8.6s4.6.6 10.3.6c22.8.4 34.7.9 34.7 1.7 0 .4.9.3 2-.3s2-.7 2-.3c0 .5 2.4.9 5.3 1 19.7.3 30.7.9 30.7 1.6 0 .5.6.5 1.3 0 1.6-1 3.8-1 6 0 1 .5 1.7.4 1.7-.3s.7-.8 1.8-.2c1.4.6 55.6.9 57.2.2.3-.1 2.8-.3 5.5-.5 2.8-.1 7.3-.6 10-1 2.8-.4 6.4-.9 8-1.1 1.7-.2 4.1-.6 5.5-.9 1.4-.3 4.3-.8 6.5-1.1 2.2-.4 4.2-.9 4.5-1.3.5-.6 3-1 7.8-1.4 1.2-.1 2.2-.5 2.2-.8 0-.4 2.1-1.2 4.8-1.9 2.6-.7 5.2-1.6 5.7-1.9.6-.3 1.5-.6 2-.7.6-.1 2.4-.5 4-.9 1.7-.3 4.4-.8 6-1.1 7.4-1 9.9-1.5 10.3-1.9.3-.3 1.1 0 1.9.6 1.1.9.1 2.4-5 7.3-16.2 15.6-19.3 30.4-13.2 62.6.9 4.7 1.8 8.9 1.9 9.5.1.5.5 1.6.9 2.2.5.7.6 1.3.4 1.3-.3 0-.1 1.7.5 3.7.5 2.1 1.3 5.4 1.8 7.3.5 1.9 1.4 5.3 2 7.5.6 2.2 1.3 4.9 1.5 5.9.2 1 .9 3.3 1.5 5.1.6 1.8 1.2 4.1 1.5 5.3.5 3 5.5 20.2 6.8 23.7.7 1.6 1.2 3.2 1.2 3.5.6 4.2 3 12 3.7 12 .5 0 .7.4.4.8-.3.5.4 3.8 1.4 7.3 1.1 3.5 2.2 7.3 2.5 8.4.2 1.1 1.2 4.7 2.1 8 .9 3.3 1.7 6.5 1.8 7.2.1.7.5 1.6.9 1.9.4.4.7 2 .7 3.6 0 1.5.4 2.8.8 2.8s.8.8.9 1.7c.2 2.5 1 6.3 2.2 10.1.5 1.8 1 3.5 1 3.7.1.3.1.6.2.7.2.8 1 4.6 1.3 6.3.6 3.2 1.5 7.8 2.2 10.5.3 1.4.7 3.4.9 4.5.2 1.1.9 4.7 1.5 8 .7 3.3 1.3 7.3 1.5 9 .2 1.6.4 3 .6 3 .1 0 .3 1.8.5 4 .1 2.2.3 4 .4 4 .3 0 .5 1.5 1.5 11 .4 3.8.8 9.3.9 12.1.2 2.8.6 5.6 1 6.2.3.6.2 1.3-.3 1.6-.6.4-.6 1.8-.1 3.6.6 2.1.5 3-.3 3s-.9.3-.1.8c1.1.8 1.2 5.2 0 7-.4.7-.3 1.2.2 1.2.4 0 .8 2.4.8 5.4-.1 3-.3 5.3-.6 5.1-.3-.2-.6 2.9-.6 6.8-.2 7.2-.8 14.8-2 22.2-.3 2.2-.8 5.3-1 7-.3 1.6-.7 3.7-.9 4.5-.2.8-.7 3.5-1 6-.4 2.4-.9 4.8-1.1 5.2-.3.4-.7 1.8-1 3-.3 1.3-.7 3.2-.9 4.3-.3 1.1-.7 2.9-.9 4-.2 1.1-1.4 5.8-2.6 10.5-1.2 4.7-2.4 9.3-2.6 10.2-.2 1-.6 2.7-.9 3.8-.3 1.1-.7 2.9-.9 4-.3 1.1-.7 2.4-1 2.8-.3.5-.7 1.9-1 3.3-.5 2.4-.7 3.2-2.6 10.4-1.9 7.2-2.1 8-2.6 10.4-.3 1.3-.9 3.2-1.5 4.3-.5 1-.7 1.8-.3 1.8.3 0 .1.7-.6 1.5s-1 1.5-.7 1.5c.3 0 .1 1.5-.4 3.2-.6 1.8-1.2 4-1.4 4.8-.1.8-.8 3.5-1.5 6s-1.2 4.7-1.2 5c0 .3-.5 1.6-1 3s-1.1 3.2-1.3 4.1c-.2 1-1.8 6.8-3.5 13-3.6 12.7-4.1 14.7-4.3 16.9-.1.8-.5 1.7-.8 2-.4.3-1 2.2-1.3 4.4-.4 2.1-.9 4.3-1.3 5-.4.6-.8 1.5-.9 2.1-.9 4.7-1.3 6.6-1.7 7.2-.3.5-.8 2.4-1.1 4.3-.3 1.9-.8 4.6-1.1 6-1.1 4.8-1.5 6.7-1.9 10.1-.3 1.9-.6 3.4-.7 3.4-.8 0-.5 30.2.3 31.3.6.7.8 1.5.5 1.9-.4.3-.2 1.1.3 1.8.5.6 1.1 2 1.3 3.1.1 1 1 3 2 4.4.9 1.3 1.7 2.8 1.7 3.3 0 .4 3.4 4.2 7.5 8.4 7.5 7.5 8.5 9.6 4.2 8.7-1.2-.2-4.9-.6-8.1-.9-3.3-.3-6.5-1-7.1-1.5-.7-.5-1.5-.7-1.8-.3-.4.3-1.2.1-1.9-.4-1-.7-6.1-2.5-10.8-3.8-.3-.1-2.5-.7-5-1.4-2.5-.8-5.4-1.5-6.5-1.6-1.1-.1-2.2-.4-2.5-.5-.3-.2-.9-.4-1.5-.5-.5 0-3.9-.6-7.5-1.3-3.6-.6-7.9-1.4-9.7-1.6-1.7-.2-3.7-.7-4.4-1.2-.8-.5-.9-.3-.4.6.6 1 .4 1.1-.6.4-.8-.4-2.3-.9-3.4-1-20.3-1.7-45.3-2-80.5-.8-11.8.3-24.2.7-27.5.8-3.3 0-6.3.5-6.7 1.1-.5.6-.8.5-.8-.3 0-.7-.5-1-1.1-.6-.6.3-7 .8-14.2 1-7.3.2-17.7.5-23.2.8-16 .8-31.4 1.7-40.5 2.2-4.7.3-11.4.7-15 .9-7.8.4-20.2 1.2-32.5 2.1-4.9.4-11.7.7-15.1.8-3.3.2-6.5.6-7.2 1-.7.4-1.2.2-1.2-.4 0-.6-.5-.8-1.2-.3-.7.4-3.3.8-5.8.9-2.5.1-9.9.5-16.5.9s-14.5.9-17.5 1c-3 .2-5.5.4-5.5.5 0 .1-4.1.3-9 .4-5 .1-9.6.6-10.3 1-.7.4-1.2.2-1.2-.4 0-.6-.5-.8-1.1-.4-.7.4-3.9.8-7.3 1-5.6.2-24.6 1.1-42.1 1.9-3.8.2-7 .4-7 .5 0 .1-5.4.3-12 .5s-12 .4-12 .5c0 .2-11.1 1-20 1.4-4.4.2-8 .5-8 .5 0 .1-4.7.4-10.5.6-12.4.5-28.5 1.4-32 1.8-1.4.2-3.3 0-4.2-.5-.9-.4-1.9-.4-2.2 0-.3.5-3.1 1-6.3 1.1-3.2.2-8.9.5-12.8.7-3.8.3-12.1.6-18.2.7-6.2.1-11.3.4-11.3.7 0 .3-2.6.5-5.8.5-3.1 0-7.8.2-10.4.6-2.7.3-5.2.1-5.8-.5-.6-.6-1-.6-1-.1 0 .6-5.1 1.2-11.3 1.4-6.1.2-13.3.4-15.9.5-2.6.1-5 .5-5.4.8-.4.4-1.4.3-2.4-.2s-2-.7-2.3-.3c-.4.3-7.5.7-15.9.9-36.2.9-41.9 1.1-42.4 1.6-.3.3-2.1.2-4-.2s-3.6-.4-3.9.1c-.3.4-1.7.4-3-.1-1.4-.5-2.5-.6-2.5-.2 0 1-12.2.9-13.9-.2-.9-.6-1.2-.5-.8.1.6.9-2.8 1.1-34.6 1.8-7.6.1-14 .5-14.3.8-.3.3-1.8.1-3.4-.3-1.6-.4-3.1-.5-3.5-.2-.3.3-7.7.7-16.3.9-24.4.3-120.5 1.4-122.2 1.4-.8-.1-3.1-.1-5 0s-4.2.1-5 .1c-4.2-.2-14.6-.3-15.5-.1-.5.1-1.4.1-1.9 0s-21.5-.3-46.6-.5c-25.2-.2-46.2-.5-46.6-.7-.5-.2-12.5-.4-26.6-.4-14.2 0-25.8-.3-25.8-.7 0-.4-1.3-.3-2.9.2-1.6.4-3.2.6-3.5.3-.3-.3-10.5-.7-22.7-.9-12.2-.2-22.4-.6-22.7-.9-.3-.3-1.1 0-1.9.6-.7.6-1.3.8-1.3.3s-3.6-.9-8.1-.9c-4.4 0-8.3-.3-8.6-.8-.2-.4-1.2-.3-2.2.3-1 .5-2.1.7-2.4.4-.3-.3-7.9-.7-16.9-.8-9.1-.2-17-.6-17.6-1-.6-.3-1.3-.2-1.7.4-.4.6-1.1.7-1.7.4-.5-.4-5.8-.7-11.7-.9-6-.1-11.3-.5-11.9-.9-.7-.4-1.2-.2-1.2.4 0 .6-.5.8-1 .5-.6-.4-6.1-.9-12.3-1.1-18.3-.8-19.1-.9-20.4-1.7-.7-.5-1.3-.4-1.3 0 0 .5-2.1.7-4.7.5-2.7-.2-8.2-.4-12.3-.5-4.1-.1-7.8-.6-8.2-1.2-.5-.6-.8-.5-.8.3 0 .7-.5 1-1.1.6-.7-.4-5.3-.8-10.3-.9-8.1-.3-24.1-1-43.8-1.9-3.6-.2-7.2-.7-7.9-1.1-.8-.6-1-.4-.4.5s.4 1.1-.4.5c-.7-.4-6.1-.9-11.9-1.1-12.3-.4-24.1-1-42.7-2-7.1-.4-14.7-.8-16.7-.8-2.1-.1-3.8-.3-3.8-.6s-3.9-.6-8.8-.7c-8.7-.2-16.6-.6-35.7-1.9-5.5-.3-12-.7-14.5-.8-2.5-.1-5.1-.5-5.7-.9-.8-.5-1.3-.4-1.3.3 0 .6-.5.8-1.2.4s-4.4-.9-8.2-1c-16.8-.6-25.8-1.2-26.3-1.7-.3-.3-1.6-.2-2.9.3-1.3.5-2.4.6-2.4.2 0-.6-11.9-1.3-27.7-1.6-3.5-.1-6.3-.3-6.3-.6s-3.5-.6-7.8-.6c-4.2-.1-13.3-.5-20.2-.9-6.9-.3-15.4-.8-19-.9-3.6-.1-7-.4-7.5-.7-.6-.2-5.4-.4-10.7-.4-5.4 0-9.8-.4-9.8-.9s-.7-.3-1.5.4-1.5.8-1.5.3-4.3-.9-9.6-.8c-5.3 0-9.7-.3-9.9-.6-.2-.3-2.2-.4-4.4-.2-2.6.2-4.1-.1-4.1-.8 0-.8-.4-.8-1.2-.2-.7.5-2.4.8-3.8.6-3.1-.3-20.6-1.3-32.6-1.7-5.1-.2-9.7-.7-10.3-1-.6-.4-1.1-.2-1.1.4 0 .6-.5.8-1.1.4-1.1-.6-15.4-1.3-38.1-1.7-5.4-.1-9.8-.6-9.8-1s-.8-.3-1.9.2c-1 .6-2.1.8-2.4.5-.8-.8-29.9-.7-43.2.1-6 .4-11.7.7-12.5.8-.8 0-2.1.4-2.7 1-.9.6-1.3.6-1.3-.3 0-1-.3-1-1.5 0-.8.7-1.5 1-1.5.8 0-.4-4.2.2-13 1.8-1.4.3-3.4.6-4.5.8-1.1.2-2 .4-2 .5 0 .2-1.1.5-6 1.5-.5.1-1.6.5-2.2.9-.7.5-1.3.6-1.3.3s-1.6.2-3.5 1-3.5 1.2-3.5.9c0-.3-1.4.2-3.1 1-1.6.9-4.3 1.8-5.9 2-1.6.2-3.3.6-3.7.8-.4.3-3.7.8-7.3 1.2-3.6.4-7.3.9-8.2 1-3.8.8-2.7-1.9 3.1-7.2 15.3-14 18.6-25.9 14.6-51.8-1-6.1-1.3-8.6-1.9-13.5-.3-2.5-.8-5.6-1.1-7-.4-1.4-.8-3.9-1.1-5.5-.3-1.7-1.7-7.3-3.1-12.5-1.4-5.2-3-11.5-3.6-14-.6-2.5-1.4-4.7-1.7-5-.3-.3-.6-1.2-.6-2s-.3-2.2-.6-3c-.3-.8-1-3.1-1.7-5s-1.4-4.4-1.5-5.6c-.2-1.1-.6-2.5-.9-3.1-.3-.5-.8-2-1.1-3.4-.3-1.3-.9-3.8-1.5-5.6-.5-1.7-.7-3.4-.3-3.7.3-.3.1-.6-.5-.6s-1.3-1.2-1.6-2.8c-.5-2.7-3.4-13.4-4.5-16.2-.3-.8-.6-2-.7-2.5-.2-.6-1.1-3.7-2.1-7-2.1-7-2.1-7.2-2.9-10.7-.3-1.5-1-4-1.6-5.5-.6-1.6-1-2.9-1-3.1.1-.1.1-.3 0-.5-.1-.3-.6-2.5-1.3-5.2-3.5-14.9-5.9-26.4-6-28.3 0-1.2-.4-2.2-.8-2.2-.5 0-.8-1.2-.8-2.8.1-1.5-.1-3.8-.4-5.2-.8-3.8-1.8-10.1-2.1-13.5-.1-1.7-.4-3-.5-3-.1 0-.3-1.6-.5-3.5s-.6-6-1-9c-2.5-24.1-2.5-58.2.1-78 .4-2.5.8-5.6.9-7 .2-1.4.4-2.5.5-2.5.1 0 .4-1.4.5-3 .8-7.4 1.8-12.1 2.9-12.7.8-.6.7-.8-.2-.8-.7 0-1.1-.4-.7-1 .3-.5 1.5-4.9 2.6-9.7 1.1-4.8 2.2-9.7 2.4-10.8.3-1.1.7-3.1 1-4.5.3-1.4.9-3.9 1.4-5.7.5-1.7.7-3.4.3-3.7-.3-.3 0-.6.6-.6s1.1-.8 1-1.8c0-1.9.4-3.5 2.3-10.2.7-2.5 1.3-4.8 1.5-5.3.1-.4.2-.8.4-1 .1-.1.3-.9.5-1.8.1-.9 1.1-4.3 2-7.5.9-3.3 1.8-6.6 2-7.4.2-.8.7-2.6 1.3-4 .5-1.4.7-3.1.5-3.8-.3-.6 0-1.2.6-1.2.5 0 1-.8 1-1.8 0-.9.5-3.5 1.1-5.7.6-2.2 1.2-4.5 1.3-5 .1-.6.6-1.6 1-2.3.5-.6.6-1.2.3-1.2s.2-1.6 1-3.5 1.2-3.5 1-3.5c-.3 0 .1-1.8.9-4s1.4-4.2 1.5-4.5c0-.3 0-.6.1-.8 0-.1.2-1.3.5-2.7.2-1.4.7-3.2 1.1-4 .9-2 .8-2 1.8-6.5.5-2.2.8-4.3.7-4.8-.1-.4.2-.7.7-.7.4 0 .8-1 .8-2.3 0-1.2.2-2.9.6-3.7 1.5-4 3.5-12.5 3.1-13.2-.3-.4 0-.8.7-.8s1-.3.7-.6c-.4-.3-.2-2 .3-3.7.6-1.8 1.2-4.7 1.5-6.6.2-1.9.7-3.8 1-4.3.3-.4.8-2.1 1.1-3.6.8-4.1 1.1-5.7 1.3-5.7 1.3 0 1.9-25.5.7-30-1-3.9-4-11-5.4-12.6-.7-.8-1.3-1.9-1.3-2.3 0-.4-3.2-3.9-7-7.7-3.9-3.8-7-7.1-7-7.3 0-.6 15.8 0 18.9.8 1.3.3 4 1.1 6 1.8 2 .6 4.3 1.3 5.1 1.4.8.1 4.9 1.2 9 2.4s8.6 2.4 10 2.7c1.4.2 3.2.7 4 1 .8.3 2.4.8 3.5.9 1.1.2 3.6.7 5.5 1 1.9.4 4.4.9 5.5 1 5.5 1 82.6.1 84.3-.9.6-.5 1.2-.4 1.2 0 0 .5 3.8.8 8.5.8s8.5-.3 8.5-.7c0-.4 1.1-.3 2.4.2 1.3.5 2.6.6 2.9.3.3-.3 11.5-.7 24.9-.9 25.2-.4 43.3-1.1 48.1-1.7 1.5-.3 2.7 0 2.7.6s.5.6 1.3 0c.6-.5 4.4-1.1 8.2-1.2 3.9-.1 9.5-.4 12.5-.7 3-.2 9.3-.6 14-.8 4.7-.3 8.5-.5 8.5-.6 0-.1 4.3-.3 9.5-.6 5.2-.2 12.4-.6 16-.8 6.4-.4 25.6-1.5 37.5-2.1 17-.9 27.7-1.5 34.5-2 4.1-.3 10.7-.7 14.7-.9 3.9-.2 7.6-.7 8.2-1.1.6-.3 1.1-.1 1.1.5s.5.8 1.3.3c.6-.4 3.7-.8 6.7-.9 6.5-.2 22.8-1.1 35.5-2 5-.4 12-.7 15.8-.7 3.7-.1 6.7-.4 6.7-.8s1.4-.4 3 .1c1.7.5 3 .5 3 .1s2.6-.7 5.8-.7c3.1-.1 13.1-.5 22.2-.9 24.8-1.2 27.5-1.3 27.5-1.5 0-.1 2.9-.3 6.4-.5 3.5-.2 6.5-.6 6.8-.9.7-.7 1-16.5.3-17.6-.5-.8-19.1-.7-21 0-1.4.6-3.6.4-4.1-.3-.3-.4-.9-.4-1.3 0z"/><path d="M850 1167.7c0 .5-1 .9-2.2.8-2-.2-6.7.7-10.6 2-.7.3-1.6.5-2 .6-.4.1-2.5 1.3-4.7 2.7-9.7 6.1-15.5 15.9-16.8 28.7-.2 1.1-.5 2.4-.8 3-.5.9-.3 38.6.3 42.7.1 1 .6 1.8 1 1.8s.8.7.8 1.6c0 2.2 5.5 12 8.2 14.7 3.3 3.3 11.4 8.7 13.1 8.7.7 0 1.7.3 2.1.7 1.9 2 14.3 2.9 22.1 1.7 1.7-.3 3.7-.6 4.5-.7 2.9-.5 9-3.1 9-3.9 0-.4.6-.8 1.4-.8 1.6 0 10.6-8.4 10.6-10 0-.5.3-1 .8-1 1.3 0 4.6-9.2 4.8-13.6.4-5.4-1.2-7.4-6.2-8.1-4.8-.6-7.7 1.7-8.9 7-1 4.2-.9 3.9-2.4 6.7-3.3 6.1-10.1 11-15.6 11.4-1.4 0-2.5.4-2.5.8s-1.3.3-2.9-.2c-1.6-.4-3.2-.6-3.5-.2-.6.5-8.7-1.8-9.6-2.8-.3-.3-1.4-1-2.5-1.6-3.3-1.8-7.7-8.1-8.1-11.6-.2-1.8-.6-5.4-.8-8-.2-2.5-.7-5.1-1-5.6-.3-.6-.2-1.3.4-1.7.6-.4.7-1.1.3-1.8-1-1.6-1-14.7 0-14.7.4 0 .5-.6.1-1.2-1-1.5-1.3-4.8-.5-4.8.3 0 .7-3.5.8-7.7.1-4.3.7-7.9 1.3-8.1.5-.2 1-1 1-1.7 0-2.2 5-7.5 9.2-9.6 4.1-2.1 18.8-3.8 18.8-2.2 0 .5.9.9 2.1 1 1.2.1 3.6 1.2 5.5 2.5 3.8 2.5 9.7 10.2 8.7 11.2-.3.3-.1.6.5.6.7 0 1.1.3 1 .7-.1.5.4 2.1 1 3.6.7 1.6 1.2 3.2 1.2 3.7s.9 1.4 2 2c1.1.6 2 .8 2 .4 0-.3.7-.1 1.5.6 1 .8 1.5.9 1.5.2 0-.6.6-.9 1.3-.7.6.3 1.9.1 2.7-.4 1.1-.8 1.4-3.9 1.5-15.2 0-12.7-.2-14.7-2.1-18.8-1.3-2.5-2.3-4.1-2.3-3.5-.1 1-8 5.1-9.1 4.7-.3-.1-3.6-1.3-7.4-2.7-3.8-1.4-7.3-2.3-7.7-2-.4.2-1 0-1.4-.5-.3-.6-1.2-.8-2-.5-.7.3-2.3.1-3.4-.5-1.4-.8-2.2-.8-2.6-.1-.5.8-1.1.7-2.1-.1-.8-.6-1.4-.7-1.4-.2zM929.6 1167.8c-.4.7-1.8 1.2-3.1 1.2-4.6 0-13.4 4.1-18.4 8.6-5 4.5-9.8 12.5-10.6 18-.3 1.6-.8 4-1.2 5.4-.3 1.4-.7 3.4-.8 4.5-.2 1.1-.6 4.9-1 8.5-.5 3.6-.7 6.9-.7 7.5.1.5.4 5 .6 10 .7 12.1 1.3 16 2.7 18.7.7 1.3 1.2 2.5 1.1 2.8-.3 1.1 1 5 1.7 5 .3 0 1.2 1.3 1.9 2.9.7 1.6 2.8 4.5 4.8 6.5 3.5 3.6 11.1 8.2 12.8 7.8.4-.2 1.4.2 2.2.9 2.3 1.9 20.1 2.8 27.8 1.4 14.7-2.6 26.9-15.1 29.3-30 .3-1.7.9-3.2 1.3-3.5.5-.3.5-1.2 0-2s-.5-2.1-.1-2.9c.7-1.3.7-31.6.1-31.6-.1 0-.4-1.1-.6-2.5-.5-3-1.2-6.4-1.4-6.8-.2-.1-.3-.5-.4-1-.9-5.3-5.8-14.4-10.5-19.5-2.9-3.2-11.7-8.1-13.1-7.2-.4.3-1 0-1.2-.5-.2-.6-2.8-1.2-5.8-1.3-3-.2-6.1-.6-6.7-1-.8-.5-1.3-.3-1.3.3 0 .7-.6.8-1.7.1-1-.5-2.6-.5-3.9-.1-1.5.6-2.4.5-2.7-.3-.2-.8-.5-.8-1.1.1zm19.2 14.8c7.6 2.5 13.3 8.5 14.7 15.7.2.9.7 2.2 1 2.7.7 1.1 1.7 20.9 1.4 27-.1 1.9-.2 5.6-.3 8.2 0 2.7-.4 4.8-.7 4.8-.3 0-.6.6-.6 1.2 0 3-2.6 11.8-3.5 11.8-.5 0-.7.4-.4.8.7 1.1-6.1 7.5-9.4 8.9-1.4.5-3.7.9-5.2.9-1.6-.1-2.8.2-2.8.6 0 1.5-15-.2-19.3-2.2-3.9-1.9-12.2-9-10.4-9 .4 0 0-1.4-.8-3-.9-1.7-1.3-3.5-1-4 .3-.6.1-1-.6-1-1 0-1-.3-.2-1.1.7-.7.8-2 .4-3.3-1.2-3.2-.4-43.4.9-46.6.1-.3.2-.9.1-1.3-.3-1.9 9.7-10.5 13.5-11.5 6.1-1.6 17.6-1.4 23.2.4zM1249.8 1167.5c-.3.3-2.7.7-5.4 1-2.7.3-6 1-7.4 1.6-17.2 7.5-23.3 16.8-25.6 39.3-.8 8.5-.4 33.1.6 33.1.1 0 .3 1.5.5 3.2.4 4 2.4 10.3 3.8 12 .5.7.6 1.3.2 1.3-.9 0 6.4 9.2 8.2 10.3.6.4 1.8 1.3 2.5 2 2.9 2.7 11.9 6.1 16.1 5.9.9 0 1.7.2 1.7.6 0 1 10.2.4 16.8-.9 2.9-.6 8.5-2.7 12.4-4.7 5.2-2.7 7.3-3.3 7.6-2.4.5 1.5 5.3 6.2 6.4 6.2 1.5 0 3.2-4.7 3.3-9.3.1-2.6.4-5 .8-5.3.3-.3.2-1.6-.2-2.8-.8-2.3-.7-6.3.2-7.2.3-.3.2-1.8-.3-3.4-.5-1.8-.4-3.2.3-3.9.6-.6.7-1.1.2-1.1-1.1 0-1.2-6.2-.1-10.1.4-1.5 1.8-3.2 3.1-3.9 1.2-.7 2.8-2.3 3.4-3.7 1-2.1.9-2.7-.6-3.8-1-.7-2.1-1.1-2.5-.9-.5.3-.8.2-.8-.3 0-.4-5.6-.8-12.5-.8s-12.5.3-12.5.8c0 .4-.8.3-1.8-.2-1.4-.7-2.7-.5-5 .9-3.6 2.2-3.8 2.6-1.8 4.6 1.9 1.8 10.5 5.6 11.5 4.9.4-.2 1.7.2 2.9 1.1 1.8 1.2 2 2.2 1.7 7.2-.2 3.1-.4 5.7-.5 5.7-.1 0-.3 1.2-.5 2.6-.8 6.3-6.8 13.5-13.2 16-4.2 1.6-6.3 2-12 2-9.5.1-21.4-7.8-22.7-15.1-.2-1.4-.5-2.5-.6-2.5-1.1 0-1.9-44-.8-47.5 2-6.9 7.4-13.5 13.3-16.7 3.4-1.8 13.6-2.9 16.2-1.8 1 .5 2.5.9 3.3.9 2.8.2 8.5 3.4 11.1 6.3 3.7 4 5.4 7.2 6.9 12.6 1.6 6 2.8 6.7 11 5.9 1.3-.2 1.6-2.9 1.5-18.9 0-16.5-.2-18.8-1.6-19.1-.9-.2-2.7 1-4 2.5-3.8 4.5-4.4 4.6-11.5 1.3-3.7-1.7-6.9-2.8-7.2-2.6-.2.3-1.2.1-2.2-.4-.9-.5-4-1.1-6.8-1.4-2.9-.3-5.6-.7-6.1-1-.4-.3-1-.3-1.3-.1zM1540.7 1168.2c-.6.4-3.3 1-5.9 1.3-2.6.4-4.8 1.2-4.8 1.8 0 .6-.3.8-.6.4-.3-.3-2.5.6-4.8 2-10.4 6.4-16.5 15.8-17 26 0 1.8-.4 3.3-.9 3.3-.4 0-.7 1.2-.7 2.7.1 3.1-.8 25.8-1 25.8-.1 0-.2 2-.3 4.5-.2 4.3-.4 4.5-3.1 4.5-4.1 0-6.5 3.7-6.7 10.3-.2 2.9-.6 5.5-1.1 5.8-.5.3-.6 1-.2 1.5.3.6-.4 2.1-1.5 3.3-1.7 1.8-3.2 2.3-6.6 2.2-2.5-.1-4.5.3-4.5.8 0 .4-.6.4-1.3-.2-.7-.6-1.9-.7-2.6-.3-.7.5-2.8.5-4.7.1-2-.5-3.4-.4-3.4.1 0 .6-.8.6-1.8 0-1.3-.7-2.3-.6-3 .1-.8.8-1.2.9-1.2.1 0-.6-.8-1-1.7-.9-1.6.1-1.7-2.7-1.8-37.9-.1-22.1.3-39.4.9-41.2.5-1.8 1.8-3.5 2.8-3.9 1-.3 1.8-.9 1.8-1.4 0-.5.8-.9 1.8-.9 4.4-.1 5.4-.6 6.8-3.2 2.3-4.6-.3-5.3-20.8-5.3-15.3 0-18 .2-19.4 1.6-1.6 1.6-1.6 1.9 0 4.3.9 1.4 3 2.8 4.6 3.1 4 .9 7 3.9 7.1 7.4.1 4.4.1 10.9-.1 11.5-.3 1.4-.1 24.8.3 25.1.2.2.1 2.3-.2 4.6-.3 2.3-.4 7.7-.1 12.1.3 4.3.1 8.1-.3 8.4-.4.3-.3 1.1.3 1.8.8.9.8 1.5 0 2-.6.3-.7 1.2-.3 1.8 1 1.6.4 7.6-.9 10.1-1.2 2.3-3.4 3.9-5.8 4.3-.8.1-2.5 1.5-3.7 3l-2.3 2.8 2.2 1.6c1.9 1.5 6.2 1.7 35.4 1.8l33.1.2 1.4-2.3c1.1-1.7 1.4-5.9 1.4-16.6-.1-9.3.2-13.8.8-12.7.5.9 1 2.2 1.1 2.8.2.7.8 2.5 1.4 4 .7 1.6 1.2 3.3 1.2 3.8s.4.9 1 .9c.5 0 .9.3.8.7-.2 1.4 1.5 4.7 3.9 7.3 1.3 1.4 2.3 2.8 2.3 3.1 0 .3 1.7 1.8 3.8 3.2 6.8 4.7 17 7.1 29.8 7 19.3-.3 32.5-10.2 37.5-28.3 1.4-5.1 1.6-6.3 2.4-14 .7-6.9.7-6.5.2-12.3-.2-2.6.1-4.7.5-4.7.5 0 .7-.4.4-.8-.3-.5-.8-3.5-1.1-6.8-.9-9.8-1.3-11.7-3-16.9-2.6-7.8-8.9-17.5-11.4-17.5-.6 0-1.1-.4-1.1-.8 0-.7-5.7-4-8-4.7-.3-.1-1.3-.5-2.2-.9-.9-.4-2.5-.9-3.5-1.1-1-.2-1.8-.4-1.8-.5 0-.1-1.3-.3-3-.3-1.6-.1-3.6-.6-4.2-1-.8-.5-1.3-.3-1.3.4 0 1-.3 1-1.2.1-.8-.8-1.5-.9-2.5-.1-.7.7-1.3.8-1.3.3 0-1.1-4.7-1.2-6.3-.2zm16.8 13.7c.6.3 1.7.6 2.5.8 6.2.9 13 8.3 14.6 15.8.2 1.1.7 3.1 1 4.5.9 3.5 1.3 35 .5 35-.4 0-.7 1.5-.7 3.2-.2 11.9-7.7 21.7-17.9 23.2-.8.1-1.7.4-1.9.7-1.3 1.3-17-.2-20.9-1.9-5-2.2-9.5-6.6-10.3-9.9-.4-1.2-1-2.3-1.4-2.3-.5 0-.8-1.9-.7-4.3 0-2.4-.2-4.7-.5-5.3-.7-1.1-.3-37.4.4-41.4 1.2-6.5 2-9 2.9-9 .5 0 .9-.5.9-1.1 0-1.7 4.9-5.2 9.9-7.1 4.5-1.7 19.2-2.4 21.6-.9zM1826 1168c-.8.5-3.7 1.4-6.3 2.1-2.7.7-6.4 2.3-8.3 3.6-1.9 1.2-3.9 2.3-4.4 2.3-.6 0-1 .5-1 1.1 0 .6-1 1.9-2.3 2.9-3.6 2.9-8.2 12.8-9.2 20-.1 1.4-.4 2.5-.5 2.5-.3 0-1 6.9-1.3 11.7-.1 2.1-.4 3.8-.7 3.8-.3 0-.6 1.1-.6 2.5-.1 1.4.1 2.5.5 2.5s.8 3.5.8 7.7c0 8 .6 13.2 2.2 19.3 1.9 6.9 2.3 8 3.4 8 .6 0 .7.3.4.7-.8.7 3.4 6.6 6.9 9.8 2.6 2.4 4.7 3.7 12.2 7.4 1.9.9 12 2.3 18.7 2.5 4.1.2 12.8-1 15.5-2.1.8-.3 1.7-.7 2-.7 1.9-.5 7-3.2 7-3.8 0-.5.6-.8 1.2-.8 3 0 13.6-14.9 12.2-17.1-.3-.5-.1-.9.4-.9s1.3-1.9 1.7-4.3c.5-2.3 1-5.1 1.2-6.2.9-4 .8-33.5 0-33.5-.4 0-.6-1.4-.3-3 .2-1.7.1-3-.3-3-.6 0-1.1-2.5-1.4-6.8 0-.6-.4-1.2-.9-1.2-.4 0-.7-.3-.6-.8.2-.9-.9-3.6-3.4-8.9-1.9-3.8-10.8-13.5-10.8-11.7 0 .4-.8 0-1.8-.9-1-1-2.2-1.4-2.5-1-.4.3-.7.2-.7-.4 0-.5-.6-1-1.2-1.1-.7 0-2.9-.5-4.8-.9-1.9-.5-5-.8-6.7-.8-1.8.1-3.3-.3-3.3-.8s-.7-.4-1.5.3c-1.1.9-1.5.9-1.5.1 0-.7-.5-.9-1.2-.5-1.5.9-4.9 1-6.3.2-.6-.3-1.7-.2-2.5.2zm23.5 15.5c9.6 4.5 13.6 13 14 30 .2 6 .4 11.2.5 11.5.1.3.1.9 0 1.5-.1.9-.8 9.3-1.4 17.2 0 1.3-.5 2.3-1 2.3s-.7.3-.3.6c.3.3-.3 2.8-1.3 5.5-2.1 5.2-7.4 10.8-10.2 10.9-1 0-1.8.4-1.8.9 0 .4-1.1.7-2.5.6-1.4-.2-2.7 0-3 .4-.4.8-13.4.6-16.5-.2-11.5-2.9-16.9-11-17.3-25.8-.1-4.9-.6-8.9-1-8.9-.5 0-.5-.5-.1-1.2 1-1.6 1.1-6.8.1-6.8-.5 0-.5-.5-.1-1.1.3-.6.8-5.5 1-10.8.5-11.6.5-11.6 2.9-17.4 1.2-3.1 3-5.2 5.6-6.9 2.1-1.2 3.9-2.7 3.9-3.1 0-.5.4-.5 1-.2.5.3 1.8.1 2.7-.5 2.9-1.7 20.1-.7 24.8 1.5zM111.9 1169.8c-.8.2-2.1.6-2.9.9-.8.4-1.8.7-2.2.7-.3.1-1 .4-1.4.9-.8.8 5.1 6.7 6.7 6.7 1.5 0 3.8 2.5 4.7 5.2 1.4 4.1.8 76.4-.7 79.1-1.4 2.6-6 5.7-7.7 5-1.8-.6-4 4.6-2.7 6.5.9 1.5 3.3 1.7 18.4 1.9 9.6 0 17.9-.2 18.4-.5 1.9-1.2 1.1-5.6-1.2-7.5-1.3-1-2.7-1.6-3.3-1.2-1.3.8-6.3-4.2-5.5-5.5.3-.6.2-1-.3-1s-.7-1.5-.5-3.3c.9-6.1.9-7.2.4-8.1-.8-1.7-.6-6.6.3-6.6.5 0 .3-.7-.4-1.5-.9-1.1-.9-1.5-.1-1.5.7 0 .9-.5.4-1.3-1-1.5-1-3.6-.2-6.3.4-1.1.4-2.7-.1-3.4-.4-.7-.4-2.5 0-4s.4-3.3 0-4c-.4-.7-.4-2.5 0-4s.4-3.3 0-3.9c-.4-.7-.4-3 0-5.2.4-2.1.4-3.9-.1-3.9s-.4-1.1.1-2.4c.5-1.3.6-2.7.2-3-1-1.1-1.1-3.6-.1-3.6.6 0 .7-.5.3-1.2-1-1.6-1.1-8.9-.2-9.5.5-.2.6-.8.3-1.2-.7-1.3 2.7-3.8 6.3-4.6 1.8-.4 3.6-1.4 4.1-2.3.9-1.8.7-4.9-.4-6-.7-.7-28.2-1.1-30.6-.4zM155.6 1170.3c-2.4.8-2.7 1.3-2.1 3.6.7 2.7 2.6 4.3 5.8 4.8 3.1.5 5.7 2.3 5.7 3.8 0 .8.5 1.5 1.2 1.5.8 0 .9.3.2 1-.6.6-.8 3.1-.4 6s.2 5.4-.4 6c-.7.7-.6 1 .2 1 .9 0 1 .5.3 1.8s-.7 2.2 0 2.9c.7.7.7 1.3.1 1.7-.7.4-.7 1.7-.2 3.6.5 1.7.5 3 .1 3-.6 0-.6 11.3 0 14.6.1.5 0 1.1-.1 1.4-.6 1.6-.5 6.2.2 6.6.5.3.6 1 .2 1.5-.9 1.5-1.2 5.9-.5 5.9.8 0 .7 4.8-.2 5.6-.3.3-.2 1.6.3 2.9.5 1.4.5 2.6-.2 3.3-.6.6-.6 1.2 0 1.6.6.3.7 2 .2 4.1-.4 1.9-.5 3.5-.2 3.5 1.8 0-5.4 5.9-7.8 6.4-1.6.3-3.4 1.5-4.1 2.7-1 1.9-.8 2.5 1 4 1.9 1.6 4.3 1.8 18.2 1.8 17 0 19.3-.7 18.2-4.9-.6-2.2-3.6-4.3-4.7-3.3-.3.3-.6.1-.6-.5 0-.7-.6-1.2-1.4-1.2-3 0-4.1-3.2-4.2-12-.1-4.8-.4-9.1-.7-9.7-.3-.5-.3-1.4.1-2 .4-.6.6-10.4.5-21.7 0-12.6.3-20.6.9-20.6.5 0 .6.4.3 1-.3.5-.2 1 .3 1s1.2.8 1.5 1.7c.3 1 1.7 4.9 3.2 8.8 1.4 3.8 2.8 7.4 2.9 8 .2.5.6 1.8.9 2.7 1.1 2.8 1.6 4.8 1.6 5.4 0 .3.7 1.6 1.5 2.9.9 1.4 1.7 3.6 1.8 5 .1 1.4.6 2.5 1 2.5s.8 1 .8 2.3c0 1.3.4 2.7.9 3.3.5.5 1.6 3.4 2.6 6.4 1 3 2.2 6 2.7 6.6.5.7.8 1.6.7 2-.4 1.8 2 6.2 4.3 7.8 4.4 3.1 9.8 1.6 11.6-3.1 2.2-6.1 2.5-6.8 2.8-7.8.6-2.3 11.6-32.2 12.7-34.5.6-1.4 1.2-3 1.3-3.5.1-.9 1.4-4.5 3.1-8.5.3-.8.7-2.2.7-3 0-.8.4-1.8.9-2.1.8-.6 1.4-2.8 1.6-5.5.1-.6.7-1.1 1.4-1.1.9 0 1.2 6.5 1.1 29.6-.1 16.3-.2 30.6-.3 31.8-.1 2.9-4.3 7.3-6.8 7.3-2.8 0-4.8 4.1-3.4 6.8 1 1.9 2 2 17.5 2 14 0 16.7-.3 18-1.7 2-2.2 1.9-2.7-.6-5.6-1.3-1.6-3.2-2.5-5-2.5-1.5 0-2.8-.5-2.8-1 0-.6-.6-1-1.4-1-.7 0-1.5-1-1.8-2.3-.9-5.4 0-77.3 1-79.9.8-1.9 2.3-3.1 5-3.9 2.4-.7 4.5-2.2 5.5-3.9 1.6-2.6 1.5-2.7-.9-4-2.3-1.3-22.6-2.2-26.5-1.3-1.4.4-4.8 5-5.1 7-.1.5-1.4 4.4-3.1 8.8-1.6 4.4-3 8.4-3.1 9-.1.5-.4 1.4-.7 2-.6 1-3.1 8.1-3.5 10-.7 3-4 11.1-4.9 11.7-.5.4-.7.8-.3.8.4 0-.2 2.4-1.3 5.2-1.2 2.9-2.2 5.7-2.4 6.3-.1.5-.6 1.9-1 3-.5 1.1-1.6 4-2.5 6.5-1.7 4.4-3.6 6.3-3.8 3.8-.1-2-.8-4-2.2-7.3-.7-1.7-1.4-3.5-1.5-4.1-.3-1.4-6.3-18.1-7.5-20.9-1.2-2.8-6.4-16.8-6.6-17.8-.1-.4-.3-.9-.4-1.2-.1-.3-.3-.8-.5-1.3-.1-.4-.5-1.5-.8-2.5-1.5-3.8-2-5.2-2.3-6.2-1.1-4-3.2-8.4-5.1-10.4-2-2.3-2.8-2.4-14-2.6-6.6-.1-13.2.3-14.7.8zM360.8 1171.2l-3.8 1.7 2.3 2.3c1.3 1.3 4.1 3.2 6.2 4.3 2 1.1 4 2.7 4.4 3.7.9 2.5.6 43.1-.3 44.6-.4.7-.3 1.2.1 1.2.8 0 .9 29.8.1 33-.8 3.4-3.8 5.6-8.7 6.6-3.5.7-4.1 5.6-.8 7.2 3.3 1.8 72.5 1.2 73.6-.6 1.5-2.4 2-27 .6-27.6-.6-.3-.5-.5.1-.5 2.1-.2.3-5-2-5.3-5.3-.8-7.8 2.4-8 10.4-.1 2.1-.5 3.8-1 3.8s-.7.3-.3.6c.7.7-1.9 6.3-3.1 6.5-.4.1-2.4.2-4.4.3-2 .1-4 .5-4.4.8-.3.4-1.7.3-3-.2-1.5-.6-2.6-.6-3 .1-.4.7-1 .7-1.8 0-.9-.7-1.6-.7-2.3 0-.6.6-1.7.8-2.4.3-1.7-1-5.9-1.2-5.9-.1 0 .4-.9.3-2-.3-1.4-.8-2-.8-2 0s-.6.8-2 0c-2-1-2-1.9-1.8-18.3l.3-17.2h9.6c10.8 0 12.6.9 13.6 6.9.4 2.3 1.2 3.7 2.7 4.1 2.6.9 4.9.6 5.7-.7.9-1.4.5-29.1-.4-30.6-.5-.6-.5-1.2-.2-1.2.4 0-.1-.7-1-1.7-1.6-1.5-2-1.2-7.1 4.3-4.5 4.9-6 5.9-9.2 6.1-4.6.4-4.8.4-9.7 0l-4-.3v-16.8c0-15.3.2-16.9 1.7-17.2 1-.1 2 .2 2.4.7.3.5 1.4.5 2.6-.2 1.4-.8 2.3-.8 3.1 0 .7.7 1.6.7 2.9 0 1.3-.7 2.3-.7 3.2 0 .7.6 1.6.8 2 .4.3-.4 4.4-.7 9.1-.7 6.6-.1 8.6.2 9.1 1.4.9 2.1 2.4 8.8 2.9 13.4.6 4.4 1.7 6.2 4.4 6.9 3.8 1 4.2-.4 4.4-17.1.2-13.8 0-16.2-1.3-16.3-.8-.1-16.3-.2-34.5-.3-29-.1-33.4.1-36.7 1.6zM440.6 1171c-.7.8-1.1 2.1-1 2.7.1.7.2 1.7.3 2.2 0 .5 2.3 1.7 5.1 2.7 3.6 1.3 5.2 2.5 5.8 4.3.6 2 1 77 .3 80.3-.3 1.6-3.4 3.8-5.5 3.8-1.2 0-3.2 1-4.4 2.2-2.7 3-2.7 2.9-1.3 5.6 1.2 2.2 1.6 2.3 15.4 2.2 9.7-.1 15.7-.6 18.9-1.6l4.8-1.5-3.8-3.4c-2-1.9-4.8-4.3-6.1-5.3-1.7-1.3-2.5-3.1-2.7-5.6-.2-2-.6-4.1-.9-4.6-.3-.6-.3-1 .2-1 .4 0 .8-5.3.8-11.7 0-11.7 0-11.7 2.5-12.3 1.4-.4 3.5-.3 4.8.2 1.4.4 2.1.4 1.8-.1-.4-.5 1.1-.7 3.1-.5 12.9 1.2 15.1 2.5 17.3 9.7 1.4 4.4 1.5 5 2.4 10.9.3 2 1 4.8 1.6 6.2.7 1.9.6 2.6-.3 2.6-.9 0-.9.2 0 .8.7.4 1.5 3 1.8 5.7.4 2.7 1.4 6.5 2.2 8.3l1.6 3.4 9.1-.4c5.7-.3 9.1-.9 9.4-1.6.2-.7 1-1.2 1.9-1.2 1.2 0 1.2-.2.1-1.4-.7-.7-1.9-2.3-2.7-3.4-.8-1.2-1.8-1.9-2.1-1.7-.4.2-1.8-.8-3.2-2.3-2.4-2.6-3.5-5.7-4.4-13.2-1.5-11.2-5.5-25-7.4-25-.5 0-1.2-.9-1.5-2.1-.5-1.5.1-2.8 2.6-5 1.8-1.6 2.9-2.9 2.4-2.9-.4 0 0-.9 1-2s1.5-2 1-2c-.4 0-.3-.6.3-1.3 2.5-3.2 3.7-19.9 1.8-27.5-.8-3.6-3.8-8.3-6.6-10.4-3-2.2-13-5.1-13-3.7 0 .6-.8.5-1.9-.1-1.4-.7-2.2-.7-2.6 0-.4.6-1.2.7-1.8.3-.7-.4-11.2-.8-23.5-.8-18.7 0-22.5.2-23.6 1.5zm45.9 11.6c3.3.3 6.6.6 7.2.6 3.4.3 4.5 3.7 4.7 13.3.1 5.3-.2 9.9-.6 10.1-.5.3-.6.9-.4 1.3.8 1.2-2.9 6.1-5.5 7.5-1.5.7-6.7 1.2-13.9 1.2l-11.5-.1v-17.7l-.1-17.7 7.1.4c3.8.3 9.7.8 13 1.1zM538.2 1170.7c-1.8.7-3.2 1.7-3.2 2.1 0 1.2 3.9 4.6 7.8 6.8 1.8 1 3.6 3 3.9 4.3.3 1.3.6 18.9.6 39.1 0 40.2-.2 41.9-5.5 44.1-3.4 1.4-6.8 4.6-6.8 6.4 0 2.4 5 3.3 17.8 3.4 9.6.1 14.1-.2 16.7-1.3 1.9-.8 3.5-1.9 3.5-2.3-.1-1.5-4.7-6.1-6.8-6.7-1.1-.4-2.6-1.4-3.3-2.2-1.6-1.9-2-19.6-.4-20.6.7-.5.7-.8 0-.8s-1-2.2-.8-5.8c.5-7.6.5-7.3 0-10.5-.2-1.5 0-3 .5-3.3.4-.3.5-1.1.1-1.7-.9-1.5-1.1-8.7-.3-8.2.4.2.7-.2.7-1s-.4-1.5-.8-1.5c-.8 0-.5-4.2.5-5.8.3-.6.3-1.3-.2-1.5-1.2-.8-.7-19 .6-21.3 1-1.9 7.2-5.1 7.2-3.8 0 .3.7-.2 1.6-1 2-2.1 2.7-6.3 1.2-7.3-2.3-1.3-31.1-1-34.6.4zM625.4 1169.7c-2.5.5-6.3 4.2-6.9 6.9-.2 1-2.7 8.6-5.6 16.9-2.8 8.2-5.2 15.7-5.3 16.5 0 .8-.5 1.8-.9 2.1-.4.3-1 1.9-1.3 3.4-.3 1.6-1.1 3.6-1.7 4.4-.7.8-1.1 1.6-1 1.7.3.4-.3 2.2-2.3 7.6-.8 2.1-1.1 3.8-.7 3.8.4 0 .2.5-.5 1.2s-1.2 1.8-1.2 2.6-.6 2.8-1.4 4.5c-1.4 3.2-3.8 10.2-4.2 12.3-.6 3.4-5.9 12.7-7.5 13.1-1.1.3-1.9.9-1.9 1.4 0 .5-.7.9-1.5.9-1.9 0-3.1 4.6-1.5 6.5.9 1.1 4.5 1.4 17.6 1.4 9 0 16.4-.3 16.5-.7 0-.4.2-1.6.4-2.7.5-2.6-3.2-6.1-7.3-7-4.3-.9-4.2-2 .8-16 2.9-8.1 5.5-10.3 12.2-10.1 2.9.1 6.3-.1 7.6-.6 1.3-.4 2.1-.5 1.9 0-.3.4 2.5.7 6.1.6 3.7 0 7.5.2 8.4.4 1.6.4 5 7.1 6.4 12.7.4 1.6 1 3.4 1.4 4 .5.5 1.1 2.7 1.5 4.7.7 3.4.5 3.8-1.4 3.8-1.1 0-2.1.4-2.1.9s-.8.8-1.7.7c-2.5-.4-5.5 3.3-5.1 6.4l.3 2.5 14 .3c14.2.3 21.5-.8 21.5-3.4 0-1.2-1.7-3-7.3-7.6-2-1.7-3.8-5.4-6.8-13.8-2.2-6.3-4.2-12.2-4.6-13-.3-.8-.5-1.9-.4-2.3 0-.4-.5-2-1.4-3.6-.8-1.6-1.1-3.1-.8-3.5.4-.3.1-.6-.6-.6s-1-.4-.6-1c.3-.5.1-1.7-.4-2.7-.9-1.6-4.1-11.2-4.7-13.8-.1-.6-.9-2.9-1.8-5.3-.8-2.3-1.2-4.2-.8-4.2.4 0 .1-.4-.5-.8-.7-.4-1.4-1.7-1.6-2.7-.7-3.8-2-8-2.7-9-.4-.6-1.6-4.1-2.6-7.8-2.5-9-4.9-11.9-10-12.1-2.1-.1-4.9-.1-6 .1zm4.7 20.5c.1 2.2.7 4 3.7 12.5 1.7 4.6 2.8 8.3 2.5 8.3-.3 0-.1.6.5 1.2 1 1.3 4.1 11.5 4.1 13.2-.1.5.5 1.2 1.1 1.6.8.5.4.9-.9 1.3-1.2.3-2.1.2-2.1-.2 0-.7-6.4-.6-7.7.2-.5.3-1.5.2-2.2-.2-.7-.5-3-.5-5.2-.1s-4.2.4-4.5-.1c-.2-.4-1.1-.6-1.9-.2-2.1.8-1.9-.3 2.6-13.9 4.6-14.1 4.9-14.7 4.8-15.1 0-.1.7-1.9 1.6-4 .8-2 1.3-3.7 1-3.7-.4 0-.3-.5 0-1 .9-1.4 2.5-1.2 2.6.2zM685.7 1171.3c-1.6 1.6-1.6 1.9-.2 4.1 1.8 2.6 4.1 3.9 5.6 3 .5-.3.9 0 .9.7s.3 1 .6.6c.8-.8 4.4 2.5 3.8 3.5-.3.4-.2.8.3.8 1 0 .9 24.3-.1 25.9-.4.6-.3 1.1.1 1.1 1 0 .9 7.1 0 8.7-.4.6-.1 1.4.5 1.6 1 .4.9.8-.2 1.6-1.2.8-1.2 1.1-.1 1.1 1.1 0 1.1.3.1 1.5-.7.8-.9 1.5-.4 1.5s.9 7.8.8 17.3c-.1 14.8-.3 17.7-1.8 20-1 1.5-2.2 2.5-2.6 2.2-.4-.3-1.3.2-2 1s-1.6 1.3-2 1c-.5-.3-1.7.7-2.8 2.2-1.6 2.3-1.7 3-.7 4 .7.6 1.6.9 1.9.6.3-.4.6-.1.6.5 0 .7 10.2 1.1 33.9 1.1 31.2.1 34-.1 34.7-1.7.4-.9.8-7.6.9-14.7.3-17.8-2.2-23.3-7.7-17-2.3 2.6-2.5 3.2-3.2 10.1-.6 4.8-2.5 9.3-4 9.5-.6.1-2.9.2-5.1.3-2.3.1-4.6.6-5.3 1-.7.4-1.2.2-1.2-.4 0-.7-.6-.8-1.9-.1-1 .6-2.1.8-2.4.5-.8-.9-8.1-.9-9.4-.1-.6.4-1.5.3-1.8-.3-.5-.8-1.1-.8-2 0-.9.8-1.4.7-1.7-.2-.2-.7-.4-18.4-.3-39.3 0-42.7.1-43.5 6.4-45.7 2-.6 4.1-1.1 4.7-1 .6.1 1.9-.9 2.8-2.2 1.4-2.3 1.4-2.6 0-4-1.9-2 .1-1.8-20.4-2-15.5-.1-17.7.1-19.3 1.7z"/><path d="M981.6 1169.8c-1.5.3-5.1 2.9-5.1 3.7 0 1.1 6 5.5 7.5 5.5 2.6 0 6 3.4 6.1 6.2.5 9.8.3 22.8-.4 22.8-.5 0-.5.5-.2 1 .7 1.2.9 20.9.2 21.6-.3.3-.1 2.1.3 4 .5 2.3.4 3.4-.3 3.4-.8 0-.8.3 0 1.1s.8 2 .3 3.5c-.5 1.3-.6 2.4-.2 2.4 1.2 0 .5 16.1-.9 18.6-1 2-5.8 4.8-7.4 4.5-1-.2-3.3 2.4-2.8 3.1.2.5-.1.8-.8.8-.7 0-.2 1.1 1 2.4l2.3 2.5h33.4l33.3.1 1.4-2.2c1-1.7 1.4-5.6 1.2-14.3-.2-13.6-.9-18.1-3.2-18.9-2.1-.8-6.2 2.5-6.4 5.1-.1.5-.5 1.6-1.1 2.7-.7 1.4-.7 1.7.2 1.1.9-.5.9-.1-.1 1.6-.7 1.3-1.1 2.5-1 2.7.1.1 0 1.6-.4 3.2-.6 2.9-5.9 7.8-6.8 6.3-.6-1-8.9-.9-10.5.1-.6.3-1.4.2-1.7-.4-.5-.8-1.1-.8-2 0-1 .8-1.5.8-2 0s-1-.8-2 0-1.5.8-2 0-1.1-.8-2 0c-1.1.9-1.9.8-3.2-.2-1.7-1.2-1.8-3.8-1.7-36.1 0-23.6-.3-34.7-1-34.7-.6 0-.5-.4.3-.9.7-.5 1.1-1.3.8-1.8-.4-.6-.1-2.7.4-4.9 1.1-3.8 3.8-6.6 6.9-7 4.5-.7 5.6-1.3 6.4-3.7 1.7-4.6.2-5.1-18.1-5.2-9.3 0-17.7.1-18.7.3zM1056.6 1170.5c-1.2.6-2.2 1.8-2.4 2.7-.3 1.8 3 5.2 5.1 5.3 3.1.2 6.5 2.9 7.1 5.7.3 1.7.3 3.4 0 3.9s0 .9.7.9c.8 0 .8.4-.1 1.5-1 1.2-1 1.5.1 1.5.9 0 1 .3.4.8-1.4 1-1.4 56.4 0 57.4.6.5.6.8-.1.8s-.9 1.6-.7 4.4c.6 5.9-1.7 10.2-6.5 12.1-2.1.9-4.3 2.5-5.1 3.7-1.2 1.9-1.1 2.3 1 3.9s5.5 1.8 35.2 1.8c36.7.2 36.3.2 35.5-6.4-.2-1.9 0-3.5.5-3.5.4 0 .6-.4.3-.8-.3-.5-.6-5.5-.7-11-.1-8.4-.5-10.7-2.1-12.7l-1.9-2.5-3 3.1c-1.6 1.6-2.9 3.9-2.9 4.9 0 3-.1 3.4-1.2 4.7-.7.9-.7 1.3.1 1.3.7 0 .9.5.4 1.2-.4.7-.9 2.2-1 3.2-.5 3-3.4 5.2-6.5 5.1-1.6-.1-2.8.1-2.8.5s-.7.7-1.5.7-1.5-.4-1.5-.9-.9-.4-1.9.2c-1.4.7-2.2.7-2.6 0-.5-.8-1.1-.8-2 0-1 .8-1.5.8-2 0s-1.1-.8-2.1.1c-.9.7-1.4.8-1.4.1 0-.6-1-.7-2.7-.3-1.6.4-3.8.4-5-.2l-2.1-.9v-39.3c0-39.2 0-39.2 2.2-41.8 1.3-1.5 4-3 6.5-3.6 4.9-1.1 4.6-.9 5.5-3.7 1.3-4.2-1.3-4.8-19.7-4.9-9.8 0-17.9.4-19.1 1zM1138.6 1169.7c-.1.2-1.1.4-2.2.6-1 .1-2.9.9-4.1 1.8l-2.2 1.5 3.2 2.6c1.8 1.4 4.2 2.8 5.5 3.2 1.2.4 2.7 1.7 3.4 2.9 1.4 2.7 1.7 22.7.3 22.7-.7 0-.7.3 0 .8.6.4 1 7.5 1 17.7s-.4 17.3-1 17.7c-.7.5-.7.8 0 .8.6 0 1 3.8.9 9.9-.2 11.1-1.6 14.5-6.3 15.6-4.9 1.1-8.7 7.5-4.5 7.5.8 0 1.4.4 1.4.9 0 .6 13.9 1 35.1 1 33.8-.1 35.1-.1 37.1-2.1 1.3-1.3 1.8-2.9 1.5-4.4-.2-1.3 0-2.4.5-2.4s.5-.8-.1-1.8c-.6-1.1-.6-2.4 0-3.5.6-.9.6-1.7.2-1.7-1 0-.8-6.3.2-7.9.3-.6.1-1.1-.5-1.1-.8 0-.8-.6 0-2.1s.8-2.4 0-3.4-.8-1.5.1-2.1c2.1-1.3-4.3-3.2-6.8-2.1-1.3.6-2.3 1.3-2.4 1.6 0 .3-.3 1.5-.6 2.6s-.5 3.5-.6 5.2c0 1.8-.3 3.3-.6 3.3-.4 0-.7.9-.8 2.1-.2 2.7-3.1 7.1-4.3 6.4-.5-.3-1.2-.1-1.5.5-.4.7-1.1.7-1.8.2-.7-.5-2.1-.7-3.2-.5-2.5.5-3.3.5-6.7 0-1.6-.2-2.8 0-2.8.5s-.6.6-1.2.2c-1.8-1.1-8.1-1.1-9.5 0-.8.5-1.3.4-1.3-.3 0-.8-.5-.9-1.8-.2-2.4 1.3-4.2 0-4.2-3 0-1.3 0-3.1-.1-3.9 0-.8 0-7.6.1-15.1l.2-13.5 6.6.1c3.7.1 7.3-.3 8-.8.7-.5 1.2-.6 1.2 0 0 .5 1 1 2.2 1 2.7.2 4.6 2.6 5.4 6.9.6 3.4 4.1 5.8 6.4 4.4.8-.5 1.7-.7 2-.5 1.1.7.3-30-.8-32.8-1-2.3-1.5-2.6-3.1-1.8-1.1.6-3.7 3.2-6 5.8l-4 4.7-9 .1-9 .1-.3-10.4c-.2-5.7-.1-10.6.1-10.8.5-.4.5-7 .1-8.9-.1-.6-.2-1.9-.1-3 .1-1.4.4-1.6 1.3-.7.8.8 1.7.8 3.1.1 1.3-.8 2.2-.8 3 0 .7.7 1.6.7 3 0 1.3-.8 2.2-.8 3 0 .7.7 1.6.7 2.9 0 1.3-.7 2.3-.7 3.2 0 .7.6 1.6.8 1.9.5 1.1-1.1 5.7-1.3 5.7-.2 0 .7.4.7 1.3.1 1.5-1.3 4.7-1.3 4.7 0 0 .5.6.4 1.4-.2 1.6-1.3 3.2.2 2.1 1.9-.3.5-.2 1 .3 1s.9.6 1 1.2c.1.7.4 2.6.7 4.3.3 1.6.7 3.9.9 5 .7 4.7 1.9 7.4 3.4 7.7 2.8.6 5.2-.3 5.3-2.1 0-.9.2-2.6.3-3.9.2-1.2-.1-2.2-.6-2.2s-.4-.9.2-2c.8-1.5.8-2-.2-2-.8 0-.9-.3-.3-.8 1.4-1 1.7-3.2.5-3.2-.6 0-.6-.9 0-2.5.7-1.7.6-2.5-.1-2.5-.8 0-.8-.4 0-1.3.6-.8.9-1.6.6-1.9-.3-.2-.5-2.4-.6-4.9l-.2-4.5-33.4.1c-18.4 0-33.6.1-33.7.2zM1308.3 1169.8c-6 .9-4.2 7.4 2.6 9.2 6.5 1.7 6.5 1.7 6.1 35.1-.1 10.3.1 19.2.4 19.8.4.6.2 1.1-.4 1.1-.6 0-.9.4-.6.8.8 1.3 1 22.7.2 24-.4.7-.5 1.6-.2 2 .9 1.5-4.4 6.2-6.9 6.2-1.6 0-2.8.9-3.8 2.9-1.3 2.6-1.3 3 .4 4.4 1.5 1.3 6.7 1.5 36.7 1.5 34.6 0 35 0 37-2.1 1.7-2 1.9-3.7 1.8-17.2-.1-11.4-.4-14.9-1.3-14.8-.7.2-1.3-.1-1.3-.6 0-.4-1.1-.6-2.5-.3-3.2.6-5.1 4.2-5.4 10.1-.2 4.2-2.4 10-4.3 11.2-.5.3-2.9.5-5.3.5-2.5-.1-4.5.3-4.5.8s-.6.3-1.4-.3c-1-.9-1.6-.9-2.1-.1s-1 .8-2 0-1.5-.8-2 0-1.1.8-1.9.1c-.9-.7-1.6-.7-2.3 0-.6.6-1.7.8-2.4.3-1.6-1-5.9-1.2-5.9-.3 0 .4-1.3.2-3-.4-2.4-.9-2.7-1.4-1.7-2.6.7-.8.7-1.2.2-.9-.7.4-1.1-1.4-1-5.3 0-3.2.4-5.9.8-5.9.5 0 .5-.6 0-1.3-1.1-1.7-1-4.1.2-4.9.6-.5.5-.8-.3-.8-.9 0-1-.5-.4-1.8.5-.9.6-2.6.2-3.6-.3-1.1-.4-3.4 0-5 .6-3.1.6-3.1 7.6-3.1 3.8-.1 7.5-.4 8.2-.9.6-.4 1.2-.2 1.2.3 0 .6.7 1.1 1.6 1.1 2.1 0 4.3 2.8 4.4 5.5 0 1.1.4 2.6.9 3.4 1.2 1.8 8.1 2.6 8.2.9.4-7.3.3-12.1-.4-12.5-.4-.2-.5-.9-.1-1.5 2-3.3-.3-20.8-2.7-20.8-1.5 0-5.9 4.7-5.9 6.3 0 .8-.9 2.2-2 3.2-1.7 1.5-3.8 1.9-11.6 2-7.4.1-9.3-.2-9-1.2.3-.7 0-1.3-.6-1.3-.7 0-.7-.4.1-1.3.8-1 .7-1.7-.1-2.5-.9-.9-.9-1.2.1-1.2.7 0 .9-.5.4-1.3-1-1.5-1-3.5-.1-7 .3-1.5.3-2.7-.1-2.7-1.1 0-.8-7.4.4-8.3.7-.6.6-1-.2-1.3-.7-.3-.8-1.5-.4-3.1.7-2.5 1.1-2.7 7-2.7 3.5-.1 6.5.2 6.8.7.2.4 1.3.2 2.5-.4 1.4-.8 2.3-.8 3.1 0 .7.7 1.6.7 3 0 1.3-.8 2.2-.8 3 0 .5.5 1.7.7 2.6.2 1.9-.9 6.8-.8 7.8.3.4.3.9 1.4 1.1 2.4.2.9.5 2.6.7 3.7 2.8 13.3 3.6 14.7 7.4 14.3 1.8-.2 2.6-.9 2.7-2.4.1-1.2.4-2.6.8-3.2.4-.7.2-2-.4-3.1-.7-1.4-.7-2.2 0-2.6.8-.5.7-1.1-.1-2.1-.8-.9-.8-1.8-.2-2.7.6-.6.8-2.1.6-3.2-.5-2.3-.4-9.6.2-10.4.2-.4-.2-1.3-.8-2.1-1-1.3-6-1.5-35.2-1.5-18.7 0-35 .1-36.2.3zM1590.6 1170.1c.2.4 0 1-.5 1.4-1.3.7-.5 4.6 1.1 5.7.7.4 2.9 1.2 4.9 1.8 6.9 1.9 6.6.1 6.5 44.8l-.1 40.4-2.5 1.3c-1.4.7-2.8 1.1-3.1.9-.4-.2-2.2 1.1-4.1 2.9-3.5 3.2-4 5.7-1.2 5.7.8 0 1.4.4 1.4.9 0 .6 6.4 1 15.5 1 9.7 0 15.5-.4 15.5-1s.3-.8.8-.5c.4.2 1.6-.2 2.6-.9 1.7-1.3 1.7-1.5-1-4-1.6-1.5-4.3-3.3-6.1-4-1.8-.8-3.4-1.9-3.4-2.4-.2-1.2-.5-2.6-.9-3.9-.7-2-.4-5.8.5-6.4.6-.5.6-.8-.1-.8-1.2 0-1.1-4.1.1-5.9.3-.6.1-1.1-.5-1.1-.8 0-.8-.6 0-2 .8-1.5.8-2-.1-2-.8 0-.9-.4 0-1.3.8-1 .7-1.7-.1-2.5-.9-.9-.9-1.2 0-1.2 1 0 1-.5.2-2-.6-1.1-.7-2-.2-2 .4 0 .8-.9.8-2s-.4-2-.9-2-.4-.6.2-1.4c.9-1 .9-1.6.1-2.1s-.8-1 0-2 .8-1.5 0-2-.8-1 0-2c.7-.9.8-1.5.1-1.9-.7-.5-.7-1.5-.1-3.1.5-1.4.6-2.5.2-2.5-.4 0-.8-.9-.8-2s.4-2 .9-2 .5-.6-.2-1.3c-.8-1-.7-1.7.1-2.5.7-.7.8-1.2.2-1.2-1.1 0-1.2-3.5-.2-4.6.4-.3.4-1.3 0-2.2-.5-1.5-.4-1.5 1.1-.3.9.7 1.7 2.2 1.7 3.1 0 1 .4 2 .8 2.2.8.3 13.5 24.1 22.7 42.3 1.6 3.3 3.2 6.2 3.5 6.5.3.3 3 5.4 6 11.5 7.1 14.1 8.2 15.5 13.4 15.5 8.2 0 9.5-1.1 10.2-8.4.2-2.2.5-4.5.8-5.3.3-.7.1-1.3-.5-1.3s-.6-.6 0-1.8c.7-1.3.6-2.3-.1-3-.9-.9-.9-1.2.1-1.2 1.1 0 1.1-.3.1-1.5-.7-.8-.8-1.5-.3-1.5s.9-.9.9-2-.4-2-.9-2-.5-.6.1-1.3c.5-.6.6-2.1.2-3.2-.4-1.1-.4-3 .1-4.3.5-1.4.5-2.2-.2-2.2-.6 0-.7-.5-.3-1.2 1.1-1.8 1.2-6.8.2-6.8-.5 0-.6-.5-.2-1.2 1-1.6 1.1-11.8.1-11.8-.5 0-.5-.6 0-1.3 1.1-1.7 1-6.1-.2-6.9-.6-.5-.5-.8.4-.8 1.1 0 1.1-.3.1-1.5-.7-.8-.8-1.5-.3-1.5s.9-.9.9-2-.4-2-.9-2c-.4 0-.5-.6-.1-1.2 1.1-1.7 1.2-4.8.3-4.8-.4 0-.4-1.4.1-3 .6-2.1.5-2.8-.2-2.4-.6.4-.8.2-.4-.4.3-.6.8-2.4 1-4.1.4-3.3 2.1-5.5 5.3-6.5 1.2-.4 2.6-1.3 3.2-2 1.5-1.8 2.3-5.8 1-5.1-.5.4-.9.2-.9-.3 0-1.2-1.4-1.3-17-1.4-10.3-.1-14.2.2-16.4 1.4l-2.8 1.5 3 3.1c1.7 1.8 3.8 3.2 4.5 3.2.8 0 2.2.9 3.3 2.1 1.8 2 1.9 4 1.9 33.5 0 17.3-.2 31.4-.5 31.4s-1.4-1.7-2.5-3.8c-1.1-2-2.2-3.9-2.5-4.2-.3-.3-1.3-2.1-2.2-4-1-1.9-2.2-4.2-2.8-5-.9-1.5-5.7-10.2-14-25.5-2.4-4.4-5.3-9.8-6.3-12-1.1-2.2-2.2-4.2-2.6-4.5-.9-.8-4.5-8.4-4.3-9.3.1-.4-.2-.7-.7-.7-.5 0-1.4-1.3-2.1-3-.7-1.6-2.2-3.3-3.4-3.6-2.9-1-27.6-1.2-27-.3zM1700.4 1170c-1.7.4-2.1 1.9-1.5 5.8.2 1.3 5.1 3.3 6.2 2.7.5-.4.9-.1.9.4 0 .6.6 1.1 1.4 1.1.8 0 1.7 1.2 2.2 2.7.4 1.6.8 20 .9 41.1l.1 38.4-2.8 2.9c-1.6 1.6-3.4 2.9-4.1 2.9-.7 0-2.3 1.1-3.5 2.5l-2.1 2.4 2.8 2.1c2.7 1.9 4.3 2 26.7 1.9 13.2-.1 24.4-.4 24.9-.7.6-.4 2.1-.8 3.4-1 1.3-.2 3.7-1 5.3-1.8 1.5-.8 2.8-1.2 2.8-.9 0 .5 3.9-2.2 9.4-6.5 2.6-2.1 7.7-10.1 7-11.1-.3-.5-.1-.9.5-.9.9 0 1.3-1.7 2.7-12 1.1-8.2 1.1-9 .2-9-.5 0-.6-.5-.2-1.2 1.1-1.8 1.2-18.8.1-18.8-.5 0-.4-.7.3-1.5s.8-1.5.3-1.5-.9-1.9-.9-4.3c-.2-6.8-.8-10.7-1.6-10.7-.4 0-.8-.7-.8-1.5 0-5.4-11.8-19.2-17.5-20.5-.5-.1-2-.6-3.3-1.1-1.3-.5-3.7-1.2-5.5-1.5-3.9-.8-51.5-1.2-54.3-.4zm34.1 11.5c10.7.9 14 1.3 14 1.5 0 .1 1.1.3 2.4.6 2.7.5 7.9 2.9 10.1 4.7 3.9 3 7.8 11.1 8.5 17.3.1 1.3.5 2.7.9 3.1.3.3.1 1.2-.5 1.9-.7.8-.7 1.4.1 1.9.5.3 1 1.1 1 1.6 0 .6-.5.7-1.2.3-.7-.4-.8-.3-.4.4 1.3 2.1 1.5 5.4.6 7.3-.7 1.2-.7 2 0 2.4.5.3 1 1.1 1 1.6 0 .6-.3.8-.7.6-.5-.3-.8 2.3-.9 5.6-.1 10-1.4 16.4-3.8 19.6-2.5 3.1-8.6 9.4-8.6 8.7 0-.4-.6-.4-1.2.1-.7.4-1.9.8-2.7 1-.8.1-1.7.5-2 1-.3.5-1.6.8-2.9.7-1.2-.1-2.5.3-2.8.7-.3.5-1.3.5-2.3-.1-1.2-.6-2.2-.5-2.9.2-.8.8-1.2.8-1.2.2 0-1.1-3.5-1.2-4.6-.1-.4.3-1.2.3-1.8 0-.6-.4-2.5-.6-4.3-.4-2.6.2-3.3-.1-3.4-1.6-.1-2.4-.1-79.4 0-81 .1-.7.7-1 1.4-.8.6.3 4.4.7 8.2 1zM1878.2 1170.1c-1.5.6-2 1.4-1.7 3 .6 3.2 2.4 4.8 6.6 5.9 6.9 1.9 6.6-.4 6.3 44.1-.1 22.2-.2 40.7-.3 41 0 .4-2.1 1.4-4.5 2.3-2.4.9-5.2 2.9-6.2 4.3-1.6 2.6-1.6 2.7.6 4.5 1.9 1.6 4.2 1.8 18.6 1.8 16.3 0 17.5-.2 18-3.7.3-1.9-3.6-5.3-6.7-6-5.9-1.1-6-1.8-5.9-37.8 0-18 .3-33.2.6-33.7s2.2 2.2 4.1 5.9c1.9 3.7 3.9 7.2 4.4 7.7.5.6.9 1.8.9 2.8 0 1 .4 1.8.9 1.8s1.5 1.6 2.2 3.5c.7 1.9 1.7 3.5 2.1 3.5.4 0 .7.3.6.7-.2.9 2.3 6.5 3.2 7.3.3.3 2.1 3.6 4 7.5 1.9 3.8 4.5 8.7 5.7 10.7 1.3 2.1 2 3.8 1.6 3.8-.5 0-.3.4.2.8.6.4 3.4 5.6 6.4 11.6 3 5.9 6.5 11.5 7.7 12.3 1.4.9 4.2 1.3 7.4 1.2 8.6-.4 8.2 1.7 8.3-56.5 0-33.1.1-37.3 1.6-39.3.9-1.2 2.6-2.3 3.6-2.5 1.1-.2 2.8-1.5 4-3l2-2.8-2.4-1.6c-3.3-2.2-24.4-2.5-31.4-.5l-4.9 1.4 4.5 4.3c2.4 2.4 5.2 4.8 6.3 5.4 1.7 1 1.8 2.8 1.9 32.6.1 22.1-.2 31.6-1 31.6-1 0-4-5.3-15.5-27.2-2.5-4.8-6.3-12-8.4-16-2.2-4-5.4-10.1-7.1-13.5-1.8-3.3-4-7.1-4.8-8.4-.9-1.2-1.4-2.5-1.2-2.9.3-.4-1-2.4-2.8-4.5l-3.3-3.8-12-.2c-6.7-.1-13 .2-14.2.6zM284 1170.8c-3 .5-3.9 1.7-3.3 4.2.5 2 2.4 3.1 6.2 3.5 3.9.6 5.6 4.2 6.1 13.8.3 4.8.2 8.7-.1 8.7-1 0-.5 4.5.6 5.2.7.5.7.8 0 .8-.6 0-.9 9.4-.8 26.7.3 29.4.1 30.6-5.4 33.4-3.6 1.8-6.3 4.3-6.3 5.8 0 .6 1.1 1.7 2.4 2.6 1.9 1.2 5.4 1.5 18.2 1.4 13.7 0 16.1-.3 18.1-1.9l2.3-1.8-2.7-2.7c-1.6-1.5-4.8-3.5-7.3-4.4l-4.5-1.6v-15.8c0-8.6.3-15.7.7-15.7 1.7 0 2.4-.2 3.7-1.3 1-.8 1.3-.8.8-.1-.4.8.7 1 3.6.8 2.3-.1 4.2-.3 4.2-.4 0-.1 1.8-.3 4-.5 2.2-.1 4-.4 4-.5 0-.1 1.3-.4 3-.6 1.6-.3 3.2-.8 3.5-1.2.3-.4 1.2-.8 2-1 9.2-1.8 16.8-11 18.5-22.3 1.2-7.7 1.2-8.9.3-8.9-.5 0-.5-.6 0-1.6.6-1 .4-3-.4-5.3-.7-2-1.3-4.4-1.4-5.4 0-.9-.5-1.7-1.1-1.7-.5 0-.8-.4-.5-.9.8-1.2-5.7-7.9-9.1-9.3-4.2-1.7-5.9-1.8-31-2.1-13.3-.1-23.3.1-23.3.6 0 .6-.5.6-1.2 0-.7-.5-2.4-.7-3.8-.5zm43.8 11.7c9 .6 12.8 4.8 13.6 14.8 1 14.4-7.3 21.8-24.9 22.1l-9 .1-.1-18.5c0-10.2.2-18.9.4-19.3.2-.5 3.6-.6 7.6-.2 3.9.3 9.5.8 12.4 1zM1119 1323.6c0 .5-4.4 1-9.8 1-10 .2-15.7.9-20.1 2.6-1.4.5-2.8 1-3.1 1-.3 0-1.5.4-2.8.9-1.3.5-2.8.9-3.3.9s-.9.4-.9 1-.4.9-.8.7c-1.6-.4-11 6.3-16.2 11.4-5.9 6-16.9 22.3-17.1 25.4 0 .2-1.1 2.9-2.4 6-1.4 3-2.4 5.6-2.3 5.8 0 .1-.7 2.8-1.6 5.9-1.5 5.3-1.9 7.3-3.2 15.3-1.5 9.7-2.5 24.8-2.8 41.5-.1 6.3-.5 12.1-.9 12.7-.5.7-.5 1.3 0 1.3.4 0 .8 5.3.8 11.8 0 6.4.1 12.1.4 12.6.2.5.5 4.5.6 9 .2 4.4.4 8.1.5 8.1.1 0 .3 1.8 1.4 13 .2 2.2.4 4 .6 4 .1 0 .3 1.5.5 3.4s.7 4.6 1.1 6c.5 1.4.8 3.1.9 3.6.1 1.9 2.7 9.9 5.8 18 10.9 28.3 32.8 46.1 57.9 46.9 2.1 0 3.8.5 3.8.9s.9.3 1.9-.3c1.4-.7 2.2-.7 2.6 0 .4.6 1 .8 1.4.6.4-.3 4-.7 8.1-1 4.1-.3 8.6-.9 10-1.2 1.4-.3 3.6-.7 5-1 4-.7 5.3-1 8.3-2.2 1.6-.7 3.1-1.2 3.4-1.2 1.7 0 8.6-3.9 13.9-7.8 5.5-4.2 13.1-13 16.5-19.2.8-1.4 1.8-2.8 2.2-3.1.5-.3.9-1 .9-1.5.2-2.4 1.1-4.4 2-4.4.5 0 .6-.5.2-1.1-.3-.6-.3-1.4.2-1.8.9-.6 4.7-11.2 6.3-17.3.1-.4.7-2.2 1.2-4 .6-1.8 1.2-4.7 1.4-6.3.3-1.7.7-4.1 1-5.5 1.3-6.1 1.8-14.9 1.9-34.5.1-11.6.5-21.3 1-21.6.9-.7 1.5-13.9.5-13.9-.6 0-1-5.2-1.3-15.2 0-3.2-.4-5.8-.7-5.8-.3 0-.6-1.5-.6-3.3 0-3.6-.9-12.8-1.8-19.7-.4-2.5-.8-6.1-1-8-.6-5.1-2.3-13.1-3.6-16.5-5.9-15.4-11.7-24.8-21.1-34.5-4.1-4.2-12-10-13.7-10-.6 0-1.1-.5-1.1-1.1 0-.5-.4-.7-1-.4-.5.3-1 .2-1-.4 0-.5-1.5-1.3-3.2-1.6-1.8-.4-3.7-1.1-4.3-1.5-1.1-.8-6.8-2-9.7-2.1-1 0-1.8-.3-1.8-.7 0-.4-1.9-.7-4.2-.6-2.4 0-4.9-.4-5.5-.9-.7-.5-1.3-.6-1.3-.1zm5 30.6c6.1 1.4 16 5.1 16 6 0 .5.6.8 1.4.8 1.3 0 8.5 6.5 11.6 10.6.8 1 2.6 4.4 3.9 7.4 1.3 3 2.7 6.3 3.2 7.3.6 1 .7 2.2.4 2.7-.4.6-.2 1 .3 1 .6 0 1.3 1.7 1.7 3.7.5 2.1 1 4.2 1.1 4.8 3 9.1 3.8 21.9 3.7 58.5-.1 31.3-.7 47.7-1.8 53-.4 1.4-.8 3.6-1.1 5-.3 1.4-.7 3.2-.9 4-.2.8-.4 1.5-.6 1.5-.1 0-.3.9-.4 2-.2 1.1-.8 3.3-1.5 5-.7 1.6-1.4 3.6-1.6 4.3-.8 4.1-8 16.6-11.9 20.5-6.2 6.4-14.5 10.4-23 11.2-2.3.2-5.3.6-6.8.9-1.5.2-2.7.2-2.7-.2s-2.5-.7-5.5-.7c-3 .1-5.5-.2-5.5-.5s-.8-.6-1.7-.6c-11.1-.5-24.5-9.8-30.4-20.9-5.3-10-8-20.7-9.3-36.3-.2-3-.7-5.6-1-5.9-.3-.4 0-1.3.7-2.1.7-1 .8-1.3.1-.9-.8.5-1.2-1.1-1.4-5.1-.1-6.3-.7-15.7-1-15.7 0 0-.3-4.2-.5-9.3-.2-5.1-.7-9.7-1-10.2-.3-.5-.2-1.1.2-1.3.5-.3.8-2.8.7-5.6 0-2.8.4-5.1 1-5.1s.5-.5-.2-1.2c-.6-.6-.8-1.8-.3-2.7.4-.9.9-3.8 1-6.5.3-6.3.4-7 1.6-7.8.6-.5.5-.8-.3-.8-.7 0-1.1-.3-.9-.8.5-.7 1.2-5.6 2.2-14.7.4-2.8.8-6.1 1-7.5.2-1.4.7-4.5 1-7 .7-4.9 7.3-19.5 11.4-25 5.9-8 13.7-13 24.3-15.4 6.8-1.5 17-1.7 22.8-.4zM141.8 1324.6c-.2.1-1.6.4-3.3.7-8 1.4-15 4.8-21.3 10.2-6.3 5.4-14.2 17.7-13.4 20.7.1.5-.2.8-.7.8-.8 0-1.5 2.4-3.6 13-1.5 7.4-2.8 42.3-1.7 43.5.2.2.5 3.2.7 6.7.2 3.4.6 7.2.9 8.3.8 3.5 3.8 12 4.5 12.5.3.3 1.3 1.8 2.1 3.3 2.7 5.4 11.5 13.1 19.1 16.9 6.6 3.3 10.4 4.8 11.9 4.8.3-.1 3 .8 6.2 1.9 3.1 1.1 5.9 1.6 6.3 1.3.3-.4.9-.2 1.3.3.4.6 2.9 1.6 5.5 2.3 8.3 2.1 20.3 7.1 24.5 10.2 3.5 2.5 11.2 12 9.8 12-.3 0-.1 1.2.5 2.7 2.2 5.8 4 23.1 2.9 28.8-.1.5-.2 2.5-.2 4.2 0 1.8-.3 3.3-.7 3.3-.4 0-.7 1.2-.6 2.7.1 6.9-6 19.4-11.2 23-3.3 2.4-8.9 4.4-9.7 3.6-.3-.4-.6-.2-.6.3 0 1.1-11.5 1.1-17.7 0-2.4-.4-4.3-1.2-4.3-1.7 0-.6-.4-.8-.9-.5-1 .6-6.1-1.6-6.1-2.7 0-.4-.4-.7-1-.7-1.2 0-4.5-2.7-7.4-5.9-1.2-1.3-2.5-2.9-3.1-3.5-1.7-1.9-5.3-9.9-6.5-14.6-1.4-5.2-1.8-9.1-2.4-21.1-.5-10.3-1.5-12.6-5.9-13.4-9.9-1.7-16.9-.6-18.4 2.8-.5 1.2-.8 21.2-.7 44.5.1 39.5.2 42.4 1.9 43.6 2.8 2 6.8 1.7 9.9-.7 2.2-1.8 2.8-3.2 2.9-6.5.1-2.3.5-4.2 1-4.2.4 0 .7-1.1.7-2.5 0-3.3 1.1-3.2 4.8.7 4.6 4.9 12.8 10.6 14.5 10 .4-.1.7.3.7 1 0 .6.3.9.6.5.4-.3 1.9 0 3.4.8 7.6 3.9 27.6 6 41 4.3 5-.7 15.1-4.4 16.1-6 .3-.5.9-.8 1.2-.6.7.4 10.6-7.5 10.7-8.6 0-.6.9-1.9 1.9-3 2.4-2.5 6.8-11.2 7.5-14.6.3-1.4.9-4 1.5-5.8.5-1.7.7-3.2.3-3.2-.4 0 0-.5.8-1 1.1-.7 1.1-1 .2-1-.7 0-1-.5-.6-1.1.9-1.5 1.4-5.6 1.9-16.4.2-5 .4-9.1.5-9.3.5-.8.2-8.1-.4-9-.4-.6-.3-2 .2-2.9.9-2.1.9-7.4-.1-9-.4-.6-.4-1.4.1-1.7.5-.3.7-2 .5-3.8-.2-1.8-.5-4.5-.5-6.1-.1-1.5-.5-2.7-.8-2.7-.4 0-.6-1-.5-2.3.1-1.2-.1-2.9-.5-3.7-4-8.9-7.7-15.6-10.1-18.1-1.6-1.7-2.9-3.5-2.9-4s-.5-.9-1.1-.9c-.6 0-3.1-1.6-5.5-3.6s-4.4-3.2-4.4-2.8c0 .5-.4.4-.8-.1-.9-1.3-9.6-5.5-12.2-5.9-.7-.1-9.2-2.7-11-3.4-.8-.3-2.3-.7-3.3-.9-1.8-.3-14.1-4-16.7-5-.8-.3-2.1-.7-2.8-.9-.8-.1-3.8-1.5-6.8-2.9-8.3-4-13.6-10.4-15-18-.9-5.1-1-31.8-.1-36.9 2.2-12.1 10.9-21.6 21.4-23.1 18.3-2.8 33.3 4.9 40.9 21 4 8.6 4.5 11 4.8 25.5.3 12.7 1 16 3.2 16 .8 0 1.4.4 1.4.8 0 1 17.6 1 18.5 0 1.7-1.7 2-10.1 1.9-47.6-.1-38.4-.2-40.3-2-41.7-1.9-1.4-7-1.5-9.3-.1-1.8 1.1-3.4 5.1-4.6 11.6-.8 4.6-1 4.6-3.9 1.7-1.4-1.4-2.7-2.2-3-2-.3.3-.8-.2-1.2-1.1-.3-.9-1.2-1.6-2-1.6s-1.4-.5-1.4-1c0-.6-.7-1-1.5-1s-1.5-.5-1.5-1.1c0-.5-.4-.8-.9-.4-.5.3-1.6-.2-2.5-1-.8-.9-1.9-1.6-2.3-1.5-1.7 0-4.3-1.2-4.3-2 0-.5-.7-.7-1.5-.4-.8.4-2.1.2-2.8-.4-.6-.6-2.9-1.3-5.1-1.6-2.1-.4-4.3-.9-4.8-1.3-1-.5-20.5-1.3-21-.7zM927.2 1326.6c-3.4 1.1-6.2 1.8-6.2 1.5 0-.3-.4-.1-.8.5s-2.1 1.9-3.9 2.8c-3.7 1.9-12.7 10.7-14.7 14.5-3.2 5.9-5.7 11.7-5.9 13.3-.1 1-.5 1.8-.9 1.8s-.7.3-.6.7c.1.5-.2 2.6-.7 4.8-.5 2.2-1 4.9-1.1 6-.1 1.1-.3 2-.4 2-.5 0-1.2 12.8-1.2 24-.1 16.7 1.5 32.5 3.3 32.5.5 0 .6.7.3 1.5-.4.8-.1 2.2.6 3 .7.8 1 1.5.6 1.5-.5 0 .5 2.1 4.9 9.5 1.9 3.2 11.5 11.5 13.4 11.5.6 0 1.1.4 1.1.9 0 .8 13.7 6.9 17 7.6.8.2 2.9.8 4.5 1.5 1.7.6 3.1 1.1 3.3 1.1.1-.1.4 0 .7 0 1.4.4 2.3.6 6 1.7 2.2.6 4.2 1.1 4.5 1 .3-.1 1.6.4 2.8 1.1 1.3.7 3.6 1.5 5 1.7 1.5.3 3.1.9 3.8 1.5.6.5 1.4.6 1.7.2.4-.3.7-.1.7.5 0 .7.3 1.1.8 1 3.1-.9 17.2 10.8 17.2 14.2 0 .9.4 2 1 2.6.5.5 1.1 2.3 1.3 4 .2 1.6.6 3.4.8 3.9 2.2 4 1.4 31.4-1 37.8-.6 1.5-.8 2.7-.5 2.7.4 0 .2.6-.4 1.2-.6.7-1.1 1.6-1.1 2.1-.3 3.2-4.5 9.5-8.3 12.5-5.6 4.4-20.5 6.1-29.3 3.3-9.8-3.1-21.2-11.5-23-17-.3-1.2-1.1-2.1-1.6-2.1s-.8-.3-.7-.8c.1-.4-.5-2.1-1.2-3.7-.7-1.7-1.4-3.9-1.6-5-.2-1.1-.7-3.6-1.2-5.7-.5-2-1-8.2-1.1-13.8-.1-5.6-.7-11.2-1.3-12.5-1.3-2.9-4.9-3.8-13.8-3.7-9.3.1-10.1 1.4-9.9 14.6 0 5.6 0 10.5-.1 11.1-.1.5-.2 1.4-.1 2 .1.5.2 5 .1 10-.1 4.9-.1 9.6-.1 10.2v23.8c0 3.6.1 7.3.1 8.2v5.2c0 1.8.5 4.1 1 5.1 1.3 2.4 6.3 3.4 9.2 1.9 3.3-1.7 4.4-3.8 5-9.7.1-1.2.5-2.2.9-2.2s.7-.6.6-1.2c-.1-4.9.3-4.9 5.3 0 4 3.9 17.9 12.7 19.2 12.2.2-.1 1 .1 1.8.4 3.8 1.4 15.3 3.6 16 3.1.5-.3 1.1-.2 1.4.3.4.7 19.6.9 20.4.2.3-.3 1-.5 5.6-1.5 8.8-1.8 22.9-12 26.6-19.2.8-1.5 1.7-3 2.1-3.3.9-.8 4.6-10.3 5.3-13.5.4-1.7.9-4.1 1.2-5.5.9-4.4 1.8-16.3 1.8-25.7.1-5.1.5-8.9 1-8.5.5.3.6-.1.1-.8-1.1-1.8-1.3-13.1-.4-15.1.5-.9.5-1.9.1-2.3-.3-.4-.7-2.2-.8-3.9-.3-4.8-1.1-8.8-2.3-12-.6-1.5-.8-2.7-.5-2.7.4 0 .1-.6-.5-1.3-.6-.8-.8-1.7-.4-2 .3-.4 0-.7-.7-.7s-1-.3-.7-.6c.4-.4-.2-1.9-1.3-3.4-1.1-1.6-2-3.1-2-3.4 0-.8-4.9-6.4-8.4-9.5-4.8-4.3-5.1-4.6-7.1-5.7-1.1-.6-2.9-1.6-4-2.2-4.3-2.4-11.5-5.2-13.4-5.2-1.2 0-2.1-.5-2.1-1.2 0-.6-.3-.9-.6-.5-.3.3-2.9-.2-5.7-1-2.9-.8-5.6-1.6-6.2-1.8-.5-.1-1.7-.4-2.5-.7-.8-.3-3.5-1.1-6-1.8-2.5-.6-5.3-1.6-6.2-2.1-1-.5-2.3-.9-2.9-.9-2.1 0-10.4-4.5-13.6-7.4-3.7-3.3-7.5-10.5-7.5-14.2 0-1.4-.5-2.1-1.2-1.7-.7.4-.6.1.1-.7.8-.9.9-1.9.2-3.2-.7-1.2-.6-1.8.1-1.8.6 0 .8-.5.4-1.1-.9-1.4-.8-18.4.1-19.8.3-.6 0-1.1-.7-1.1-.8 0-.9-.3-.2-.8.5-.4 1.1-1.6 1.1-2.7.6-14.4 12.5-26.7 25.7-26.5 7.2 0 15.8 1.4 18 2.8.6.4 1.3.7 1.6.7.3 0 2.3 1.2 4.5 2.7 7.8 5.1 12.7 12.4 15.1 22.3.2.5.6 2.1.9 3.5.6 2.3.9 6.4 1.9 22.9.6 8.4 1.7 9.4 10.8 9.7 9.6.4 12.6-.8 13.4-5.2.3-1.9.4-4 .1-4.8-.3-.8-.3-1.7 0-2 .6-.6.5-14.2-.2-17.6-.2-1.1.1-2 .6-2 .6 0 .7-.5.3-1.2-.9-1.4-1.1-46.8-.2-46.8.4 0 .3-1.2-.1-2.8-.5-1.5-.7-3.5-.5-4.4.3-2-2-4.1-4.9-4.5-2.9-.5-7.7 1.6-7.7 3.3 0 .8-.4 1.4-.8 1.4s-.8.8-.9 1.9c-.1 1-.7 3.8-1.3 6.1-1.1 4.2-1.1 4.2-3.3 2.3-1.2-1-2.4-2-2.7-2.3-2.7-3-21-12.8-21-11.3 0 .3-.7 0-1.5-.7s-1.5-1-1.5-.6c0 .3-1.2.1-2.7-.5-4.1-1.5-8-2-18.8-2.3-8.1-.1-11.2.2-16.3 2zM1287.7 1324.7c-.2.1-2.1.3-4.2.4-2.2.1-4.4.6-5 .9-.5.4-2.3 1-4 1.4-4 .9-14.5 5.9-14.5 6.8 0 .5-.7.8-1.5.8s-1.5.4-1.5 1c0 .5-.4 1-1 1-1.2 0-9.6 8.3-14.1 14-5.7 7.1-13.5 21.7-14.5 27 0 .3-.3 1.2-.7 2-1.7 4.1-3.3 11.3-4.3 19-.3 3-1.2 5.8-1.8 6.2-.8.5-.7.8.2.8.7 0 1 .5.6 1.1-.3.6-.7 3.3-.8 6-.1 2.7-.5 5.2-.9 5.5-.3.4-.2 1.4.3 2.4s.6 2.1.2 2.5c-1 1-1.1 53.7 0 55.7.5 1 .5 1.8.1 1.8s-.8 1.3-.8 3c0 1.6.2 3 .5 3s.6 2.4.6 5.2c0 2.9.4 7.5.8 10.3.4 2.7.9 6.6 1.1 8.5.5 4.8 1.1 8.2 3.1 17.5.9 4.4 1.7 8.6 1.7 9.2 0 .7.4 1.3.9 1.3.4 0 .7.3.6.7-.2 1.2 1.4 6.7 2.3 7.8.4.5.7 1.2.7 1.5.1.3.5 1.8 1.1 3.3.6 1.6 1.1 3.2 1.1 3.7s.4 1 .8 1.2c.4.1 2 2.3 3.4 4.8s3.6 5.5 4.7 6.7c1.2 1.2 2.1 2.6 2.2 3 0 1.1 12.4 11.3 13.7 11.3.6 0 1.2.4 1.4.8.4.9 11.5 6.3 14.2 6.8 1 .2 3.5.9 5.5 1.5 4.1 1.4 25.1 2.1 25.1.8 0-.4.8-.6 1.9-.4 2.5.5 18.5-5.1 23.3-8.1 2.1-1.3 4-2.4 4.4-2.4.7 0 9.5-7.2 13.9-11.5 7.2-7 14.1-18 17.5-28 2.7-8 3.1-9.7 3.5-19.2.2-4.6.7-8.7 1-9.3.3-.5.1-1-.5-1-.7 0-.9-.8-.5-2 1.2-3.7-.4-9.6-2.8-10.7-3.8-1.7-17.9-1-20.7 1-1.4 1-2.4 2-2.2 2.2.1.3.2.6.1.7-.2.7-.9 4.6-1.3 6.8-1.6 10.2-7.1 26.6-10.8 32.5-2.6 4.1-11.7 12.4-15.5 14-6.9 3.1-7.8 3.4-11.2 4.1-17.3 3.4-35.6-3.9-43.3-17.1-3.6-6.2-7.9-16-8.1-18.5-.1-1.1-.6-2-1.1-2-.5 0-.6-.3-.3-.7.4-.3.2-1.2-.4-1.9-.6-.7-1.1-2.9-1.2-4.8-.1-2-.6-3.6-1.1-3.6-.4 0-.6-.6-.3-1.4.3-.8.3-1.7-.1-2-.3-.4-.7-4.4-.8-8.9-.2-4.5-.3-8.2-.4-8.2-.1 0-.2-3.5-.3-7.8-.2-4.8.1-7.7.8-7.7.6 0 .7-.3 0-.8-1.4-1-1.5-14.5-.1-15.4.8-.6.8-.8 0-.8s-1-3.7-.8-12.3c.4-14.9.4-14 .3-18-.1-8.3 1-22.7 2.1-27.2.6-2.8 1.3-5.8 1.5-6.7.5-2.3 2.8-7.7 7.2-16.6 7-14.3 19.7-23.2 34.1-24 4-.2 8-.1 9 .4.9.4 2.8.9 4.2 1.1 1.3.2 3 .9 3.7 1.5.7.6 1.3.7 1.3.4 0-1 8.9 5.2 13.7 9.6 2.4 2.1 4.1 3.8 3.9 3.8-.2 0 1.1 1.6 2.8 3.5 3.1 3.4 9.4 14.9 10.1 18.4.2 1 .7 3.4 1.2 5.2.5 1.9.9 5.3.9 7.6-.1 2.4.2 4.3.5 4.3s.4 1.3.3 3c-.4 5.2 2.5 7.2 10.8 7.4 8 .2 12.4-1.4 13-4.9.2-1.1.4-20.6.4-43.3l-.1-41.3-2.4-2.5c-1.9-2-3.1-2.4-6-2.1-7.6.9-8.5 2.3-9.4 13.9-.4 4.3-1.4 5.8-2.3 3.4-.3-.9-1.2-1.6-2-1.6s-1.4-.4-1.4-.9c0-1.2-11.1-9.1-12.7-9.1-.7 0-1.3-.5-1.3-1.1 0-.5-.4-.7-1-.4-.5.3-1 .1-1-.6s-.3-1-.6-.6c-.4.3-1.9 0-3.5-.9-1.6-.8-2.9-1.2-2.9-.8 0 .4-.7.1-1.5-.6s-2.2-1-3-.6c-.8.3-1.5.1-1.5-.5 0-.5-.6-.9-1.2-.8-.7.2-3.3-.1-5.8-.6-4.1-.8-20.7-1.4-21.3-.8zM239 1330.2c-1.5 2.5-1.7 4.5-1.1 10.5.3 3 6.3 8.3 11.1 9.8 2.8.9 6 3.1 7 5 .9 1.7 1.3 22.3 1.5 84.1.1 45.1.5 84.1.9 86.9.4 2.7.8 6.7.9 8.7.1 2.1.6 3.8 1 3.8.5 0 .7 1 .6 2.2-.1 1.3.1 3 .4 3.8.3.8 1.1 3.5 1.7 6 2.9 11.2 8.6 21 16.7 28.6 4.5 4.1 12.9 9.2 16.1 9.7.9.1 2.2.5 2.7.8 1.5.9 6.5 2 11.5 2.6 8 .9 29.1.9 29.6.1.3-.5.9-.6 1.2-.4 1.3.8 10.6-1.4 14.4-3.4 2.1-1.1 3.8-1.7 3.8-1.4 0 .8 10.1-6.6 12.4-9.1 5.3-5.8 8.7-10.7 11.9-17 3.6-7.3 5.6-13.3 8.1-24.3 1.6-6.9 2-24.3 2.1-95.2.2-44.3.5-81.5.8-82.8 1-3.8 4.7-8.1 8.7-10.2 2-1 3.9-1.7 4.1-1.5.3.2 1.5-.4 2.8-1.4 4-3 4.3-13.8.6-17.7-1.4-1.4-63-1.5-66.2-.1-4.1 1.8-4.5 12.6-.7 16.3 1.2 1.2 6.6 3.9 11.8 6 5.3 2 10.2 4.4 10.9 5.2 2.1 2.6 1.4 158.7-.9 172.4-.2 1.6-.6 3.8-.7 5-1.1 6.9-5.7 16.6-10.1 20.9-3.2 3.3-12.2 8-16.6 8.8-1.4.2-4.6.4-7.2.5-2.7.1-4.8.4-4.8.7 0 .3-1 .5-2.2.3-1.3-.1-2.3-.3-2.3-.4 0-.1-1.6-.3-3.5-.4-9.6-.8-16.1-3.7-21.8-10.1-3.6-3.8-7.9-12.4-9.4-18.4-1.6-6.7-1.8-7.6-2.4-13.6-.4-3.3-.8-6.3-1-6.7-.3-.4 0-.9.6-1.3s.8-1.1.4-1.6c-.3-.6-.5-5.6-.5-11.2.1-5.6.1-11.1.1-12.2-.2-2.6-.2-6.1-.1-10.5.1-1.9.1-6.4.1-10-.1-3.6-.1-7.9 0-9.5 0-1.7-.1-4.1-.3-5.5-.1-1.4 0-4 .4-5.8.4-1.7.4-3.2 0-3.2-.3 0-.5-3.3-.4-7.2.3-8 .3-11.7.2-16.3v-6.5c.1-1.9 0-6.4-.2-10-.2-3.6.1-7.1.6-7.8.6-.7.6-1.2 0-1.2-1.3 0-1.2-8.3.2-9.2.7-.5.7-.8-.1-.8-.7 0-1.1-3.4-1.1-9.5 0-5.2.4-9.5.8-9.5.5 0 .6-.7.3-1.5-1-2.4 3.5-10.3 7.1-12.5 1.8-1.1 5.5-2.7 8.2-3.5 4.3-1.3 11.1-5.5 8.8-5.5-.4 0-.3-.6.2-1.3.6-.6.9-3.4.8-6.1-.4-8.5.2-8.4-36.8-8.3h-31.9l-1.8 2.9zM448 1329.2c-1.1 1-2 2.4-2.1 3.1 0 .7-.2 2.3-.4 3.7-.5 3.8 3.1 10.7 6 11.4 4 1 17.3 7.4 18.2 8.8.8 1.3 1.3 200.7.5 204-.3 1.3-5.7 4.8-8.2 5.3-.3.1-2.3 1-4.5 2s-4.3 1.7-4.7 1.7c-.4-.1-2.4 1.4-4.4 3.4-2.8 2.8-3.3 3.9-2.2 4.5.8.6.9.9.1.9-.7 0-1 1.4-.7 4.2.5 4.7 5.1 9.9 6.6 7.5.4-.7.8-.8.8-.2 0 .6 4.6 1 11.9 1 7.7 0 11.7-.4 11.3-1-.4-.6 0-.6.9 0 1.2.9 24.1 1.3 27.4.5.6-.1 1.2-.1 1.5 0 1.9.7 4 .7 4-.1 0-.4.6-.6 1.4-.3 2.4.9 8.6-3.1 8.6-5.5 0-.6.4-1.1.9-1.1 1.4 0-.5-6.9-2.6-9.2-1-1.1-5.4-3.8-9.9-5.9-12.8-6.1-11.7-1.5-11.8-48.6-.1-22.5 0-41.7.2-42.9.3-1.9 1-2 14-1.9 7.5.1 14.4-.2 15.3-.6.9-.5 1.9-.5 2.3-.2.4.4 2.4.8 4.6 1 8.4.7 17.1 8.6 18.2 16.5.2 1.3.6 2.5.9 2.8.4.3.9 2.1 1.2 4 .3 1.9.8 4.6 1.2 6 .7 2.9 1.5 7.5 1.9 11 .2 1.4.6 3.8.9 5.5 1.2 5.7 2 12 2.1 15.7.1 2.1.3 3.8.7 3.8.3 0 .6 1.9.8 4.2.1 2.3.4 4.5.7 4.9.2.4.7 2.9 1 5.6.6 5 .9 7.3 2 13.8.3 2.2.6 5.5.7 7.2 0 1.8.3 3.3.6 3.3.4 0 .7 1.4.7 3.1.1 1.9 1.2 4.2 2.8 5.8 2.3 2.3 3.4 2.6 9.4 2.6 3.7 0 7.3-.4 8.1-1 1.2-.8 1.3-.7.6.5-.7 1.3-.6 1.3.7.2 1.2-1 1.8-1 2.3-.1.6.8 1 .7 1.6-.2.5-.8.9-.9.9-.4 0 .6 2.3 1 5 1 2.8 0 5-.3 5-.7 0-.4.6-.5 1.3-.2 2.4.9 4.6-2.1 5.5-7.4.5-2.8.5-5.2.1-5.2-.5 0-.9-.8-.9-1.8 0-1.1-.9-2.7-2-3.7s-2-1.4-2-.9c0 .5-.4.4-.8-.1-.4-.6-2.8-2.1-5.4-3.4-2.7-1.3-4.8-2.8-4.8-3.3s-.4-.7-.9-.3c-2.2 1.3-3.8-5.1-5.6-23-.2-1.7-.4-3-.5-3-.3 0-1-5-1.2-8.8-.2-2-.5-3.7-.8-3.7-.3 0-.5-1.8-.4-4 0-2.2-.2-4-.6-4-.3 0-.7-1.9-.9-4.2-.1-2.3-.4-4.5-.6-4.8-.3-.4-.7-3.4-1-6.6-.4-3.2-.9-6.8-1.2-7.9-.4-1.1-.8-3.1-1-4.5-.4-3.6-1-6.5-1.2-6.5-.2 0-.4-.9-.6-1.9-.7-3.6-6.4-14.1-9.4-17.2l-3-3 5-5.3c2.7-2.9 4.9-5.6 4.9-6 0-.4.8-1.6 1.8-2.7 2.3-2.5 7.4-14.3 6.6-15.5-.3-.5-.1-.9.5-.9.5 0 .8-.9.6-2-.2-1.1 0-2 .4-2 .5 0 .7-1 .7-2.3-.1-1.2.1-2.9.6-3.9 2.7-5.5 2.9-39.8.3-53.3-.2-1.1-.4-2-.5-2-.1 0-.3-1.9-.6-4.3-.2-2.4-1.1-5.6-1.9-7.1-.8-1.6-1.1-3.1-.8-3.5.4-.3 0-.6-.7-.6s-1.1-.3-.7-.6c1.4-1.4-7.1-11-13.2-14.8-6-3.8-10.4-4.6-27.1-4.9-6.3-.2-12.1-.6-12.8-1.1-.7-.4-1.2-.2-1.2.4 0 .7-.6.8-1.7.1-1-.5-2.6-.5-4 0-1.3.5-2.5.4-2.8-.1-.4-.7-1.3-.6-2.5 0-1 .6-2.1.7-2.4.2-.4-.7-5.1-.8-6.6-.2-.3.1-.9.1-1.5 0-.5-.2-13.3-.4-28.2-.5-25.5-.2-27.4-.1-29.3 1.7zm94.7 29.1c7.2 1.3 14.7 7.2 15.9 12.5.3 1.5.9 3.6 1.4 4.8.4 1.1.4 2.7 0 3.4-.5.8-.6 1.9-.2 2.4.8 1.3 1 8.6.3 8.6-.3 0-.7 4.4-.7 9.8-.2 12.7-.9 18.1-3.5 26.1-2.1 6.4-8.3 14.1-11.4 14.1-.8 0-1.5.4-1.5.8 0 1.2-7.7 2.8-12.8 2.8-2.3-.1-4.2.2-4.2.5 0 .8-3.3.5-4.8-.5-.7-.4-1.2-.2-1.2.4 0 .6-.5.8-1.2.4-1.8-1.1-4.8-1.2-4.8-.2 0 .5-.9.4-2-.2-1.1-.6-2-.7-2-.2 0 1-3 .9-4.7-.1-.6-.4-2.2-.3-3.5.1-4.9 1.9-4.8 2.9-4.8-43.5v-43.5l21.3.5c11.6.2 22.6.7 24.4 1zM638.6 1328.4c-1.9 1.4-3.8 8.4-2.5 9.2.5.3.7 1 .3 1.5-1.3 2.2 1.8 6.6 5.9 8.3 10.1 4.3 14.9 6.9 16.3 9.1 1.7 2.6 2.6 13.3 1.2 14.1-.4.3-.5 1.1-.1 1.7 1.1 1.6 1.1 5.9.2 7.8-.5.9-.5 1.9-.2 2.3 1.2 1.2 1.2 6.7.1 6-.7-.5-.8-.2-.3.7 1.2 1.8 1.4 8.9.3 9.5-.5.3-.5 1.1-.1 1.7 1 1.6 1 24.7 0 25.4-.4.2-.4 1 0 1.6 1.2 1.9 1.3 129.8.1 132.9-.7 1.9-2.5 3.2-6.6 4.9-3.2 1.2-6.6 2.8-7.7 3.6-1.1.7-2.6 1.3-3.5 1.3-1.8 0-5.1 3.5-4.3 4.4.4.3.2.6-.4.6-1.8 0-1.3 10.8.6 13.2 1.7 2 2.7 2.1 16.4 2.2 9.7.1 14.3-.2 13.9-.9-.4-.6-.1-.6.9 0 1.6 1.2 30.9 1.3 32.8.1.6-.4 1.1-.2 1.1.4 0 .8.7.9 1.8.5.9-.4 2.4-.8 3.3-.9 3.8-.4 6.2-3.2 6.9-7.9.9-5.8-.4-8.7-5-10.9-3.3-1.6-7.2-3-7.8-2.8-.1 0-1.5-.6-3.2-1.5-1.6-.8-3.6-1.5-4.5-1.5-2.6 0-7.7-4-7.1-5.6.3-.8.2-1.4-.2-1.4-.8 0-.5-81 .4-81.9 1.1-1.1 24.9-.8 25.6.3.5.8.8.7.8 0 0-.8 1.9-1.1 5.6-.9 6.1.4 7.9 1.8 9 6.7.4 1.6 1 2.8 1.4 2.8.3 0 .7.6.7 1.2.1 2.1 1.1 6.7 1.7 7.6.3.5.7 2.2 1 3.8.7 3.7 4.8 7.4 7.5 6.7 2.9-.8 7.1-5.2 7.2-7.7.5-12.2.2-74.6-.3-74.6s-.8-.8-.8-1.8c0-2.3-5.1-5.3-8.2-4.9-2.6.4-5.4 4.6-6.2 9.4-.4 1.8-1.1 4.4-1.6 5.8-.6 1.5-.8 3.1-.4 3.6.3.5.1.9-.4.9-.6 0-1.3 1.6-1.7 3.6-.3 2-.9 3.3-1.2 3-.4-.3-1.2.2-1.9 1.2-1.1 1.6-3.1 1.9-19.6 2l-18.3.2-.1-12c0-7.9.3-12 1-12 .8 0 .8-.3.1-.8-1.4-1-1.5-30.5-.1-31.4.7-.5.7-.8.1-.8-1.3 0-1.4-24.9-.1-26.9.6-.9.5-1.2-.2-.7-.6.4-1-.1-.9-1.2.1-1.8 1.6-1.9 31.7-1.9 17.3 0 32.2.3 33.1.8 1.1.5 1.5 2.1 1.5 4.9-.1 2.2.1 4 .4 4 .6 0 1.1 4.8 1.4 11.7.1 1.3.4 2.3.7 2.3.3 0 .6 1.2.6 2.7.1 1.6.4 4.4.6 6.3 1.1 8.1 1.9 13.6 2.3 15.4.5 2.6 3.2 6.6 4.7 6.7 6.5.6 8.1.4 10-1.2 2.2-1.7 2.2-1.9 2.3-40.8 0-22.2-.3-39.1-.8-39.1s-.7-.4-.4-.8c1.6-2.6-5.5-2.9-69.1-2.9-47.8-.1-66.6.3-67.7 1.1zM1390.7 1328.8c-1.2.9-2.4 1.7-2.6 1.9-.3.2-.6 2.4-.7 5-.2 3.3.3 5.4 1.6 7.3 1.8 2.6 15.4 10 18.2 10 .7 0 2 1 2.8 2.2 1.3 2 1.5 15.6 1.7 102.3.1 63.5-.2 101-.8 102.6-.6 1.5-2 3.1-3.2 3.7-3.5 1.8-8.1 3.5-8.9 3.4-.5-.1-.8.3-.8.9 0 .5-.4.8-.9.5-.5-.3-1.4.1-2.1.9-.7.8-1.6 1.2-2.1.9-.5-.3-.9 0-.9.6s-.4.9-.9.6c-1.5-1-4 5.7-3.6 9.6.5 4.4 2.2 8.1 3.5 7.3.5-.3 1.2 0 1.5.6.4.5 1.3.8 2.1.5.8-.3 1.4-.2 1.4.2s2.5.7 5.5.7 5.5-.3 5.5-.8c0-.4.5-.5 1.2-.1 1.8 1.1 20.8 1.2 20.1 0-.4-.5-.1-.6.7-.1 2 1.2 22.4 1.2 23.2 0 .5-.6.8-.6.8.2 0 .9.7 1 2.4.3 1.3-.5 2.6-.7 2.9-.4 1.2 1.2 4.6-4.9 4.2-7.7-1-8.1-3.3-11.4-8.6-12.4-1.2-.2-2.6-.9-3.3-1.4-.6-.5-1.4-1-1.9-1-1.7-.1-6.3-3.1-8.4-5.3-1.8-1.9-2.2-3.6-2.4-9.3-.1-3.9 0-7.5.1-8 .1-.6.2-1.2.1-1.5-.7-1.8-.4-17 .2-17 .5 0 .5-.5.1-1.1-.9-1.6-1.1-10.9-.1-10.9.5 0 .5-.5.1-1.1-.9-1.5-.9-117.3 0-118.8.4-.6.4-1.1-.1-1.1-.4 0-.8-2.5-.8-5.5s.4-5.5.8-5.5c.5 0 .5-.6 0-1.2-1-1.7-1-4.9-.1-7 .5-.9.4-1.9-.2-2.3-.6-.4-.6-1.5 0-3 .5-1.4.6-2.5.1-2.5-.8 0-.6-2.3.5-7.7.4-2.1 7.1-7.3 10-7.7.6-.1 1.9-.8 2.8-1.5.9-.7 1.6-1.1 1.6-.7 0 1.1 5.3-2 7.3-4.2 1.9-2.1 3.1-11.2 1.5-11.2-.4 0-.8-.7-.8-1.5 0-3.6-3.6-4-36.3-4.1-26.6 0-32.1.2-34 1.4zM1488.2 1328.6c-1.7 1.1-2 4.8-1.3 13.1.2 1.9 6.2 7.1 9 7.8 1.4.4 4.9 1.8 7.8 3.1 4.6 2.2 5.3 3 6 6.2.4 2 .6 4.1.4 4.7-.2.8-.2 4.4 0 18.5v8c-.1 3.6-.1 7.2 0 8 0 .8 0 9.1-.1 18.5 0 9.3 0 17.4.1 18 .1.5.1 1.4-.1 2-.2 1.1-.2 20.6.1 22 .1.5 0 1.4-.1 2-.2 1.2-.2 44.6.1 46 .1.5.1 1.4-.1 2-.2 1.1-.2 20.6.1 22 .1.5.1 1.4-.1 2-.4 2.2-.1 21.5.4 22.3.2.4.1 1.4-.4 2.2-.4.7-.6 1.9-.3 2.6.6 1.7-2.3 4.8-3.7 3.9-.5-.3-1-.2-1 .4 0 .5-1.3 1.2-3 1.6-1.6.4-3 1.1-3 1.6s-.3.8-.7.7c-.5-.2-2.7.5-5.1 1.5-4.1 1.7-8.7 7.1-7.6 8.9.3.5.7 2.7.8 4.8.2 4 2.2 7.4 3.7 6.4.5-.3.9-.2.9.3 0 1.2 15.4 1 16.3-.2.4-.7 1-.7 1.5 0 .8 1.2 18.2 1.4 18.2.2 0-.5.5-.5 1.2-.1 1.8 1.1 6.8 1.3 6.8.2 0-.5.5-.6 1.1-.2 1.8 1.1 10.4 1.1 11.2 0 .4-.7 1-.8 1.5-.1.9 1.3 13.5 1.3 14.5 0 .4-.7 1-.7 1.5 0 .9 1.3 13.5 1.3 14.5 0 .4-.7 1-.7 1.5 0 .9 1.3 13.5 1.3 14.5 0 .4-.7 1-.7 1.5 0 .4.6 5.4 1 11.2 1 5.8 0 10.9-.4 11.3-1 .6-.7 1-.6 1.3.2.7 1.6 6.5.5 8.9-1.8 1.9-1.9 2-3.3 2-41 0-36.3-.1-39.2-1.8-41-1-1-2.3-2-3-2-.7-.1-1.9-.2-2.7-.3-.8-.1-2.1.3-2.8.8-.7.5-1.5.6-1.9.3-.7-.8-4.3 3.1-4.4 4.7 0 .6-.3 2-.5 3.1-.3 1.1-.7 3.9-.9 6.1-.2 2.3-.7 5.5-.9 7-.3 1.6-.8 5.8-1.2 9.4-.3 3.5-.8 6.8-1.1 7.3-.3.5-.7 2.5-.9 4.5-1 10.1-1.7 11.8-5.5 13.1-1.6.6-2.7.6-2.4.1.3-.5-.7-.5-2.5 0-1.6.5-3.2.5-3.5 0-.3-.5-1.9-.5-3.5 0-2.1.6-3 .5-3-.3s-.3-.8-.8-.2c-.4.5-1.8 1-3.2 1-1.4 0-2.8-.5-3.2-1-.5-.7-.8-.6-.8 0s-2.5 1.1-6 1.1c-3.3 0-6-.5-6-.9 0-.5-.7-.4-1.5.3-1.2 1-1.5 1-1.5-.1 0-.9-.3-1-.8-.4-.8 1.1-19.1 1.4-20.8.3-.6-.4-1.4-.4-1.8-.1-.9.9-5.5 1.2-5.4.4 0-.3-.1-.8-.2-1.1-.7-1.8-.3-12 .5-12 .7 0 .7-.3 0-.8-.5-.4-1-4.9-1-10 0-5.4.4-9.2 1-9.2.7 0 .7-.3 0-.8-.5-.4-1-3-1-5.7 0-2.8.5-5.3 1-5.7.7-.5.7-.8 0-.8-.5 0-1-2.5-1-5.5s.5-5.5 1-5.5c.7 0 .7-.3 0-.8-.5-.4-1-3-1-5.7 0-2.8.5-5.3 1-5.7.7-.5.7-.8 0-.8-.8 0-1.1-9.5-.6-17.8.1-1 4.3-1.3 19.3-1.2 19.7.2 21.8.6 21.8 4.4 0 .9.4 1.6.8 1.6.5 0 .9.6.9 1.2 0 2.6 4.5 18.3 5.5 19.6 2.2 2.6 6.7 4.3 8.7 3.3 2.7-1.5 4.4-5.7 4.1-10.1-.2-2.6-.2-2.8.3-7.5.1-1.7-.1-4.2-.5-5.8-.3-1.5-.3-2.7.1-2.7.9 0 .6-9.4-.4-11-.3-.5-.2-1 .3-1 1 0 .8-9.3-.3-11-.3-.5-.2-1 .3-1 1 0 .8-9.3-.3-11-.3-.5-.3-1 .2-1 .8 0 .8-19.6.1-23.1-.4-1.7-3.8-5.6-3.8-4.3 0 .3-.7.1-1.5-.6-1-.8-1.5-.9-1.5-.2 0 .6-.6.9-1.2.7-1.8-.6-4.4 1.6-5.3 4.5-.4 1.4-.7 2.6-.7 2.7.1.2-.5 2.1-1.3 4.3-.8 2.2-1.5 4.4-1.5 4.8-.3 3.4-2.6 8.9-4.5 10.8-2.1 2.1-3.2 2.3-9.3 2.2-3.7-.1-7.4.2-8 .6-.7.4-1.2.4-1.2-.1 0-1-9.3-.8-10.9.1-.6.4-1.1.4-1.1-.1 0-.4-2.1-.7-4.7-.6l-4.8.2.2-39.7c.1-21.8.2-40.7.2-41.9l.1-2.2h35l35 .1.1 2.4c.1 2.3.3 3.4.9 5.1.1.5.2 1.1.1 1.5 0 .4.4 3.1.9 6 1.5 8.8 2.3 14.2 2.4 17 .1 1.6.5 2.8.9 2.8.5 0 .6.4.3.9-.4.5-.2 2.1.4 3.5.7 1.9.6 2.6-.2 2.6-.9 0-.9.3 0 1.2.7.7 1.2 2.3 1.2 3.5 0 3.6 4.3 7.3 8.4 7.3 4.4 0 6.6-.9 6.6-2.6 0-.8.4-1.4.8-1.4s.7-17.1.7-38c-.1-34.7-.2-38.2-1.8-39.8-1.6-1.6-6.6-1.7-70.3-1.8-53.1 0-68.8.2-70.2 1.2zM1644.4 1328.9c-1.9 1.6-2 2.8-1.9 43.3 0 46.3-.2 44.6 6.7 45.4 6.7.9 9-2.2 10.3-14.1.9-7.3 1.3-11.2 1.9-14.5.2-1.4.7-5.2 1.1-8.5.4-3.3.9-6.9 1.1-8 .3-1.1.7-4.3 1-7 .3-2.8 1-5.5 1.4-6 .7-.8 29.4-1.3 36.6-.6.9.1 1.1 8.3 1 30.1 0 16.5.2 30 .6 30 .4 0 .5.7.2 1.5-.8 2.1-1 46.5-.2 46.5.3 0 .4.8.2 1.7-.8 3.3-.9 14.3-.2 14.3.4 0 .5.7.2 1.5-.8 2.1-1 46.5-.2 46.5.3 0 .4.8.2 1.7-.8 3.5-.9 14.3-.1 14.3.5 0 .6.4.2.9-.3.6-.6 4-.7 7.6-.2 6.5-.5 7.2-4 7.9-.7.2-2.6.9-4.3 1.6-1.6.6-5.9 2.2-9.5 3.5-3.6 1.3-7.3 2.6-8.2 3-3.7 1.5-4.2 14.9-.6 17.4 2.3 1.7 24.1 2.4 23.1.7-.4-.5-.1-.6.7-.1 2 1.2 37.3 1.2 38.3 0 .5-.7 1-.7 1.5 0 .9 1.2 14.2 1.4 14.2.2 0-.4.4-.6.9-.2 1.1.6 4.1-2.1 4.2-3.8.1-.7.2-2.6.4-4.2.1-1.7-.1-3.5-.5-4-.5-.6-.8-1.2-.7-1.5.4-1.2-3.4-5.3-5-5.5-1-.1-3.4-.9-5.3-1.7-1.9-.8-5.3-2.1-7.5-2.8-2.2-.7-5.4-1.9-7.1-2.6l-3.2-1.4.2-101.7.1-101.8h18.3c10.1 0 18.5.2 18.7.5.2.3.6 2.3.9 4.4.4 2.1.8 4.8 1.1 6 .2 1.2.7 4.3 1 7.1.4 2.7.9 6.3 1.1 8 .3 1.6.6 4.4.8 6.1.1 1.7.6 3.6 1 4.2.4.7.2 1.2-.6 1.2-.9 0-1 .3-.2.8.6.4 1.4 3.2 1.7 6.2 1.3 12.6 2.3 14.2 9.2 14.5 8.3.4 8 2.1 8.1-44.7 0-37.8-.1-41.2-1.7-43.3l-1.8-2.2h-71.3c-64.6-.1-71.6.1-73.4 1.6zM1805.7 1328.7c-3.2 1.6-4.4 6.7-2.7 11.7 1.1 3.4 6.5 9.6 8.3 9.6.4 0 1.4.6 2.2 1.2.7.7 2.6 2.3 4.2 3.5 1.6 1.2 3.9 4.1 5 6.5 2.3 4.5 6.6 14 6.7 14.8.1.3 1.4 3.1 2.9 6.4 1.5 3.2 2.7 6 2.7 6.3 0 .2 1.6 3.9 3.6 8.1 3.7 7.9 5.7 12.3 5.8 13.2.1.3.9 2.3 2 4.5 6.7 14.5 16.2 36 17.1 38.5.1.3 1.4 3.1 2.8 6.3 1.5 3.2 2.7 6.2 2.7 6.7 0 .6.5 1 1 1 .6 0 1 .7 1 1.5 0 .9.8 3.2 1.9 5.3 1.7 3.5 1.8 6.6 1.7 46.2l-.1 42.5-5.5 1.8c-3 1-5.7 2.3-6.1 2.9-.3.5-1 .9-1.5.9-.5-.1-3.1.6-5.7 1.5-7.4 2.5-10.4 9.1-7.1 15.6 1.3 2.5 5.4 5.7 5.4 4.2 0-.3.6-.2 1.3.4.7.6 1.8.7 2.6.2.8-.4 1.9-.6 2.6-.4 2.1.9 17.6 1 18.1.2.3-.5 1-.5 1.7-.1 1.8 1.1 11.7 1 11.7-.2 0-.6.3-.7.8 0 .8 1.1 14.1 1.3 15.8.2.6-.3 1.4-.3 1.8 0 1.1 1.1 5 .9 5.8-.2.5-.6.8-.5.8.2 0 .9.7 1 2.3.4 1.2-.4 2.7-.6 3.2-.4 1.1.3 5.4-3.2 5.6-4.5 0-.4.2-1.7.5-3 .7-3.7-4.2-11.3-7.6-11.8-.3 0-2.1-.7-4-1.5-1.9-.9-5.6-2.4-8.2-3.4-6.2-2.3-7-3.5-7.2-9.8 0-2.8-.5-5.5-1.1-5.9-.7-.5-.7-.8 0-.8.6 0 1-12.6 1.1-35.8 0-38.3 0-37.8 5.6-49.9 1.5-3.4 2.8-6.6 2.8-7.2 0-.6.5-1.1 1.2-1.1.6 0 .9-.3.6-.6-.6-.5 4.5-12.7 7.7-18.5.8-1.4 1.2-2.9.8-3.3-.3-.3-.1-.6.5-.6.7 0 1.2-.9 1.2-2s.4-2 .8-2 .8-1 .9-2.1c.1-1.2.9-2.9 1.7-3.8.8-.9 1.5-1.8 1.5-2.1 0-.8 1.8-5.3 4.9-12.2 1.7-3.7 2.8-6.9 2.4-7.2-.3-.3 0-.6.6-.6.7 0 1.2-.9 1.2-2s.5-2 1-2c.6 0 1-.6 1-1.4 0-.8 1.6-4.9 3.6-9.3 2-4.3 4.4-9.7 5.5-12.1 5.1-11.2 6.4-13.8 7.6-14.5.7-.4 1.3-1.3 1.3-1.8 0-1.3 8-8.9 9.4-8.9 2 0 6.3-6.1 6-8.5-.1-1.4.1-2.5.6-2.5.4 0 .7-1.5.6-3.4-.4-6.3-.1-6.3-32.1-6.4-28.4-.1-34.3.5-34.6 3.2-1.3 10.4 0 14.6 5.5 17 17.2 7.6 16.6 7.2 14.4 9.4-.7.7-.8 1.2-.3 1.2.4 0 0 .9-1 2s-1.5 2-1.2 2c.4 0-.4 2.1-1.8 4.7-1.3 2.6-2.1 5.1-1.9 5.5.3.4.1.8-.3.8-.7 0-1.9 2.2-3.8 7-1.2 3.2-3.1 7.5-5.7 12.9-2.8 6.1-4.9 10.9-5.3 12.1-.1.3-1.1 2.5-2.3 5-1.2 2.5-2.2 5.1-2.2 5.7 0 .7-.4 1.3-1 1.3-.5 0-.9.3-.8.7.1.9-1.1 4.1-4.6 11.6-1.3 2.9-3.2 7-4.1 9.2l-1.6 3.9-1.4-2.8c-.8-1.6-1.5-3.5-1.5-4.2 0-.8-.4-1.4-1-1.4-.5 0-.9-.3-.8-.8.1-.4-.4-1.8-1.2-3.2-.7-1.4-1.3-2.6-1.2-2.7.1-.2-.8-2.4-1.9-5-3.4-7.8-4.2-9.8-4.4-10.3 0-.3-1.4-3.4-3-7-1.7-3.6-3-6.7-3.1-7 0-.5-.7-2-6-13.5-1.5-3.3-2.8-6.5-3-7-.1-.6-1.3-3.5-2.7-6.5-8-17.6-7.8-16.6-4.1-18 1.4-.6 5-2.1 8-3.5s5.8-2.5 6.2-2.5c.4 0 1.8-.9 3.1-1.9 1.8-1.4 2.3-2.7 2.3-6.2-.1-2.4-.3-5.3-.6-6.4-.2-1.1-.5-2.3-.5-2.6-.2-1.7-6.9-2.2-33.7-2.4-22.9-.2-29.7.1-31.7 1.2z"/></svg>