<?xml version="1.0" standalone="no"?>
<!DOCTYPE svg PUBLIC "-//W3C//DTD SVG 20010904//EN"
 "http://www.w3.org/TR/2001/REC-SVG-20010904/DTD/svg10.dtd">
<svg version="1.0" xmlns="http://www.w3.org/2000/svg"
 width="600.000000pt" height="504.000000pt" viewBox="0 0 600.000000 504.000000"
 preserveAspectRatio="xMidYMid meet">

<g transform="translate(0.000000,504.000000) scale(0.100000,-0.100000)"
fill="#000000" stroke="none">
<path d="M0 2520 l0 -2520 3000 0 3000 0 0 2520 0 2520 -3000 0 -3000 0 0
-2520z m2230 2310 c22 -6 40 -14 40 -18 -1 -4 -32 -45 -69 -92 -57 -70 -67
-88 -59 -103 8 -16 7 -18 -11 -12 -22 7 -22 6 -39 -120 l-8 -60 -14 88 -13 87
-99 0 -100 0 4 -165 c1 -91 2 -165 1 -165 0 0 -12 19 -26 43 -75 127 -197 247
-252 247 -21 0 -22 -6 -28 -101 -4 -56 -8 -103 -10 -105 -2 -3 -25 5 -52 17
-32 14 -59 19 -82 16 -53 -9 -63 -22 -63 -88 0 -32 -4 -61 -10 -64 -5 -3 -23
1 -41 10 -17 9 -36 14 -43 12 -7 -3 -18 -38 -25 -79 -20 -116 -18 -112 -51
-88 -17 12 -44 20 -69 20 l-41 0 0 -104 0 -104 111 -136 112 -136 96 0 97 0
67 -60 c38 -33 63 -60 58 -60 -6 0 -33 9 -61 20 -28 11 -66 20 -86 20 -32 0
-34 -2 -28 -27 12 -53 36 -92 79 -132 57 -52 126 -69 224 -53 38 7 75 14 82
17 11 4 13 -11 11 -73 l-3 -79 32 -7 c17 -3 51 -6 75 -6 34 0 70 -14 163 -62
107 -55 119 -63 110 -80 -13 -24 -68 -58 -94 -58 -11 0 -37 9 -56 19 -22 12
-46 17 -59 14 -22 -6 -22 -9 -17 -86 l5 -80 -96 7 c-69 5 -106 12 -130 26 -18
11 -44 20 -58 20 -27 0 -28 3 -14 31 7 13 7 25 0 38 -7 15 -7 22 3 28 8 5 18
43 24 98 6 50 10 91 10 92 -1 1 -18 -2 -37 -6 -29 -5 -38 -14 -54 -48 -20 -44
-22 -45 -126 -56 -12 -2 -16 12 -18 62 l-3 64 -25 -23 c-15 -15 -24 -35 -25
-54 0 -17 -3 -48 -7 -69 l-7 -39 -49 68 c-40 56 -46 69 -34 78 8 6 42 33 77
60 l63 49 -67 34 c-80 40 -146 84 -178 119 -21 22 -30 25 -88 22 -49 -2 -64
-6 -63 -18 0 -8 4 -63 8 -122 l7 -108 -51 0 -50 0 0 70 c0 39 -3 70 -7 70 -4
0 -23 -11 -43 -25 l-37 -26 -13 -152 c-7 -84 -16 -158 -20 -166 -13 -25 -50
64 -57 134 -7 75 -8 77 -90 139 l-62 47 -3 148 -3 149 -120 -109 -120 -109
-81 6 -81 6 -13 -103 c-7 -57 -18 -144 -25 -194 l-13 -90 59 -96 c33 -53 59
-99 59 -102 0 -4 -21 3 -46 13 -25 11 -48 20 -50 20 -2 0 -4 -38 -4 -84 0 -92
-2 -96 -66 -96 l-35 0 5 168 c2 92 8 193 11 226 5 37 3 62 -4 69 -7 7 -11 73
-10 191 l0 181 132 185 133 185 63 7 c137 15 251 111 335 281 41 82 51 95 92
116 54 29 163 135 219 213 l40 56 55 -5 c87 -8 169 36 332 180 l67 59 51 -13
c91 -23 238 17 384 106 l70 42 43 -33 c24 -18 62 -38 83 -44z m290 13 c0 -9
20 -36 44 -59 54 -52 115 -68 234 -63 l81 4 -2 -37 c-1 -24 -7 -38 -15 -38 -8
0 -89 25 -181 55 -92 30 -184 55 -204 55 -44 0 -44 -3 -21 -114 8 -42 14 -81
12 -87 -2 -6 -25 16 -50 48 -36 43 -49 69 -53 103 -3 25 -8 60 -11 78 -5 30
-3 32 23 32 15 1 51 9 78 19 65 24 65 24 65 4z m398 -366 c-9 -29 -14 -34 -25
-26 -19 17 -16 35 10 52 12 8 23 14 24 13 1 -1 -3 -19 -9 -39z m589 -660 c13
-11 21 -22 18 -25 -5 -5 -155 48 -155 55 0 2 26 1 58 -2 36 -5 65 -15 79 -28z
m-597 -123 c26 -22 68 -84 57 -84 -5 0 -107 100 -107 105 0 12 21 3 50 -21z
m408 -5 c18 -6 31 -13 29 -15 -2 -3 -17 0 -33 6 -40 16 -153 14 -202 -3 -23
-8 -39 -11 -36 -6 3 5 26 15 52 24 51 16 134 14 190 -6z m-1278 -1229 c53 -49
200 -109 364 -148 l113 -27 12 -110 c7 -62 17 -113 24 -117 7 -5 107 -72 222
-150 l210 -143 3 -52 c3 -52 3 -53 -25 -53 -15 1 -57 19 -93 40 -65 40 -77 39
-66 -5 4 -16 18 -27 41 -35 40 -13 41 -21 20 -100 -28 -103 -35 -93 160 -225
155 -104 175 -121 175 -145 0 -77 4 -81 127 -139 88 -42 118 -62 129 -84 9
-16 13 -31 11 -33 -3 -3 -33 11 -68 30 -215 117 -581 225 -911 267 -80 10
-102 17 -120 36 l-22 24 28 85 c15 47 26 87 24 88 -1 1 -46 29 -99 61 l-97 58
-7 103 c-7 101 -8 104 -31 104 -25 0 -31 13 -36 80 l-3 35 -75 6 c-41 3 -79 2
-83 -2 -5 -4 -30 -53 -56 -110 -47 -103 -48 -104 -79 -101 -31 3 -32 2 -33
-35 -1 -21 -4 -92 -8 -158 l-6 -120 -73 -3 c-67 -3 -76 -1 -105 24 -29 24 -33
34 -37 93 l-5 66 -40 -80 c-39 -76 -43 -81 -89 -95 -37 -12 -45 -18 -35 -26 8
-6 94 -57 192 -114 97 -56 177 -105 177 -109 0 -3 -29 -35 -64 -70 l-63 -63
22 -89 23 -89 -32 0 c-17 0 -101 9 -186 20 -85 11 -156 20 -157 20 -1 0 -17
21 -36 48 -26 35 -53 106 -111 287 -42 132 -81 250 -86 262 -5 13 -47 41 -110
74 -56 28 -98 55 -93 59 4 5 111 62 238 129 206 109 234 121 280 121 l51 0
203 225 203 225 11 77 12 76 60 22 c33 13 60 23 61 24 0 0 20 -17 44 -39z
m3836 -737 c-4 -10 -135 -83 -151 -83 -3 0 -5 18 -5 40 0 36 -3 40 -25 40 -19
0 -32 -13 -62 -66 l-38 -65 -90 3 -90 3 -28 -81 -28 -81 -137 4 -137 5 -319
-71 c-176 -40 -322 -74 -324 -76 -7 -6 43 -24 103 -37 70 -15 260 -4 435 26
233 40 638 140 809 201 24 8 54 15 67 15 23 0 24 -3 24 -74 l0 -73 -142 -32
c-128 -28 -625 -121 -647 -121 -5 0 -14 -15 -21 -34 l-11 -34 -100 55 c-55 30
-102 53 -103 52 -2 -2 -16 -26 -31 -54 -44 -77 -43 -77 -72 -58 -23 15 -28 15
-77 0 -36 -12 -57 -25 -66 -42 -7 -14 -17 -25 -21 -25 -5 0 -76 39 -159 86
l-151 86 -34 -23 -34 -23 59 -115 c32 -64 58 -116 57 -117 -4 -3 -436 410
-433 413 2 2 66 -1 142 -8 452 -36 958 80 1396 321 122 67 304 186 388 254
l55 44 3 -121 c1 -66 0 -127 -2 -134z m-2371 -239 c124 -66 128 -69 93 -72
-34 -3 -37 -6 -43 -43 -4 -21 -11 -41 -16 -44 -5 -3 -54 28 -110 70 -55 42
-102 75 -104 73 -2 -2 7 -73 20 -158 14 -85 23 -155 21 -157 -1 -2 -71 93
-154 209 -83 117 -149 215 -147 217 2 2 29 -11 59 -28 31 -17 58 -31 61 -31 3
0 5 30 5 66 l0 65 93 -49 c50 -27 151 -80 222 -118z m-2711 9 c10 -116 11
-117 67 -137 27 -10 49 -22 49 -26 0 -5 -45 -45 -101 -88 -105 -83 -128 -92
-230 -92 l-38 0 -58 113 c-49 95 -62 112 -84 115 -25 3 -27 -1 -55 -108 l-29
-110 -58 -41 -59 -41 -34 33 -34 33 2 181 3 180 90 23 c111 28 215 39 411 41
l151 1 7 -77z"/>
<path d="M1852 3053 c3 -47 3 -48 40 -51 29 -3 38 1 43 18 7 23 52 49 87 51
34 2 -29 15 -109 24 l-64 7 3 -49z"/>
</g>
</svg>
