<?xml version="1.0" standalone="no"?>
<!DOCTYPE svg PUBLIC "-//W3C//DTD SVG 20010904//EN"
 "http://www.w3.org/TR/2001/REC-SVG-20010904/DTD/svg10.dtd">
<svg version="1.0" xmlns="http://www.w3.org/2000/svg"
 width="2048.000000pt" height="1395.000000pt" viewBox="0 0 2048.000000 1395.000000"
 preserveAspectRatio="xMidYMid meet">

<g transform="translate(0.000000,1395.000000) scale(0.100000,-0.100000)"
fill="#000000" stroke="none">
<path d="M1 8853 c1 -2879 5 -5070 10 -5033 20 149 38 250 49 275 4 11 11 36
14 55 10 58 33 154 82 330 8 30 17 64 19 75 2 11 11 45 20 75 9 30 18 64 20
75 2 11 11 45 20 75 9 30 23 80 31 110 8 30 17 64 20 75 3 11 9 38 14 61 5 22
13 51 19 65 6 13 17 51 25 84 8 33 24 96 36 140 37 140 50 190 53 200 2 6 9
37 17 70 7 33 16 65 20 70 4 6 13 55 20 110 7 55 16 114 20 130 5 17 12 76 15
131 9 133 -4 164 -123 287 -94 98 -131 149 -151 209 -11 34 -10 42 9 76 39 69
120 95 290 93 153 -2 184 -8 455 -88 99 -29 129 -34 283 -45 220 -16 845 -22
962 -9 89 10 448 29 675 35 163 5 523 26 625 36 52 5 248 17 435 25 187 9 408
20 490 25 83 5 233 14 335 21 393 24 569 33 845 44 55 2 165 8 245 14 80 5
160 10 178 10 l32 1 0 -99 c0 -55 -4 -102 -8 -105 -11 -6 -317 -26 -462 -30
-58 -2 -184 -8 -280 -14 -96 -7 -213 -13 -260 -15 -47 -2 -197 -11 -335 -20
-137 -10 -286 -19 -330 -21 -176 -8 -868 -47 -985 -56 -69 -5 -170 -11 -225
-15 -55 -3 -147 -8 -205 -11 -212 -13 -685 -23 -1060 -24 -212 0 -439 -5 -505
-10 -178 -14 -346 11 -615 90 -134 39 -242 57 -303 51 -5 -1 6 -13 24 -28 146
-122 207 -285 180 -486 -6 -51 -16 -105 -21 -122 -7 -25 -21 -84 -35 -145 -14
-63 -133 -515 -150 -570 -3 -8 -11 -40 -19 -70 -18 -64 -50 -178 -58 -200 -3
-8 -10 -35 -17 -60 -30 -120 -43 -166 -48 -180 -4 -8 -8 -22 -9 -30 -2 -8 -10
-42 -19 -75 -36 -133 -88 -367 -101 -455 -2 -19 -9 -60 -15 -90 -13 -70 -16
-99 -31 -297 -9 -124 -9 -204 0 -350 19 -287 20 -296 57 -533 11 -71 62 -303
89 -405 9 -33 18 -69 21 -80 2 -11 12 -45 21 -75 9 -30 17 -62 19 -70 1 -8 5
-22 8 -30 5 -15 40 -131 78 -265 39 -138 52 -180 60 -200 5 -11 16 -47 25 -80
8 -33 24 -91 34 -130 10 -38 22 -81 25 -95 4 -14 9 -32 12 -40 7 -18 10 -34
17 -80 11 -80 28 -178 38 -229 7 -29 12 -112 12 -185 1 -129 0 -132 -33 -203
-25 -54 -52 -90 -107 -144 -41 -39 -74 -73 -74 -76 0 -3 15 -2 33 1 17 4 50 9
72 11 54 4 145 24 169 37 50 27 256 75 401 93 196 26 1315 14 1512 -15 39 -6
107 -11 150 -10 76 0 411 -15 543 -25 36 -2 173 -9 305 -15 132 -5 276 -14
320 -20 44 -5 229 -17 410 -26 182 -9 366 -18 410 -20 44 -2 193 -11 330 -19
262 -17 742 -41 1165 -61 69 -3 206 -10 305 -16 99 -6 227 -12 285 -13 58 -2
143 -6 190 -9 210 -16 712 -31 1615 -46 303 -6 782 -14 1065 -19 327 -7 696
-7 1010 -1 1854 36 1685 32 2425 61 138 5 297 11 355 13 58 2 233 11 390 21
157 10 330 20 385 22 55 2 213 11 350 18 720 40 827 45 903 45 46 -1 116 4
155 9 40 6 214 18 387 26 173 9 371 20 440 25 69 6 161 12 205 14 250 11 715
38 810 46 173 16 777 32 1182 32 282 0 397 -4 493 -17 210 -27 267 -40 461
-106 48 -16 100 -29 115 -28 16 1 45 -2 64 -6 35 -8 34 -7 -45 76 -121 129
-140 179 -140 384 0 77 6 174 14 215 24 130 154 625 182 695 4 11 13 45 19 75
6 30 14 62 17 70 4 8 14 44 24 80 9 36 24 90 33 120 9 30 18 64 21 75 4 19 9
41 55 210 12 44 30 116 40 160 11 44 26 107 35 140 8 33 17 71 20 85 2 14 11
61 20 105 17 86 18 93 34 230 14 114 14 492 0 610 -5 50 -11 108 -14 130 -2
22 -11 81 -20 130 -9 50 -17 99 -19 110 -5 35 -27 139 -36 170 -4 17 -14 62
-21 100 -7 39 -16 75 -20 80 -4 6 -10 30 -14 55 -4 25 -10 49 -13 55 -3 5 -7
16 -8 25 -3 20 -24 101 -31 120 -4 8 -14 42 -23 75 -10 33 -25 85 -34 115 -9
30 -17 62 -18 70 0 8 -4 20 -8 25 -4 6 -13 37 -20 70 -7 33 -19 72 -27 87 -7
15 -13 36 -13 48 0 11 -4 28 -10 38 -12 20 -67 229 -115 437 -9 37 -36 169
-46 225 -13 65 -7 296 8 325 6 11 23 46 38 77 18 37 53 82 97 124 38 36 68 68
66 70 -2 2 -20 -1 -39 -6 -18 -4 -70 -14 -113 -20 -44 -7 -86 -16 -95 -21 -27
-14 -215 -67 -271 -75 -14 -2 -56 -8 -95 -14 -38 -5 -95 -15 -126 -20 -72 -13
-849 -13 -953 0 -45 6 -196 14 -336 19 -140 5 -307 12 -370 15 -63 4 -176 9
-250 12 -74 3 -209 10 -300 16 -91 6 -210 12 -265 15 -55 2 -219 11 -365 20
-146 8 -303 17 -350 19 -435 20 -524 26 -587 35 -39 5 -105 10 -145 9 -40 0
-143 5 -228 11 -85 6 -189 13 -230 14 -41 2 -160 8 -265 14 -104 6 -196 11
-202 11 -10 0 -13 27 -13 99 l0 99 38 6 c20 4 111 2 202 -4 91 -6 201 -13 245
-15 44 -2 193 -11 330 -19 138 -9 401 -23 585 -31 184 -8 371 -20 415 -25 44
-5 202 -14 350 -20 149 -6 304 -15 345 -20 74 -10 395 -30 560 -36 47 -1 123
-5 170 -9 116 -9 644 -28 870 -31 102 -2 255 -4 340 -6 208 -3 349 1 385 12
17 5 66 14 110 19 101 14 116 17 190 35 98 24 126 32 220 62 50 15 95 27 100
25 6 -2 34 3 63 10 40 9 64 10 105 1 28 -6 76 -17 106 -23 88 -19 134 -51 147
-103 14 -56 -66 -188 -168 -278 -103 -90 -139 -187 -118 -320 6 -40 15 -86 20
-103 5 -16 17 -59 25 -95 22 -88 41 -161 70 -265 9 -33 25 -93 36 -132 32
-123 57 -215 74 -278 10 -33 19 -67 21 -75 2 -8 11 -42 19 -75 23 -86 77 -303
90 -360 2 -11 12 -49 20 -85 30 -121 37 -151 70 -310 8 -41 17 -86 20 -100 2
-14 9 -47 14 -75 11 -49 16 -80 26 -160 3 -22 9 -69 14 -105 5 -37 9 2176 10
5063 l1 5127 -10240 0 -10240 0 1 -5097z m10343 5058 c3 -4 19 -11 34 -14 53
-11 128 -90 269 -286 35 -47 66 -91 70 -97 45 -61 177 -292 234 -409 35 -71
67 -131 72 -133 4 -2 7 -12 7 -22 0 -11 11 -40 25 -65 14 -25 23 -45 20 -45
-3 0 0 -12 9 -27 8 -16 24 -54 35 -85 12 -32 30 -82 40 -110 11 -29 28 -78 37
-108 9 -30 19 -62 22 -70 3 -8 6 -17 7 -20 0 -3 13 -43 28 -90 14 -47 29 -98
32 -115 4 -16 10 -39 15 -50 8 -18 24 -79 35 -130 3 -11 12 -49 20 -85 56
-227 121 -636 130 -820 2 -36 6 -87 10 -115 6 -49 15 -185 38 -565 14 -229 5
-1189 -12 -1309 -6 -42 -15 -146 -21 -231 -13 -209 -16 -234 -34 -395 -36
-311 -81 -648 -95 -710 -6 -22 -10 -47 -9 -55 0 -8 -5 -35 -12 -60 -6 -25 -13
-56 -16 -70 -2 -14 -10 -54 -18 -90 -8 -36 -18 -78 -21 -95 -4 -16 -13 -59
-22 -95 -8 -36 -16 -69 -17 -75 -2 -5 -18 -57 -36 -115 -19 -58 -35 -107 -35
-110 -1 -3 -5 -12 -8 -20 -4 -8 -13 -37 -22 -65 -18 -56 -18 -55 -70 -177 -30
-71 -92 -188 -159 -303 -6 -11 -33 -57 -60 -103 -61 -105 -129 -175 -203 -210
l-58 -27 -330 0 c-377 0 -393 2 -484 75 -57 46 -143 160 -226 297 -25 42 -45
77 -45 79 0 2 -20 45 -44 97 -24 51 -56 129 -71 173 -14 43 -30 88 -35 99 -15
34 -59 184 -66 223 -4 20 -10 42 -14 47 -7 9 -33 106 -36 130 0 6 -7 30 -14
55 -7 25 -14 54 -16 65 -1 11 -12 65 -24 120 -23 108 -48 242 -55 290 -7 46
-33 206 -40 245 -11 62 -61 529 -69 650 -2 30 -12 156 -21 280 -9 124 -19 286
-22 360 -8 180 -8 1015 0 1160 11 215 19 335 28 415 25 252 39 373 45 400 7
31 31 178 38 230 4 30 18 101 55 275 19 88 40 174 77 310 20 75 18 71 58 195
58 185 97 293 141 390 7 17 22 55 33 86 11 31 30 72 41 92 11 21 18 37 15 37
-4 0 -2 6 4 13 5 6 41 73 80 147 112 217 176 320 324 515 83 109 156 186 195
204 15 7 35 17 43 22 20 11 167 11 174 0z m-2767 -1063 c41 -21 140 -122 209
-212 l29 -39 5 -2976 c3 -1637 9 -2984 14 -2993 4 -10 12 -18 16 -18 5 0 15
-3 24 -6 15 -6 16 256 16 2919 0 2664 1 2925 16 2931 25 10 32 0 54 -73 20
-68 20 -83 20 -2926 l0 -2857 21 -29 c52 -74 49 -252 49 2779 0 2153 3 2811
12 2820 9 9 16 8 30 -5 10 -9 18 -20 18 -25 0 -8 19 -52 74 -173 18 -38 43
-97 56 -130 12 -33 26 -69 31 -80 12 -30 70 -198 74 -215 2 -8 11 -40 20 -70
9 -30 18 -62 19 -70 2 -8 8 -28 15 -43 6 -16 11 -39 11 -51 0 -12 3 -26 7 -30
4 -4 15 -42 24 -84 10 -42 25 -108 34 -147 9 -38 18 -81 20 -95 2 -14 11 -61
19 -105 9 -44 23 -134 32 -200 8 -66 19 -140 24 -165 5 -25 14 -126 20 -225 6
-99 15 -216 21 -260 10 -76 6 -901 -6 -1120 -12 -239 -27 -435 -35 -480 -5
-27 -14 -120 -20 -205 -7 -85 -16 -168 -20 -185 -7 -26 -14 -75 -34 -240 -2
-16 -11 -68 -20 -115 -9 -47 -21 -107 -26 -135 -31 -175 -104 -457 -162 -630
-17 -49 -37 -102 -44 -117 -8 -15 -14 -31 -14 -35 2 -15 -75 -179 -112 -242
-21 -34 -38 -67 -38 -71 0 -4 -13 -22 -29 -39 -24 -25 -37 -31 -71 -31 -23 0
-54 6 -68 14 -15 8 -65 29 -112 46 -47 18 -105 41 -130 50 -25 10 -58 21 -75
25 -16 5 -32 9 -35 10 -3 1 -23 9 -45 19 -77 35 -101 28 -342 -93 -123 -61
-225 -111 -227 -111 -2 0 -31 42 -64 93 -60 93 -127 221 -151 287 -7 19 -17
44 -22 55 -13 29 -60 157 -65 175 -2 8 -13 49 -24 90 -28 98 -50 180 -55 205
-2 11 -11 47 -20 80 -24 89 -79 360 -90 440 -2 17 -11 80 -20 140 -10 61 -19
128 -21 150 -2 22 -9 87 -14 145 -6 58 -15 132 -20 165 -5 33 -14 146 -20 250
-6 105 -15 216 -21 248 -16 92 -22 863 -9 1087 7 107 14 224 16 260 6 104 50
490 60 530 4 14 8 36 10 50 7 64 15 109 25 150 5 25 12 56 15 70 2 14 11 57
19 95 9 39 18 79 20 90 7 30 32 124 48 180 8 28 22 76 31 107 22 82 98 301
131 378 91 217 136 308 156 313 18 5 19 -74 19 -2813 l0 -2818 20 5 c53 14 50
-183 50 2915 0 2143 3 2874 12 2895 6 15 12 33 13 39 4 19 77 124 86 124 5 0
9 -1310 9 -2940 0 -2346 3 -2940 13 -2940 6 0 20 7 30 15 18 13 19 118 24
2992 5 2640 7 2981 21 3008 23 46 170 202 210 224 53 28 151 28 209 -1z m5566
4 c70 -18 103 -47 221 -197 107 -135 163 -218 258 -380 10 -16 46 -86 80 -155
34 -69 69 -141 79 -160 16 -33 89 -215 89 -224 0 -2 8 -21 17 -42 17 -41 19
-45 27 -82 3 -12 8 -27 11 -32 14 -23 121 -409 140 -505 2 -11 11 -54 20 -95
8 -41 22 -122 31 -180 8 -58 19 -121 24 -140 10 -37 29 -213 34 -315 2 -33 9
-118 15 -190 6 -71 13 -168 15 -215 2 -47 9 -168 15 -270 7 -102 10 -221 7
-265 -3 -44 -8 -141 -11 -215 -19 -448 -23 -520 -35 -600 -5 -36 -14 -139 -20
-230 -6 -91 -15 -192 -20 -225 -9 -56 -36 -264 -45 -345 -2 -19 -9 -60 -15
-90 -6 -30 -13 -68 -15 -85 -3 -16 -12 -61 -20 -100 -9 -38 -20 -90 -25 -115
-4 -25 -14 -65 -20 -90 -6 -25 -20 -79 -30 -120 -10 -41 -26 -100 -35 -130 -9
-30 -17 -59 -19 -65 -5 -23 -28 -92 -36 -110 -5 -11 -14 -38 -21 -60 -30 -100
-135 -321 -211 -442 -60 -97 -152 -190 -218 -222 l-55 -26 -310 0 -310 0 -53
28 c-93 49 -119 79 -262 297 -36 56 -134 267 -146 315 -4 17 -10 35 -14 40 -4
6 -19 48 -35 95 -15 47 -31 96 -36 110 -26 78 -114 446 -129 545 -7 39 -16 86
-21 105 -18 69 -72 475 -71 530 1 19 -3 64 -8 100 -10 64 -16 147 -45 695 -24
456 -17 1100 15 1345 17 133 31 244 35 280 2 19 11 78 20 130 9 52 20 118 25
145 5 28 14 73 20 100 6 28 15 72 20 98 5 26 12 58 16 70 4 12 9 29 10 37 3
23 61 226 90 315 14 44 27 88 29 97 2 9 9 26 15 38 6 12 13 29 15 38 4 19 93
239 128 317 49 110 104 212 220 409 11 17 36 54 57 81 20 28 57 77 81 110 53
73 88 114 154 180 74 74 150 94 258 67z m-4496 -7322 c44 -11 96 -26 115 -34
33 -14 37 -14 71 10 20 13 40 24 45 24 4 0 16 -17 25 -38 21 -48 25 -330 5
-350 -31 -31 -128 -6 -128 33 0 7 -14 41 -31 75 -34 65 -97 127 -139 136 -14
3 -36 10 -51 15 -30 12 -124 -10 -173 -41 -19 -11 -46 -39 -62 -62 l-29 -43 0
-260 c0 -259 0 -260 25 -305 37 -66 101 -102 193 -108 60 -4 80 -1 114 16 74
38 133 114 133 172 0 35 44 70 87 70 47 0 59 -8 73 -45 15 -40 4 -99 -33 -168
-35 -66 -91 -120 -163 -157 -46 -23 -59 -25 -194 -25 -127 0 -151 3 -190 21
-96 45 -167 135 -209 264 -25 76 -23 354 3 518 13 85 105 214 176 249 45 22
85 36 98 34 6 -1 20 3 30 8 28 17 123 12 209 -9z m847 9 c102 -27 122 -36 171
-81 58 -53 107 -143 125 -230 34 -167 35 -379 1 -506 -43 -162 -148 -259 -310
-285 -99 -15 -183 -10 -289 20 -116 32 -205 141 -239 293 -2 8 -8 77 -13 154
-13 192 13 372 65 462 33 56 116 129 168 147 23 8 56 19 72 25 41 14 198 14
249 1z m3148 -8 c27 -6 73 -22 104 -36 l57 -26 39 38 c31 31 42 36 56 27 15
-10 17 -34 20 -198 l2 -186 -25 -10 c-55 -21 -115 -1 -115 37 0 14 -3 22 -42
98 -30 61 -81 97 -164 120 -56 15 -65 15 -116 0 -68 -19 -129 -70 -158 -130
-28 -58 -35 -186 -22 -392 8 -129 13 -158 32 -188 21 -34 100 -97 117 -94 4 1
16 -1 26 -6 10 -4 51 -5 90 -3 55 4 82 11 112 30 76 48 101 97 106 208 l4 74
-35 8 c-59 15 -140 59 -140 77 0 9 13 24 29 34 24 14 56 17 188 17 137 0 161
-3 182 -19 21 -16 22 -21 11 -42 -7 -13 -25 -34 -41 -47 l-29 -23 0 -182 c0
-146 -3 -191 -17 -229 -9 -27 -21 -48 -25 -48 -5 0 -26 18 -46 39 l-38 40 -69
-35 c-106 -52 -267 -65 -373 -30 -158 53 -232 164 -253 381 -11 110 -5 313 11
390 15 74 18 83 42 128 50 93 131 157 231 183 57 14 174 12 249 -5z m2984 -1
c153 -41 236 -129 279 -295 18 -70 21 -405 4 -470 -6 -22 -12 -47 -13 -55 -4
-19 -23 -68 -38 -98 -7 -13 -36 -48 -64 -77 -57 -58 -130 -92 -219 -102 -149
-17 -314 19 -388 85 -22 19 -67 86 -83 122 -47 105 -43 108 -43 -37 -1 -125
-2 -133 -23 -147 -19 -14 -66 -16 -313 -15 -305 0 -376 6 -402 32 -14 14 -14
17 1 32 9 9 16 20 16 25 0 4 14 13 32 19 72 25 68 0 68 442 0 440 3 422 -66
435 -39 7 -57 32 -52 72 l3 27 190 5 c197 5 235 -1 235 -37 0 -30 -32 -63 -61
-63 -15 0 -41 -11 -56 -24 l-28 -24 -3 -396 -3 -396 146 0 c132 0 147 2 165
20 11 11 21 26 21 33 1 6 2 17 3 22 1 6 5 35 10 65 11 76 27 98 64 92 l30 -4
5 129 c7 175 24 322 38 339 6 8 9 14 5 14 -11 0 41 94 71 126 40 45 105 82
170 99 31 8 58 17 61 20 13 13 169 3 238 -15z m2881 0 c42 -12 89 -30 104 -41
64 -45 128 -142 151 -229 35 -126 41 -382 14 -515 -4 -16 -8 -37 -9 -46 -8
-43 -63 -132 -107 -172 -80 -72 -242 -118 -339 -96 -25 5 -54 9 -65 8 -53 -7
-174 50 -223 104 -37 42 -94 153 -100 196 -21 144 -20 380 0 474 34 156 114
264 221 301 23 7 55 18 71 24 54 18 199 14 282 -8z m-14158 -192 l-2 -147 -29
-12 c-46 -19 -71 12 -87 107 -7 43 -15 83 -18 91 -4 10 -43 13 -179 13 l-174
0 0 -160 0 -160 83 0 82 0 57 62 58 63 20 -24 c19 -22 20 -35 18 -189 -3 -159
-4 -165 -25 -173 -28 -10 -73 23 -73 55 0 12 -11 32 -24 45 -21 20 -32 22
-107 19 l-84 -3 -3 -167 -2 -168 163 0 c196 0 201 3 212 110 9 81 26 110 64
110 62 0 61 3 61 -176 0 -159 -1 -164 -22 -176 -17 -9 -109 -13 -368 -13 -190
0 -357 3 -372 8 -28 7 -35 27 -22 61 4 9 28 26 54 37 28 12 52 30 59 45 16 37
15 773 -2 795 -7 9 -28 24 -47 34 -45 22 -70 45 -70 61 0 35 40 39 405 44
l360 5 8 -25 c4 -14 7 -91 6 -172z m700 167 c19 -11 48 -37 65 -58 30 -38 31
-42 35 -158 4 -140 -11 -199 -66 -267 -34 -42 -35 -44 -17 -63 30 -33 52 -108
73 -249 5 -30 12 -68 16 -85 9 -34 42 -75 61 -75 7 0 23 -14 35 -31 19 -27 20
-32 7 -46 -19 -19 -79 -32 -144 -33 -83 0 -91 14 -120 190 -10 60 -32 167 -39
185 -29 83 -52 95 -185 95 l-100 0 1 -159 0 -159 27 -18 c15 -10 45 -35 67
-55 l40 -38 -40 -18 c-33 -14 -70 -17 -205 -18 l-165 0 -3 42 -3 43 55 24 56
25 0 411 0 410 -37 16 c-21 9 -45 20 -53 24 -15 7 -26 61 -17 83 3 9 85 11
313 7 286 -5 312 -6 343 -25z m1335 -6 c9 -16 39 -97 67 -181 27 -84 53 -160
56 -168 3 -8 7 -19 9 -25 8 -31 114 -345 124 -370 7 -16 14 -40 16 -51 4 -36
64 -144 79 -144 19 0 68 -67 62 -84 -10 -25 -77 -36 -223 -36 l-141 0 -7 31
c-10 50 6 67 87 93 20 6 18 19 -20 136 -36 108 -36 108 -201 108 -106 1 -144
-3 -160 -14 -16 -11 -71 -141 -63 -152 1 -1 -6 -16 -14 -32 l-16 -31 54 -24
c57 -25 69 -43 60 -89 l-5 -26 -117 1 c-64 1 -143 4 -176 8 -57 6 -60 8 -63
34 -3 23 7 38 50 80 44 42 56 62 67 107 8 30 16 59 19 64 5 10 69 189 77 216
17 61 99 288 108 299 7 8 11 17 10 20 -4 10 18 85 29 98 5 7 7 17 4 22 -4 5
-2 12 3 15 5 3 12 21 15 39 7 39 31 76 56 85 10 4 45 6 78 4 53 -3 60 -7 76
-33z m4574 18 c32 -21 -5 -87 -50 -87 -19 0 -40 -10 -59 -29 l-29 -29 0 -391
0 -391 143 0 c78 0 147 4 153 8 18 12 34 49 34 78 0 40 22 107 40 122 41 34
49 34 70 0 18 -29 20 -51 20 -180 0 -140 -1 -148 -22 -162 -19 -14 -64 -16
-293 -16 -299 0 -392 6 -420 26 -17 12 -17 16 -4 40 8 15 33 35 57 45 27 12
46 28 52 44 6 16 10 180 10 406 0 364 -1 380 -20 399 -11 11 -32 22 -47 26
-16 4 -34 11 -40 17 -18 13 -16 74 1 84 18 10 387 1 404 -10z m6637 -4 c62
-21 112 -53 152 -96 53 -57 58 -67 83 -169 18 -76 20 -107 17 -284 -4 -222
-12 -271 -49 -335 -40 -68 -136 -149 -176 -149 -10 0 -22 -4 -28 -10 -32 -32
-544 -41 -591 -10 -41 26 -25 62 42 96 23 12 42 30 45 43 3 12 5 196 4 408 -1
367 -2 387 -20 400 -10 8 -30 17 -44 20 -39 9 -50 23 -50 63 0 20 2 39 4 41 9
9 583 -8 611 -18z m-16152 -5 c12 -43 -2 -67 -47 -79 -22 -6 -47 -16 -53 -21
-10 -8 -13 -104 -13 -420 l0 -409 54 -24 c58 -26 68 -40 59 -85 l-5 -30 -127
1 c-133 0 -256 10 -267 22 -4 4 -3 21 2 38 7 24 18 35 41 43 18 6 42 21 54 33
22 21 22 26 24 390 1 202 -2 384 -6 404 -7 26 -17 40 -37 48 -36 16 -82 57
-82 74 0 26 56 35 226 36 169 1 172 1 177 -21z m406 -2 c12 -13 32 -52 45 -87
13 -35 40 -109 61 -164 42 -112 102 -280 142 -398 l26 -78 35 88 c35 90 88
236 144 398 17 50 34 95 38 100 4 6 13 33 20 60 7 28 22 62 32 78 l19 27 138
0 c162 0 180 -7 165 -61 -8 -29 -15 -35 -49 -40 -67 -11 -66 2 -63 -448 l3
-405 49 -18 c53 -19 66 -31 66 -64 0 -43 -22 -49 -196 -49 -139 0 -166 2 -180
17 -28 28 -11 66 40 88 24 10 46 26 50 35 3 9 6 152 6 318 l-1 302 -20 -55
c-25 -68 -53 -144 -69 -190 -6 -19 -15 -44 -20 -55 -4 -11 -17 -45 -28 -75
-115 -322 -106 -304 -167 -308 -30 -2 -57 2 -67 10 -9 7 -39 78 -68 158 -28
80 -58 161 -65 180 -39 101 -78 206 -79 215 -1 6 -7 19 -13 30 -5 11 -13 32
-17 48 -3 15 -11 27 -16 27 -6 0 -10 -103 -10 -279 0 -304 5 -336 55 -359 14
-7 31 -12 38 -12 7 0 18 -14 26 -31 12 -27 11 -33 -3 -47 -13 -14 -43 -17
-159 -20 -175 -5 -227 6 -227 46 0 37 10 48 46 56 18 4 40 16 50 28 18 19 19
47 22 407 1 212 0 396 -3 408 -4 16 -17 26 -48 34 -23 6 -48 16 -54 21 -14 11
-18 70 -6 81 3 4 70 7 148 7 136 0 142 -1 164 -24z m3891 -20 c0 -43 0 -44
-52 -62 l-53 -19 -3 -412 -2 -412 30 -16 c33 -17 80 -64 80 -81 0 -25 -58 -38
-191 -42 -141 -4 -209 9 -209 41 0 19 45 67 63 67 7 0 24 11 37 25 l23 24 -1
393 -1 393 -26 23 c-14 12 -32 22 -39 22 -13 0 -56 53 -56 69 0 21 63 29 228
30 l172 1 0 -44z m1518 32 c29 -29 -1 -88 -45 -88 -35 0 -71 -28 -81 -63 -5
-18 -9 -197 -8 -402 l2 -370 143 -3 c118 -2 147 0 161 13 10 9 22 47 30 96 12
68 18 83 41 100 35 24 44 24 63 -3 13 -18 16 -54 16 -180 0 -145 -1 -158 -19
-168 -23 -12 -566 -13 -649 -1 -68 10 -82 23 -61 59 8 15 28 33 44 41 69 32
65 2 65 441 0 445 4 419 -74 441 -28 8 -37 16 -44 42 -7 27 -6 34 12 44 29 17
387 18 404 1z m2924 1 c16 -9 19 -17 14 -42 -7 -36 -20 -47 -58 -47 -15 0 -40
-11 -55 -24 l-28 -24 -3 -396 -3 -397 153 3 153 3 17 35 c9 19 17 52 18 73 0
42 13 73 42 100 24 23 42 17 68 -25 19 -30 21 -46 18 -170 -2 -96 -7 -141 -16
-150 -10 -10 -73 -14 -255 -16 -274 -4 -438 4 -463 22 -30 22 -10 64 41 86 76
32 75 29 75 444 0 246 -4 373 -11 389 -11 25 -47 47 -76 47 -34 0 -56 63 -31
88 16 16 370 17 400 1z m1888 -159 l0 -170 -25 -12 c-22 -10 -29 -8 -49 11
-15 14 -27 40 -31 65 -3 22 -11 62 -17 89 l-12 47 -173 0 -173 0 0 -160 0
-160 81 0 81 0 55 60 c31 33 61 60 68 60 27 0 36 -55 33 -215 l-3 -160 -40 0
c-38 0 -41 2 -53 40 -23 69 -34 75 -134 75 l-88 0 0 -170 0 -170 169 0 c197 0
193 -2 206 110 9 81 26 110 64 110 62 0 61 2 61 -170 0 -126 -3 -162 -15 -173
-21 -21 -218 -31 -500 -25 -237 5 -275 12 -275 46 0 23 36 62 56 62 9 0 29 13
45 29 l29 29 0 376 c0 243 -4 383 -11 398 -5 13 -25 30 -42 37 -41 18 -77 50
-77 70 0 35 38 39 408 40 l362 1 0 -170z m1740 0 l0 -170 -44 0 c-46 0 -56 10
-56 53 0 18 -8 50 -28 107 -3 8 -4 21 -3 28 1 9 -39 12 -174 12 l-175 0 0
-160 0 -160 81 0 c93 0 114 8 133 55 17 39 62 73 77 58 20 -20 29 -89 29 -224
0 -148 0 -149 -56 -149 -21 0 -29 10 -49 54 -13 29 -31 56 -40 60 -9 3 -52 6
-96 6 l-79 0 2 -167 3 -168 165 0 165 0 19 40 c11 21 21 59 22 83 4 65 27 94
72 90 l37 -3 3 -166 c2 -145 0 -168 -14 -180 -14 -11 -84 -14 -375 -14 -327 0
-360 2 -376 17 -25 26 -7 70 35 84 70 22 67 2 70 439 l3 395 -25 25 c-14 14
-36 25 -50 25 -39 0 -62 60 -34 88 9 9 108 12 385 12 l373 0 0 -170z m2393
146 c13 -14 43 -64 68 -113 67 -131 150 -286 213 -397 31 -54 56 -100 56 -101
0 -8 70 -117 70 -109 0 5 0 139 0 297 -1 311 -1 315 -55 342 -38 19 -75 50
-75 63 0 6 14 18 32 26 45 23 313 23 346 0 12 -8 22 -20 22 -26 0 -16 -41 -58
-56 -58 -7 0 -22 -12 -33 -26 -21 -26 -21 -37 -21 -456 0 -492 1 -488 -71
-504 -45 -10 -71 -7 -100 11 -15 10 -56 84 -216 395 -41 80 -78 147 -81 150
-4 3 -35 61 -69 130 l-62 125 2 -335 2 -335 33 -20 c19 -11 48 -32 65 -48 31
-26 31 -28 12 -42 -33 -26 -86 -35 -200 -35 -109 0 -178 11 -191 31 -11 18 16
65 49 84 18 11 32 18 32 16 0 -2 9 -1 20 2 20 7 20 15 20 411 -1 307 -4 407
-13 419 -7 8 -28 18 -47 21 -46 9 -65 30 -65 72 l0 34 145 0 c142 0 147 -1
168 -24z m2875 -3 c25 -37 73 -126 165 -303 42 -80 94 -179 116 -220 22 -41
58 -109 78 -149 l38 -75 3 309 2 309 -60 54 c-33 29 -60 60 -60 67 0 25 62 35
209 35 146 -1 181 -8 181 -39 0 -21 -32 -61 -49 -61 -10 0 -27 -9 -39 -20 -22
-21 -22 -21 -22 -459 0 -487 -1 -493 -61 -505 -60 -12 -88 -7 -118 22 -16 15
-85 138 -159 282 -71 140 -144 282 -163 315 -18 33 -47 89 -65 125 -19 36 -34
61 -34 55 0 -5 -1 -153 0 -329 0 -347 -2 -338 59 -363 19 -8 41 -21 49 -29 18
-19 19 -63 1 -75 -8 -5 -83 -9 -167 -9 -157 0 -222 12 -222 42 0 19 52 79 70
82 8 1 25 6 38 10 l22 7 0 403 c0 314 -3 406 -13 414 -7 6 -35 19 -62 29 -48
18 -50 20 -53 61 l-3 42 150 0 150 0 19 -27z m-15620 -15 c50 -34 69 -61 94
-135 31 -95 21 -220 -24 -307 -18 -34 -82 -91 -119 -105 -19 -7 -43 -17 -54
-22 -34 -14 -136 -29 -202 -29 l-64 0 3 -157 3 -158 40 -13 c42 -14 95 -57 95
-78 0 -7 -20 -20 -44 -29 -37 -14 -72 -17 -195 -14 -139 4 -152 6 -173 26 -20
20 -20 25 -8 48 8 15 26 29 42 32 15 3 35 14 45 25 17 19 18 51 21 418 l3 398
-27 21 c-15 12 -36 21 -47 21 -33 0 -54 26 -49 61 l4 30 307 -3 308 -3 41 -27z
m-1878 -1507 c57 -8 154 -30 200 -47 8 -3 15 -4 15 -3 0 4 151 -92 177 -113
15 -12 30 -20 32 -17 3 2 6 23 8 45 8 77 55 120 118 107 59 -11 61 -29 58
-486 -4 -480 10 -437 -135 -437 -128 0 -133 5 -133 143 0 178 -29 282 -101
369 -33 41 -95 86 -149 108 -51 22 -225 20 -265 -2 -46 -25 -91 -74 -116 -126
-47 -100 -48 -416 0 -509 46 -90 95 -115 431 -213 170 -50 242 -85 328 -164
85 -78 132 -170 152 -296 20 -130 5 -563 -24 -673 -55 -207 -151 -310 -346
-372 -63 -20 -261 -23 -326 -6 -22 5 -61 15 -89 22 -75 19 -176 74 -228 124
-26 25 -47 44 -48 42 0 -1 -2 -11 -3 -22 -7 -61 -30 -126 -46 -135 -22 -12
-90 -13 -106 -2 -30 20 -34 80 -34 464 0 437 2 450 61 462 19 3 67 3 107 0 59
-6 76 -11 87 -28 8 -12 17 -75 23 -151 11 -143 14 -164 34 -215 35 -91 93
-161 166 -203 31 -17 61 -33 67 -34 5 -1 30 -7 55 -14 52 -13 162 -6 205 12
83 36 132 105 154 214 6 33 16 79 21 103 13 53 13 144 1 191 -5 20 -14 65 -21
100 -12 70 -46 128 -94 164 -37 28 -126 71 -181 87 -22 6 -47 14 -55 18 -8 3
-19 7 -25 7 -5 1 -17 4 -25 8 -41 15 -200 60 -210 59 -3 0 -39 18 -80 40 -115
61 -181 139 -242 283 -18 43 -29 178 -28 348 1 260 20 373 83 492 6 11 16 30
22 42 38 72 149 161 235 188 103 33 168 39 270 26z m7940 -1 c149 -22 268 -69
359 -141 28 -23 53 -40 55 -38 2 2 9 27 15 54 17 68 44 95 95 95 76 0 71 29
74 -446 2 -372 1 -430 -13 -450 -15 -23 -21 -24 -113 -24 -63 0 -104 5 -115
13 -14 10 -18 34 -21 122 -3 89 -17 187 -39 270 -6 25 -67 122 -88 142 -13 11
-53 36 -88 53 -81 41 -204 53 -275 26 -57 -22 -119 -82 -148 -143 -22 -45 -23
-61 -23 -253 l0 -205 28 -47 c45 -77 113 -115 287 -163 3 -1 12 -4 20 -8 8 -3
40 -12 70 -21 30 -9 82 -23 115 -33 33 -9 62 -17 65 -18 3 -1 30 -14 60 -29
167 -86 252 -197 291 -382 18 -85 20 -119 15 -302 -7 -243 -9 -278 -26 -355
-40 -193 -144 -321 -315 -388 -91 -36 -254 -45 -355 -19 -19 5 -65 16 -102 24
-75 18 -171 70 -234 128 l-42 38 -5 -32 c-18 -116 -37 -141 -107 -136 -36 2
-47 8 -57 28 -17 34 -19 837 -2 873 8 18 22 27 51 31 45 7 154 -2 179 -15 21
-11 28 -51 30 -169 0 -52 7 -119 15 -148 30 -120 104 -225 184 -264 106 -51
114 -53 210 -53 86 0 100 3 142 28 67 39 101 89 131 192 19 68 21 93 21 218
-1 137 -3 153 -20 205 -39 118 -107 178 -249 222 -38 12 -79 25 -90 30 -16 6
-97 31 -115 35 -13 2 -87 27 -105 35 -11 4 -47 18 -80 31 -33 12 -62 25 -65
28 -3 4 -24 19 -48 35 -73 50 -131 136 -159 234 -25 92 -31 157 -31 342 0 293
32 433 133 570 103 141 288 209 485 180z m1857 -20 c43 -12 82 -25 87 -31 6
-5 16 -9 23 -9 24 0 128 -74 183 -130 57 -57 142 -179 161 -227 6 -15 16 -41
24 -58 15 -33 37 -102 41 -125 1 -8 7 -49 13 -90 6 -41 16 -102 22 -135 5 -33
10 -73 9 -90 -1 -58 21 -321 32 -372 7 -36 8 -56 1 -65 -6 -7 -13 -115 -17
-248 -8 -267 -16 -327 -61 -500 -61 -232 -221 -459 -370 -524 -22 -10 -49 -22
-60 -27 -121 -54 -446 -78 -540 -39 -11 4 -40 13 -65 20 -71 19 -159 70 -223
129 -114 106 -189 244 -256 476 -41 140 -60 377 -59 755 0 345 14 539 47 660
6 19 14 51 19 70 19 72 77 197 125 269 125 186 273 281 487 312 93 13 290 2
377 -21z m1739 11 c16 -5 54 -14 84 -21 76 -17 182 -74 245 -132 l53 -48 4 65
c3 50 9 70 28 90 46 49 126 42 155 -14 13 -26 15 -88 15 -429 0 -411 -4 -452
-40 -472 -10 -6 -57 -10 -104 -10 -82 0 -86 1 -103 27 -12 18 -20 57 -25 117
-13 189 -104 340 -268 449 -111 74 -250 86 -367 33 -35 -16 -63 -32 -63 -35 0
-4 -13 -14 -29 -24 -46 -27 -127 -165 -165 -278 -47 -141 -51 -194 -51 -644 0
-478 7 -555 66 -700 16 -38 29 -75 29 -81 0 -6 20 -42 45 -81 35 -55 59 -80
108 -111 87 -55 116 -64 204 -65 104 -1 116 1 200 39 96 43 154 103 204 209
21 45 39 92 39 103 0 12 5 33 11 49 6 15 13 37 15 48 15 90 34 150 50 162 14
10 47 13 124 11 135 -4 133 -1 127 -188 -4 -129 -24 -236 -49 -267 -6 -7 -8
-13 -4 -13 12 0 -46 -105 -94 -170 -57 -77 -102 -120 -190 -181 -66 -45 -175
-99 -202 -99 -8 0 -18 -3 -22 -7 -7 -8 -14 -9 -116 -23 -75 -10 -183 -6 -230
10 -14 4 -45 14 -70 21 -182 53 -371 245 -430 435 -6 22 -15 48 -20 59 -8 17
-19 62 -35 140 -3 11 -9 54 -15 95 -6 41 -16 89 -22 105 -15 42 -23 822 -9
955 8 89 24 185 44 276 13 57 89 228 125 281 109 161 251 270 391 302 24 5 45
12 48 15 10 9 277 7 309 -3z m-10077 -20 c24 -5 47 -15 52 -22 12 -19 11 -126
-1 -150 -11 -20 -84 -62 -93 -53 -10 11 -87 -37 -110 -68 -48 -67 -48 -63 -44
-878 3 -518 7 -786 15 -830 20 -111 62 -206 114 -261 70 -73 120 -92 250 -97
59 -2 116 -1 125 3 10 4 30 9 44 10 40 4 126 54 161 94 62 70 97 183 106 341
7 125 14 1553 7 1588 -5 26 -14 36 -43 49 -20 9 -55 24 -77 33 -22 10 -59 25
-82 35 -33 14 -45 26 -55 54 -13 39 -11 96 3 123 15 29 71 33 386 33 352 0
334 5 341 -99 4 -59 2 -67 -21 -90 -14 -14 -38 -28 -54 -32 -43 -11 -79 -40
-99 -81 -18 -36 -19 -71 -16 -718 5 -881 -6 -1068 -73 -1252 -72 -198 -199
-327 -375 -381 -43 -13 -95 -17 -235 -17 -173 0 -258 10 -324 37 -14 6 -28 12
-31 12 -18 3 -83 50 -131 94 -81 74 -169 254 -169 345 0 14 -4 28 -9 31 -8 6
-19 66 -28 161 -2 28 -6 419 -9 869 -3 632 -7 823 -17 834 -6 8 -34 26 -62 38
-82 38 -108 67 -113 130 -6 73 3 100 35 112 35 12 572 14 632 3z m4439 2 c220
-5 265 -9 280 -22 16 -15 17 -47 12 -416 -3 -220 -8 -405 -13 -412 -10 -16
-62 -26 -101 -19 -47 9 -68 54 -82 176 -2 14 -10 75 -19 135 -9 61 -19 126
-21 145 -3 19 -7 50 -10 68 l-5 32 -319 0 -320 0 0 -430 0 -430 174 0 c160 0
175 2 199 21 15 11 26 23 25 27 -1 4 7 33 16 66 10 32 19 65 20 72 1 7 5 17 9
20 4 4 7 15 7 24 0 10 9 29 21 44 27 35 68 34 106 -1 l29 -28 -1 -404 -1 -404
-28 -23 c-30 -27 -73 -31 -100 -11 -10 7 -24 35 -31 63 -8 27 -21 74 -29 104
-9 30 -24 66 -34 80 l-19 25 -179 0 -179 0 -3 -413 c-1 -237 2 -420 7 -430 5
-9 42 -28 83 -41 40 -14 78 -28 83 -31 6 -4 22 -10 38 -14 49 -12 67 -39 67
-104 0 -50 -4 -62 -26 -83 l-26 -24 -354 -3 c-230 -2 -361 1 -373 8 -28 14
-38 104 -17 153 12 31 26 41 83 67 37 16 84 38 103 47 l35 18 3 1013 c1 671
-1 1020 -8 1032 -11 20 -126 80 -153 80 -9 0 -29 14 -46 31 -27 26 -31 38 -31
82 0 63 17 99 50 108 33 9 744 11 1078 2z m7127 -24 c15 -13 21 -33 23 -68 3
-77 -10 -98 -75 -127 -91 -40 -136 -65 -150 -82 -10 -14 -12 -229 -13 -1023 0
-946 1 -1007 18 -1022 23 -21 130 -77 147 -77 8 0 27 -13 43 -30 27 -27 30
-36 30 -93 -1 -99 8 -97 -366 -97 -318 0 -363 5 -382 40 -6 10 -10 44 -10 75
0 70 16 86 130 134 45 19 89 45 96 57 13 19 15 168 15 1012 -1 567 -5 1000
-10 1014 -8 22 -41 58 -41 45 0 -10 -113 43 -146 68 -39 30 -58 75 -50 118 13
69 18 71 188 78 84 3 239 3 343 1 167 -4 192 -7 210 -23z m3285 19 c13 -5 28
-15 32 -21 4 -7 8 -202 8 -434 0 -462 2 -444 -60 -458 -37 -8 -96 10 -105 33
-4 9 -11 44 -15 77 -37 270 -50 363 -54 385 -3 14 -8 42 -11 63 l-6 37 -182 0
-182 0 2 -1012 3 -1013 22 -9 c13 -5 37 -14 53 -21 17 -7 57 -21 90 -30 33
-10 72 -27 87 -37 51 -35 61 -135 17 -179 -18 -18 -36 -19 -412 -19 -464 0
-437 -6 -437 100 0 89 12 100 158 150 62 21 119 43 127 50 13 11 15 141 15
1016 l0 1004 -189 0 -188 0 -13 -92 c-6 -51 -13 -109 -15 -128 -2 -19 -9 -64
-15 -100 -6 -36 -13 -83 -14 -105 -5 -67 -23 -136 -40 -154 -11 -11 -33 -16
-67 -15 -89 1 -84 -25 -84 458 0 450 0 450 48 458 52 9 1404 5 1427 -4z m810
-9 c23 -9 25 -15 28 -77 2 -55 -1 -73 -15 -90 -18 -20 -152 -82 -178 -82 -8 0
-16 -4 -20 -9 -5 -8 39 -130 64 -178 27 -52 71 -152 71 -161 0 -5 10 -30 21
-54 12 -23 26 -52 30 -63 10 -24 96 -221 109 -250 5 -11 21 -49 36 -85 14 -36
27 -66 29 -68 2 -2 10 11 18 30 8 18 31 71 52 118 21 47 46 105 57 130 11 25
28 63 39 85 51 111 122 271 138 313 11 27 28 64 38 83 10 19 24 46 31 62 13
30 21 24 -119 86 -63 27 -89 62 -89 118 0 59 22 99 57 106 15 2 158 3 316 1
214 -2 293 -6 304 -16 12 -10 14 -27 11 -78 -6 -76 -18 -100 -66 -126 -56 -30
-112 -103 -164 -214 -84 -179 -95 -203 -128 -280 -18 -41 -41 -95 -53 -120
-11 -25 -21 -48 -21 -51 -1 -3 -11 -25 -22 -50 -12 -24 -34 -73 -49 -109 -15
-36 -39 -90 -53 -120 -14 -30 -26 -57 -26 -60 0 -3 -12 -31 -28 -62 -15 -31
-28 -59 -28 -61 0 -3 -12 -31 -27 -63 -14 -33 -29 -66 -32 -74 -3 -8 -6 -202
-8 -430 -3 -326 -1 -419 9 -433 7 -9 42 -28 78 -41 147 -53 180 -84 180 -169
0 -32 -6 -49 -21 -63 -20 -18 -43 -19 -379 -22 l-358 -3 -31 27 c-28 23 -31
31 -31 84 0 72 12 86 113 126 40 16 74 29 77 29 3 1 22 7 43 14 l37 13 0 414
0 415 -26 62 c-14 34 -38 89 -54 122 -15 33 -42 94 -61 135 -18 41 -48 109
-67 150 -18 41 -42 93 -52 115 -84 188 -100 224 -100 229 0 4 -15 39 -34 79
-59 127 -88 191 -104 232 -25 65 -62 110 -124 150 -72 46 -100 90 -101 155 -1
83 11 89 172 92 210 5 483 -3 511 -13z m-13083 -17 c140 -54 217 -147 242
-292 7 -36 16 -87 21 -115 14 -75 18 -218 9 -330 -20 -257 -61 -383 -166 -502
l-55 -63 30 -37 c36 -46 89 -155 98 -203 15 -86 58 -377 97 -658 9 -61 21
-110 30 -120 9 -10 46 -33 82 -51 86 -44 105 -69 105 -136 0 -41 -5 -57 -25
-79 l-24 -26 -176 0 -176 0 -24 26 c-24 26 -29 43 -45 174 -6 41 -17 120 -25
175 -8 55 -17 116 -19 135 -2 19 -9 60 -16 90 -6 30 -13 75 -16 100 -23 202
-61 334 -113 390 -58 61 -95 70 -301 70 l-180 0 0 -420 0 -421 24 -24 c24 -24
120 -75 141 -75 6 0 26 -12 44 -28 26 -21 34 -37 38 -73 5 -41 2 -50 -25 -80
l-30 -34 -342 0 c-393 0 -370 -6 -370 96 0 47 5 63 26 88 14 17 30 31 34 31 5
0 38 14 73 30 36 17 70 30 75 30 32 0 33 25 32 1046 l0 1019 -22 17 c-13 10
-30 18 -39 18 -8 0 -19 4 -25 8 -5 5 -35 19 -67 32 -32 12 -64 32 -72 44 -21
29 -20 125 1 155 l17 24 541 -6 c510 -5 544 -6 593 -25z m10669 20 c27 -18 34
-107 34 -419 0 -392 -6 -423 -86 -423 -61 0 -80 14 -97 72 -15 50 -36 175 -42
243 -1 17 -5 42 -9 56 -4 14 -10 57 -14 95 l-7 69 -342 3 -343 2 0 -410 0
-410 184 0 c225 0 198 -22 262 205 9 33 26 68 36 78 28 24 70 21 102 -8 l27
-25 -3 -414 c-3 -391 -4 -415 -22 -435 -36 -40 -105 -20 -129 38 -28 66 -32
79 -41 133 -2 15 -12 45 -23 65 l-18 38 -187 3 -188 3 0 -436 0 -435 334 0
c288 0 335 2 346 15 12 14 22 60 35 150 17 121 37 274 39 295 4 34 32 86 51
94 30 11 90 6 113 -10 l22 -15 0 -403 c0 -331 -2 -406 -14 -422 -14 -18 -35
-19 -713 -22 -579 -2 -702 0 -717 11 -21 15 -34 105 -22 152 7 26 34 42 194
111 l42 18 2 935 c2 515 3 963 2 996 0 66 -5 103 -17 123 -9 13 -88 52 -107
52 -26 0 -98 61 -109 91 -16 45 -14 101 5 127 l15 22 697 0 c383 0 702 -4 708
-8z"/>
<path d="M13010 9495 l0 -3215 35 0 35 0 0 3215 0 3215 -35 0 -35 0 0 -3215z"/>
<path d="M13152 9458 l3 -3173 30 -3 c47 -5 145 25 195 59 29 20 66 63 106
122 66 98 134 225 134 249 0 8 3 18 7 22 31 31 32 115 33 2536 0 1705 -3 2444
-11 2485 -19 108 -69 246 -105 295 -11 15 -55 94 -98 175 -12 22 -24 42 -28
43 -5 2 -8 8 -8 14 0 25 -217 322 -250 343 -7 4 -9 -1121 -8 -3167z"/>
<path d="M12910 12550 c-14 -23 -31 -48 -37 -55 -7 -7 -13 -16 -13 -19 0 -2
-23 -42 -51 -88 -90 -144 -159 -259 -226 -373 l-65 -110 -9 -190 c-5 -104 -8
-1270 -7 -2590 l3 -2400 33 -65 c18 -36 42 -81 55 -101 12 -20 41 -67 64 -105
49 -82 73 -105 133 -132 53 -23 138 -47 145 -40 3 3 4 1423 3 3157 l-3 3153
-25 -42z"/>
<path d="M9275 5393 c-95 -29 -149 -95 -156 -193 -4 -59 -4 -349 0 -422 4 -78
43 -138 110 -173 44 -22 63 -25 156 -25 73 0 105 4 105 12 0 6 3 9 6 5 9 -9
55 17 80 45 33 36 62 134 71 238 9 109 -2 339 -17 354 -5 5 -10 18 -10 28 0
23 -55 85 -93 104 -40 21 -131 44 -170 43 -18 -1 -54 -8 -82 -16z"/>
<path d="M15400 5398 c-14 -6 -43 -19 -65 -28 -99 -44 -109 -81 -109 -385 1
-203 4 -246 18 -280 40 -94 99 -124 241 -125 87 0 106 3 145 24 64 33 97 87
110 177 6 41 15 99 20 129 7 35 6 58 0 64 -6 6 -10 56 -10 113 0 139 -14 187
-71 244 -34 34 -59 50 -95 59 -69 18 -155 21 -184 8z"/>
<path d="M18249 5391 c-136 -48 -157 -101 -158 -401 0 -114 4 -214 11 -241 15
-64 55 -117 108 -146 42 -22 54 -24 162 -21 113 3 117 4 154 34 21 17 48 51
61 75 57 116 59 479 3 589 -18 35 -78 94 -97 96 -5 0 -15 3 -23 6 -95 33 -148
35 -221 9z"/>
<path d="M4677 5404 c-4 -4 -7 -83 -7 -176 l0 -168 102 0 c56 0 116 5 134 12
30 10 72 63 61 75 -3 3 -1 17 4 32 16 41 1 179 -20 191 -10 5 -67 13 -127 19
-60 5 -116 12 -125 15 -8 4 -18 3 -22 0z"/>
<path d="M6230 5141 c-30 -91 -56 -171 -58 -178 -3 -10 25 -13 118 -13 94 0
121 3 117 13 -2 6 -17 50 -32 97 -15 47 -31 94 -35 105 -5 11 -16 46 -25 77
-9 32 -19 59 -23 62 -4 2 -32 -71 -62 -163z"/>
<path d="M17267 5404 c-4 -4 -7 -189 -7 -411 l0 -403 111 0 c103 0 116 2 175
30 118 57 144 126 144 390 0 163 -13 231 -56 287 -36 47 -115 81 -217 93 -45
5 -96 12 -112 16 -17 3 -33 2 -38 -2z"/>
<path d="M3090 5406 c-3 -2 -4 -89 -2 -192 l3 -187 82 6 c96 6 143 24 190 71
50 49 59 131 25 218 -16 43 -50 58 -156 68 -53 5 -106 12 -117 15 -11 3 -23 4
-25 1z"/>
<path d="M11109 3685 c-4 -3 -35 -10 -69 -16 -112 -18 -235 -94 -273 -168 -8
-14 -29 -55 -49 -91 -36 -67 -47 -97 -53 -140 -2 -14 -11 -77 -20 -140 -10
-63 -19 -135 -20 -160 -2 -25 -9 -103 -15 -175 -10 -100 -10 -172 -1 -310 6
-99 13 -207 15 -240 3 -49 22 -182 40 -281 11 -60 72 -179 117 -228 41 -45
163 -124 192 -125 4 0 33 -5 64 -12 34 -6 102 -9 163 -7 122 5 179 28 261 105
49 46 115 164 140 253 16 56 14 52 22 70 13 31 30 138 34 215 18 385 11 798
-16 946 -27 142 -86 279 -152 353 -62 69 -155 118 -260 136 -35 7 -75 14 -89
17 -14 2 -28 2 -31 -2z"/>
<path d="M4970 3214 l0 -426 208 4 c227 4 241 7 305 67 48 45 75 104 87 195 6
39 15 99 20 132 17 108 13 247 -10 306 -49 127 -108 147 -432 148 l-178 0 0
-426z"/>
<path d="M1 1598 l-1 -1598 10240 0 10240 0 -1 1568 c-1 947 -5 1541 -11 1502
-4 -36 -10 -81 -12 -100 -15 -123 -61 -327 -136 -605 -12 -44 -28 -102 -35
-130 -7 -27 -23 -84 -35 -125 -12 -41 -28 -100 -36 -130 -16 -61 -16 -63 -39
-140 -16 -57 -41 -147 -75 -275 -31 -116 -60 -225 -77 -285 -8 -30 -21 -95
-29 -145 -8 -49 -19 -111 -25 -136 -5 -25 -11 -92 -12 -150 -2 -124 9 -153 98
-239 101 -98 185 -220 185 -270 0 -48 -52 -93 -145 -126 -38 -14 -80 -18 -170
-18 -105 0 -131 4 -210 29 -49 16 -94 30 -100 31 -5 0 -19 4 -30 8 -52 20 -76
26 -150 42 -44 9 -95 18 -113 20 -18 1 -44 5 -58 8 -103 26 -788 24 -1404 -4
-213 -10 -802 -44 -1045 -61 -77 -5 -169 -9 -204 -9 -36 1 -103 -4 -150 -9
-75 -10 -290 -22 -586 -34 -49 -3 -214 -11 -365 -20 -400 -23 -407 -24 -735
-42 -165 -9 -334 -15 -375 -15 -41 1 -109 -3 -150 -9 -41 -6 -185 -16 -320
-21 -135 -6 -396 -17 -580 -25 -184 -7 -400 -14 -480 -14 -80 -1 -179 -5 -220
-11 -303 -40 -4346 -40 -4770 0 -58 6 -163 10 -235 10 -181 0 -683 17 -850 30
-152 11 -516 31 -660 36 -49 2 -211 11 -360 20 -148 9 -310 18 -360 20 -49 2
-202 9 -340 14 -137 6 -286 15 -330 20 -44 5 -179 14 -300 19 -543 25 -793 40
-861 52 -33 6 -89 10 -125 9 -91 -2 -475 18 -594 31 -55 5 -136 10 -180 9 -44
-1 -208 4 -365 10 -406 16 -967 16 -1060 1 -41 -7 -88 -14 -105 -15 -41 -4
-207 -41 -275 -61 -30 -9 -59 -17 -65 -19 -5 -1 -41 -13 -80 -26 -58 -20 -89
-24 -180 -24 -147 0 -222 23 -291 89 -53 51 5 174 145 308 90 85 104 110 122
212 12 63 2 144 -35 280 -9 33 -18 69 -21 80 -2 11 -11 45 -20 75 -9 30 -18
64 -20 75 -2 11 -11 45 -20 75 -9 30 -25 88 -35 128 -25 94 -57 213 -76 282
-9 30 -17 62 -18 70 -1 9 -5 20 -8 25 -3 6 -9 26 -13 45 -3 19 -11 49 -16 65
-9 29 -86 348 -113 470 -39 170 -46 207 -62 285 -21 111 -44 237 -49 275 -2
17 -8 59 -13 95 -6 41 -10 -521 -11 -1532z"/>
</g>
</svg>
